<svg viewBox="0 0 918.75 400" xmlns="http://www.w3.org/2000/svg"><g><g><g><g><g><line x1="39.109375" y1="364.237578373193" x2="34.109375" y2="364.237578373193" style="visibility: inherit;" fill="rgb(0, 0, 0)" stroke="rgb(204, 204, 204)" stroke-width="1px"></line><line x1="39.109375" y1="335.7883423739271" x2="34.109375" y2="335.7883423739271" style="visibility: inherit;" fill="rgb(0, 0, 0)" stroke="rgb(204, 204, 204)" stroke-width="1px"></line><line x1="39.109375" y1="307.3391063746612" x2="34.109375" y2="307.3391063746612" style="visibility: inherit;" fill="rgb(0, 0, 0)" stroke="rgb(204, 204, 204)" stroke-width="1px"></line><line x1="39.109375" y1="278.8898703753953" x2="34.109375" y2="278.8898703753953" style="visibility: inherit;" fill="rgb(0, 0, 0)" stroke="rgb(204, 204, 204)" stroke-width="1px"></line><line x1="39.109375" y1="250.44063437612937" x2="34.109375" y2="250.44063437612937" style="visibility: inherit;" fill="rgb(0, 0, 0)" stroke="rgb(204, 204, 204)" stroke-width="1px"></line><line x1="39.109375" y1="221.9913983768634" x2="34.109375" y2="221.9913983768634" style="visibility: inherit;" fill="rgb(0, 0, 0)" stroke="rgb(204, 204, 204)" stroke-width="1px"></line><line x1="39.109375" y1="193.54216237759752" x2="34.109375" y2="193.54216237759752" style="visibility: inherit;" fill="rgb(0, 0, 0)" stroke="rgb(204, 204, 204)" stroke-width="1px"></line><line x1="39.109375" y1="165.0929263783316" x2="34.109375" y2="165.0929263783316" style="visibility: inherit;" fill="rgb(0, 0, 0)" stroke="rgb(204, 204, 204)" stroke-width="1px"></line><line x1="39.109375" y1="136.64369037906567" x2="34.109375" y2="136.64369037906567" style="visibility: inherit;" fill="rgb(0, 0, 0)" stroke="rgb(204, 204, 204)" stroke-width="1px"></line><line x1="39.109375" y1="108.19445437979977" x2="34.109375" y2="108.19445437979977" style="visibility: inherit;" fill="rgb(0, 0, 0)" stroke="rgb(204, 204, 204)" stroke-width="1px"></line><line x1="39.109375" y1="79.74521838053386" x2="34.109375" y2="79.74521838053386" style="visibility: inherit;" fill="rgb(0, 0, 0)" stroke="rgb(204, 204, 204)" stroke-width="1px"></line><line x1="39.109375" y1="51.29598238126795" x2="34.109375" y2="51.29598238126795" style="visibility: inherit;" fill="rgb(0, 0, 0)" stroke="rgb(204, 204, 204)" stroke-width="1px"></line><line x1="39.109375" y1="22.84674638200204" x2="34.109375" y2="22.84674638200204" style="visibility: inherit;" fill="rgb(0, 0, 0)" stroke="rgb(204, 204, 204)" stroke-width="1px"></line></g><g transform="translate(29.109375, 0)"><text x="0" y="364.237578373193" dx="0em" dy="0.3em" style="text-anchor: end; visibility: inherit; font-family: &quot;Helvetica Neue&quot;, sans-serif; font-size: 12px; font-weight: 200;" fill="rgb(50, 49, 63)" stroke="none" stroke-width="1px">0.3</text><text x="0" y="335.7883423739271" dx="0em" dy="0.3em" style="text-anchor: end; visibility: inherit; font-family: &quot;Helvetica Neue&quot;, sans-serif; font-size: 12px; font-weight: 200;" fill="rgb(50, 49, 63)" stroke="none" stroke-width="1px">0.4</text><text x="0" y="307.3391063746612" dx="0em" dy="0.3em" style="text-anchor: end; visibility: inherit; font-family: &quot;Helvetica Neue&quot;, sans-serif; font-size: 12px; font-weight: 200;" fill="rgb(50, 49, 63)" stroke="none" stroke-width="1px">0.5</text><text x="0" y="278.8898703753953" dx="0em" dy="0.3em" style="text-anchor: end; visibility: inherit; font-family: &quot;Helvetica Neue&quot;, sans-serif; font-size: 12px; font-weight: 200;" fill="rgb(50, 49, 63)" stroke="none" stroke-width="1px">0.6</text><text x="0" y="250.44063437612937" dx="0em" dy="0.3em" style="text-anchor: end; visibility: inherit; font-family: &quot;Helvetica Neue&quot;, sans-serif; font-size: 12px; font-weight: 200;" fill="rgb(50, 49, 63)" stroke="none" stroke-width="1px">0.7</text><text x="0" y="221.9913983768634" dx="0em" dy="0.3em" style="text-anchor: end; visibility: inherit; font-family: &quot;Helvetica Neue&quot;, sans-serif; font-size: 12px; font-weight: 200;" fill="rgb(50, 49, 63)" stroke="none" stroke-width="1px">0.8</text><text x="0" y="193.54216237759752" dx="0em" dy="0.3em" style="text-anchor: end; visibility: inherit; font-family: &quot;Helvetica Neue&quot;, sans-serif; font-size: 12px; font-weight: 200;" fill="rgb(50, 49, 63)" stroke="none" stroke-width="1px">0.9</text><text x="0" y="165.0929263783316" dx="0em" dy="0.3em" style="text-anchor: end; visibility: inherit; font-family: &quot;Helvetica Neue&quot;, sans-serif; font-size: 12px; font-weight: 200;" fill="rgb(50, 49, 63)" stroke="none" stroke-width="1px">1</text><text x="0" y="136.64369037906567" dx="0em" dy="0.3em" style="text-anchor: end; visibility: inherit; font-family: &quot;Helvetica Neue&quot;, sans-serif; font-size: 12px; font-weight: 200;" fill="rgb(50, 49, 63)" stroke="none" stroke-width="1px">1.1</text><text x="0" y="108.19445437979977" dx="0em" dy="0.3em" style="text-anchor: end; visibility: inherit; font-family: &quot;Helvetica Neue&quot;, sans-serif; font-size: 12px; font-weight: 200;" fill="rgb(50, 49, 63)" stroke="none" stroke-width="1px">1.2</text><text x="0" y="79.74521838053386" dx="0em" dy="0.3em" style="text-anchor: end; visibility: inherit; font-family: &quot;Helvetica Neue&quot;, sans-serif; font-size: 12px; font-weight: 200;" fill="rgb(50, 49, 63)" stroke="none" stroke-width="1px">1.3</text><text x="0" y="51.29598238126795" dx="0em" dy="0.3em" style="text-anchor: end; visibility: inherit; font-family: &quot;Helvetica Neue&quot;, sans-serif; font-size: 12px; font-weight: 200;" fill="rgb(50, 49, 63)" stroke="none" stroke-width="1px">1.4</text><text x="0" y="22.84674638200204" dx="0em" dy="0.3em" style="text-anchor: end; visibility: inherit; font-family: &quot;Helvetica Neue&quot;, sans-serif; font-size: 12px; font-weight: 200;" fill="rgb(50, 49, 63)" stroke="none" stroke-width="1px">1.5</text></g><line x1="39.109375" y1="0" x2="39.109375" y2="377" fill="rgb(0, 0, 0)" stroke="rgb(204, 204, 204)" stroke-width="1px"></line></g></g><g transform="translate(39, 0)" clip-path="url(#clip_0)"><clipPath id="clip_0"><rect width="879" height="377"></rect></clipPath><g><g><g><line x1="40.29366941072461" y1="0" x2="40.29366941072461" y2="377" fill="rgb(0, 0, 0)" stroke="rgb(60, 60, 60)" stroke-width="1px" opacity="0.25"></line><line x1="160.98382487330878" y1="0" x2="160.98382487330878" y2="377" fill="rgb(0, 0, 0)" stroke="rgb(60, 60, 60)" stroke-width="1px" opacity="0.25"></line><line x1="281.6739803358929" y1="0" x2="281.6739803358929" y2="377" fill="rgb(0, 0, 0)" stroke="rgb(60, 60, 60)" stroke-width="1px" opacity="0.25"></line><line x1="402.3641357984771" y1="0" x2="402.3641357984771" y2="377" fill="rgb(0, 0, 0)" stroke="rgb(60, 60, 60)" stroke-width="1px" opacity="0.25"></line><line x1="523.0542912610612" y1="0" x2="523.0542912610612" y2="377" fill="rgb(0, 0, 0)" stroke="rgb(60, 60, 60)" stroke-width="1px" opacity="0.25"></line><line x1="643.7444467236453" y1="0" x2="643.7444467236453" y2="377" fill="rgb(0, 0, 0)" stroke="rgb(60, 60, 60)" stroke-width="1px" opacity="0.25"></line><line x1="764.4346021862295" y1="0" x2="764.4346021862295" y2="377" fill="rgb(0, 0, 0)" stroke="rgb(60, 60, 60)" stroke-width="1px" opacity="0.25"></line></g><g><line x1="0" y1="364.237578373193" x2="879.640625" y2="364.237578373193" fill="rgb(0, 0, 0)" stroke="rgb(60, 60, 60)" stroke-width="1px" opacity="0.25"></line><line x1="0" y1="335.7883423739271" x2="879.640625" y2="335.7883423739271" fill="rgb(0, 0, 0)" stroke="rgb(60, 60, 60)" stroke-width="1px" opacity="0.25"></line><line x1="0" y1="307.3391063746612" x2="879.640625" y2="307.3391063746612" fill="rgb(0, 0, 0)" stroke="rgb(60, 60, 60)" stroke-width="1px" opacity="0.25"></line><line x1="0" y1="278.8898703753953" x2="879.640625" y2="278.8898703753953" fill="rgb(0, 0, 0)" stroke="rgb(60, 60, 60)" stroke-width="1px" opacity="0.25"></line><line x1="0" y1="250.44063437612937" x2="879.640625" y2="250.44063437612937" fill="rgb(0, 0, 0)" stroke="rgb(60, 60, 60)" stroke-width="1px" opacity="0.25"></line><line x1="0" y1="221.9913983768634" x2="879.640625" y2="221.9913983768634" fill="rgb(0, 0, 0)" stroke="rgb(60, 60, 60)" stroke-width="1px" opacity="0.25"></line><line x1="0" y1="193.54216237759752" x2="879.640625" y2="193.54216237759752" fill="rgb(0, 0, 0)" stroke="rgb(60, 60, 60)" stroke-width="1px" opacity="0.25"></line><line x1="0" y1="165.0929263783316" x2="879.640625" y2="165.0929263783316" fill="rgb(0, 0, 0)" stroke="rgb(60, 60, 60)" stroke-width="1px" opacity="0.25"></line><line x1="0" y1="136.64369037906567" x2="879.640625" y2="136.64369037906567" fill="rgb(0, 0, 0)" stroke="rgb(60, 60, 60)" stroke-width="1px" opacity="0.25"></line><line x1="0" y1="108.19445437979977" x2="879.640625" y2="108.19445437979977" fill="rgb(0, 0, 0)" stroke="rgb(60, 60, 60)" stroke-width="1px" opacity="0.25"></line><line x1="0" y1="79.74521838053386" x2="879.640625" y2="79.74521838053386" fill="rgb(0, 0, 0)" stroke="rgb(60, 60, 60)" stroke-width="1px" opacity="0.25"></line><line x1="0" y1="51.29598238126795" x2="879.640625" y2="51.29598238126795" fill="rgb(0, 0, 0)" stroke="rgb(60, 60, 60)" stroke-width="1px" opacity="0.25"></line><line x1="0" y1="22.84674638200204" x2="879.640625" y2="22.84674638200204" fill="rgb(0, 0, 0)" stroke="rgb(60, 60, 60)" stroke-width="1px" opacity="0.25"></line></g></g></g><g><g><line x1="0" y1="449.58528637099073" x2="879.640625" y2="449.58528637099073" fill="rgb(0, 0, 0)" stroke="rgb(153, 153, 153)" stroke-width="1.5px"></line></g></g><g><g><line x1="402.3641357984771" y1="0" x2="402.3641357984771" y2="377" fill="rgb(0, 0, 0)" stroke="rgb(153, 153, 153)" stroke-width="1.5px"></line></g></g><g><g><g><g><g><path stroke="rgb(0, 119, 187)" stroke-width="2px" d="M402.65379217158727,431.80451387144956L403.0400006690675,334.010265123973L403.0762077157063,431.80451387144956L403.35379507327025,360.68142387328476L403.3658640888165,405.13335512213774L403.4503471976403,360.68142387328476L404.0779360060458,325.11987887420236L404.415868441341,289.55833387511996L404.46414450352603,351.79103762351417L404.95897414092263,280.66794762534937L405.2244924829403,342.9006513737436L405.5503559026893,289.55833387511996L405.9848404623546,298.44872012489054L406.4796700997512,271.7775613755788L406.78139548840767,316.22949262443177L407.21588004807296,307.3391063746612L407.8555378720246,280.66794762534937L408.5555407737076,245.106402626267L409.00209434891923,236.21601637649638L409.0262323800117,262.8871751258082L409.15899155102056,218.4352438769552L409.460716939677,280.66794762534937L409.94347756152735,245.106402626267L410.3296860590076,253.99678887603758L410.36589310564636,253.99678887603758L410.42623818337773,227.3256301267258L410.81244668085793,236.21601637649638L411.3193453338008,209.5448576271846L411.3555523804396,209.5448576271846L412.20038346867767,209.5448576271846L412.5141778728804,236.21601637649638L412.6107299972505,209.5448576271846L412.9365934169995,245.106402626267L413.0210765258233,209.5448576271846L413.05728357246204,227.3256301267258L413.2383188056559,218.4352438769552L413.2745258522947,227.3256301267258L413.58832025649735,218.4352438769552L414.5297034691056,209.5448576271846L414.92798098213206,227.3256301267258L415.09694719977966,236.21601637649638L415.2900514485198,209.5448576271846L415.51936274389874,245.106402626267L416.03833041238784,245.106402626267L416.3159177699518,236.21601637649638L416.9676446094498,227.3256301267258L417.02798968718105,218.4352438769552L417.2452319670137,209.5448576271846L417.4141981846613,209.5448576271846L417.5952334178552,236.21601637649638L417.8004066821416,236.21601637649638L418.13833911743683,191.7640851276434L418.97110119012865,245.106402626267L419.46593082752526,200.65447137741398L419.52627590525657,218.4352438769552L419.56248295189533,218.4352438769552L421.6383536258517,200.65447137741398L421.90387196786946,245.106402626267L421.9400790145082,173.98331262810223L422.16939030988715,191.7640851276434L422.36249455862725,191.7640851276434L422.8814622271164,218.4352438769552L423.12284253804154,191.7640851276434L423.3883608800592,245.106402626267L423.5693961132531,218.4352438769552L423.87112150190956,200.65447137741398L423.9073285485483,200.65447137741398L424.07629476619593,218.4352438769552L424.22112295275105,218.4352438769552L424.25732999938987,209.5448576271846L424.88491880779526,191.7640851276434L425.0056089632578,245.106402626267L425.1383681342667,227.3256301267258L425.74181891157957,200.65447137741398L425.81423300485716,218.4352438769552L426.0676823313286,253.99678887603758L426.2607865800687,182.8736988778728L426.80389227965037,200.65447137741398L427.84182761662856,209.5448576271846L430.0142504149551,227.3256301267258L430.2676997414265,173.98331262810223L431.31770409395097,191.7640851276434L431.5349463737836,173.98331262810223L432.13839715109657,218.4352438769552L432.6211577729469,173.98331262810223L432.83840005277955,200.65447137741398L433.0797803637047,173.98331262810223L433.6108170477401,218.4352438769552L433.6349550788326,200.65447137741398L433.67116212547137,209.5448576271846L433.7315072032027,209.5448576271846L433.96081849858155,218.4352438769552L434.34702699606186,200.65447137741398L434.8177186023659,209.5448576271846L435.4211693796789,200.65447137741398L436.0970342502693,182.8736988778728L436.61600191875846,209.5448576271846L436.9418653385074,209.5448576271846L437.07462450951624,218.4352438769552L437.6177302090979,200.65447137741398L438.2332500019571,182.8736988778728L438.9573909347326,227.3256301267258L439.1987712456578,191.7640851276434L439.7901530074244,182.8736988778728L440.17636150490466,209.5448576271846L440.6470531112088,191.7640851276434L441.8780926969272,209.5448576271846L441.9022307280197,218.4352438769552L442.19188710112985,209.5448576271846L442.2401631633149,182.8736988778728L442.4091293809625,209.5448576271846L442.4211983965087,236.21601637649638L442.5660265830638,191.7640851276434L442.96430409609036,191.7640851276434L443.78499715323596,200.65447137741398L443.9901704175223,209.5448576271846L444.1108605729849,182.8736988778728L444.50913808601143,200.65447137741398L444.52120710155776,200.65447137741398L445.4625903141658,200.65447137741398L445.94535093601627,227.3256301267258L446.0419030603863,173.98331262810223L446.5850087599679,218.4352438769552L447.49018492593734,191.7640851276434L447.5384609881224,253.99678887603758L447.55053000366854,191.7640851276434L447.6470821280386,200.65447137741398L447.8401863767788,182.8736988778728L447.85225539232505,191.7640851276434L448.1419117654352,191.7640851276434L448.79363860493316,227.3256301267258L448.89019072930324,209.5448576271846L448.97467383812705,191.7640851276434L449.0350189158583,173.98331262810223L450.278127517123,200.65447137741398L450.6281289679644,191.7640851276434L450.8815782944359,200.65447137741398L451.9677896935992,191.7640851276434L452.59537850200456,173.98331262810223L453.1143461704937,191.7640851276434L453.1988292793176,182.8736988778728L453.597106792344,182.8736988778728L453.95917725873176,182.8736988778728L454.00745332091685,209.5448576271846L454.87642244024744,200.65447137741398L455.8298746684018,200.65447137741398L456.0229789171419,227.3256301267258L456.30056627470594,200.65447137741398L456.5660846167236,182.8736988778728L456.9402240986576,218.4352438769552L457.49539881378547,218.4352438769552L458.18333269992223,182.8736988778728L458.3643679331161,236.21601637649638L458.69023135286506,182.8736988778728L458.967818710429,227.3256301267258L459.14885394362295,200.65447137741398L459.5229934255569,173.98331262810223L459.8971329074909,200.65447137741398L460.090237156231,173.98331262810223L461.1764485553943,200.65447137741398L461.3092077264031,227.3256301267258L462.0092106280862,236.21601637649638L462.8781797474167,173.98331262810223L463.0712839961569,209.5448576271846L463.27645726044324,182.8736988778728L463.3488713537208,182.8736988778728L463.3730093848133,191.7640851276434L463.39714741590586,182.8736988778728L463.5057685558222,200.65447137741398L463.89197705330247,182.8736988778728L464.0609432709501,182.8736988778728L464.14542637977394,227.3256301267258L464.4712897995228,209.5448576271846L464.51956586170786,191.7640851276434L464.67646306380925,191.7640851276434L465.13508565456704,191.7640851276434L465.56957021423244,200.65447137741398L466.88509290877454,200.65447137741398L467.39199156171736,200.65447137741398L467.4040605772637,191.7640851276434L467.82647612138265,200.65447137741398L468.2006156033167,173.98331262810223L468.5385480386119,209.5448576271846L468.6833762251671,191.7640851276434L468.7678593339908,191.7640851276434L468.93682555163844,218.4352438769552L469.0213086604623,200.65447137741398L469.3109650335725,173.98331262810223L469.4799312512201,182.8736988778728L469.6247594377752,191.7640851276434L469.90234679533916,191.7640851276434L469.9626918730704,165.0929263783316L470.46959052601335,173.98331262810223L470.9161441012248,173.98331262810223L470.9885581945024,209.5448576271846L471.70063011173164,191.7640851276434L471.92994140711056,200.65447137741398L472.0385625470269,200.65447137741398L472.1230456558507,191.7640851276434L472.7989105264412,191.7640851276434L473.4144303193003,182.8736988778728L474.0178810966133,218.4352438769552L475.8523714596446,209.5448576271846L475.9247855529221,173.98331262810223L476.14202783275476,209.5448576271846L476.2385799571248,191.7640851276434L477.0230659676316,173.98331262810223L477.09548006090915,182.8736988778728L477.131687107548,191.7640851276434L477.25237726301054,191.7640851276434L477.3006533251956,209.5448576271846L477.3247913562881,182.8736988778728L477.38513643401933,191.7640851276434L478.68859011301527,182.8736988778728L478.78514223738534,182.8736988778728L478.7972112529316,182.8736988778728L478.9903155016718,191.7640851276434L480.83687488024924,200.65447137741398L481.13860026890575,191.7640851276434L482.29722576134657,200.65447137741398L482.3817088701703,173.98331262810223L483.02136669412204,173.98331262810223L483.4558512537874,200.65447137741398L484.04723301555396,218.4352438769552L485.3265486634574,182.8736988778728L485.3386176790037,200.65447137741398L485.7489642075765,182.8736988778728L486.32827695379683,182.8736988778728L486.37655301598187,173.98331262810223L486.4731051403519,200.65447137741398L486.95586576220234,182.8736988778728L486.9800037932948,182.8736988778728L487.0644869021186,191.7640851276434L487.1127629643036,200.65447137741398L487.6679376794316,191.7640851276434L487.82483488153287,200.65447137741398L487.8610419281717,182.8736988778728L488.066215192458,209.5448576271846L488.09035322355055,200.65447137741398L488.31966451892947,191.7640851276434L489.0558744672513,191.7640851276434L489.1886336382601,173.98331262810223L489.5627731201941,173.98331262810223L489.61104918237913,182.8736988778728L489.64725622901796,191.7640851276434L490.914502861375,173.98331262810223L491.05933104793013,191.7640851276434L491.3127803744016,191.7640851276434L491.3489874210403,182.8736988778728L491.43347052986417,209.5448576271846L491.85588607398324,182.8736988778728L493.4248580949968,182.8736988778728L493.78692856138457,173.98331262810223L494.0041708412172,173.98331262810223L494.41451736978996,182.8736988778728L494.70417374290014,200.65447137741398L494.87313996054786,191.7640851276434L495.52486680004574,200.65447137741398L496.7438373702178,173.98331262810223L497.0093557122355,173.98331262810223L498.02315301812126,182.8736988778728L498.1076361269451,173.98331262810223L498.1679812046763,182.8736988778728L499.3386757126634,191.7640851276434L500.93178576476953,191.7640851276434L500.99213084250084,182.8736988778728L501.5473055576287,182.8736988778728L502.28351550595045,173.98331262810223L503.0317944698185,209.5448576271846L503.1524846252811,182.8736988778728L503.2369677341049,191.7640851276434L503.3093818273824,200.65447137741398L503.47834804503003,191.7640851276434L503.6231762315851,218.4352438769552L503.70765934040895,218.4352438769552L503.7921424492328,200.65447137741398L503.98524669797297,200.65447137741398L504.4318002731844,191.7640851276434L504.76973270847975,218.4352438769552L505.43352856352396,173.98331262810223L505.9162891853743,200.65447137741398L505.9404272164668,209.5448576271846L506.1214624496606,200.65447137741398L506.1818075273919,191.7640851276434L506.3749117761321,191.7640851276434L506.48353291604843,173.98331262810223L506.7852583047048,173.98331262810223L507.91974576605315,209.5448576271846L507.94388379714565,191.7640851276434L508.98181913412395,209.5448576271846L509.2594064916878,209.5448576271846L509.30768255387284,191.7640851276434L509.44044172488174,200.65447137741398L509.452510740428,191.7640851276434L509.5249248337056,173.98331262810223L509.8990643156395,209.5448576271846L510.26113478202734,173.98331262810223L510.62320524841505,165.0929263783316L510.8163094971552,209.5448576271846L510.86458555934024,191.7640851276434L512.5180406891776,209.5448576271846L512.7835590311953,209.5448576271846L512.9766632799355,182.8736988778728L513.8214943681735,200.65447137741398L514.1111507412837,200.65447137741398L514.4370141610327,209.5448576271846L515.6197776845661,182.8736988778728L515.6680537467511,182.8736988778728L515.7404678400286,182.8736988778728L516.271504524064,191.7640851276434L517.297370845496,200.65447137741398L517.3215088765884,182.8736988778728L517.5266821408749,191.7640851276434L517.719786389615,182.8736988778728L517.8766835917164,173.98331262810223L518.6249625555844,191.7640851276434L518.793928773232,182.8736988778728L519.5060006904612,173.98331262810223L519.8318641102102,245.106402626267L519.8680711568489,182.8736988778728L519.9042782034878,191.7640851276434L520.1577275299592,173.98331262810223L520.4594529186156,191.7640851276434L520.6284191362632,191.7640851276434L520.9904896026511,200.65447137741398L521.0629036959286,200.65447137741398L521.0991107425673,200.65447137741398L521.787044628704,191.7640851276434L522.1853221417306,173.98331262810223L522.2939432816469,191.7640851276434L522.3663573749244,200.65447137741398L522.4629094992946,182.8736988778728L523.6577420383742,218.4352438769552L523.9232603803919,218.4352438769552L524.4180900177885,191.7640851276434L524.538780173251,182.8736988778728L524.6474013131673,200.65447137741398L524.9129196551851,209.5448576271846L525.0336098106476,218.4352438769552L525.2146450438414,182.8736988778728L525.6370605879605,173.98331262810223L525.842233852247,200.65447137741398L525.9508549921633,191.7640851276434L526.687064940485,227.3256301267258L526.7594790337625,191.7640851276434L527.0008593446877,200.65447137741398L527.1577565467891,173.98331262810223L527.5922411064544,227.3256301267258L527.6284481530931,173.98331262810223L527.8456904329258,191.7640851276434L528.1594848371285,173.98331262810223L529.0284539564592,200.65447137741398L529.5112145783095,182.8736988778728L529.6439737493183,165.0929263783316L529.7405258736883,200.65447137741398L529.8370779980585,191.7640851276434L529.8853540602436,191.7640851276434L530.0422512623448,191.7640851276434L530.2112174799925,191.7640851276434L531.2853598636094,182.8736988778728L531.4181190346183,209.5448576271846L531.8526035942836,200.65447137741398L532.2146740606714,209.5448576271846L532.7215727136143,182.8736988778728L532.7939868068918,209.5448576271846L533.1922643199183,182.8736988778728L533.3491615220196,200.65447137741398L533.409506599751,191.7640851276434L533.7957150972312,173.98331262810223L533.9164052526938,182.8736988778728L534.3146827657204,191.7640851276434L534.3267517812666,191.7640851276434L534.7250292942931,191.7640851276434L534.9181335430333,227.3256301267258L534.9422715741257,182.8736988778728L535.1474448384122,209.5448576271846L535.3526181026984,182.8736988778728L535.376756133791,173.98331262810223L535.654343491355,200.65447137741398L535.6784815224476,165.0929263783316L535.9681378955577,182.8736988778728L535.980206911104,173.98331262810223L536.5233126106856,165.0929263783316L536.8371070148884,173.98331262810223L537.3560746833774,200.65447137741398L537.3681436989236,191.7640851276434L537.4043507455625,182.8736988778728L537.6940071186726,182.8736988778728L537.7302141653114,200.65447137741398L538.0198705384217,200.65447137741398L538.1405606938843,191.7640851276434L538.4664241136331,200.65447137741398L539.25091012414,165.0929263783316L539.6853946838054,182.8736988778728L539.9267749947305,191.7640851276434L540.2164313678406,173.98331262810223L541.0491934405325,209.5448576271846L541.206090642634,200.65447137741398L542.3164400728896,182.8736988778728L542.3405781039821,200.65447137741398L542.376785150621,191.7640851276434L542.4974753060835,218.4352438769552L542.6302344770924,182.8736988778728L543.0647190367577,200.65447137741398L543.2457542699515,236.21601637649638L543.269892301044,182.8736988778728L543.3905824565066,165.0929263783316L543.8250670161719,173.98331262810223L544.5009318867624,200.65447137741398L544.8630023531501,191.7640851276434L545.1405897107142,191.7640851276434L545.9371447367671,182.8736988778728L545.9854207989522,200.65447137741398L546.44404338971,182.8736988778728L546.6733546850888,200.65447137741398L547.2647364468555,173.98331262810223L548.3026717838338,209.5448576271846L548.4112929237501,191.7640851276434L549.0268127166092,209.5448576271846L549.4130212140897,191.7640851276434L549.5578494006447,182.8736988778728L550.3785424577902,191.7640851276434L550.5957847376229,191.7640851276434L550.6078537531691,191.7640851276434L550.8130270174555,209.5448576271846L550.8733720951868,209.5448576271846L551.0906143750195,218.4352438769552L551.9113074321651,173.98331262810223L552.1406187275439,173.98331262810223L552.3699300229229,218.4352438769552L553.0095878468746,182.8736988778728L553.2147611111609,209.5448576271846L553.3716583132624,191.7640851276434L553.7578668107426,173.98331262810223L553.9509710594828,218.4352438769552L554.3975246346943,209.5448576271846L554.4820077435181,182.8736988778728L554.5664908523419,182.8736988778728L554.6992500233508,165.0929263783316L554.711319038897,182.8736988778728L555.363045878395,191.7640851276434L555.4837360338576,165.0929263783316L555.5682191426813,191.7640851276434L555.5802881582276,182.8736988778728L556.6061544796596,200.65447137741398L556.7389136506685,182.8736988778728L557.0285700237787,182.8736988778728L557.330295412435,200.65447137741398L557.4147785212589,173.98331262810223L557.4751235989903,182.8736988778728L557.7647799721004,191.7640851276434L557.9820222519331,173.98331262810223L558.0906433918493,182.8736988778728L558.1992645317657,182.8736988778728L559.2251308531977,191.7640851276434L559.5872013195855,191.7640851276434L559.6716844284092,173.98331262810223L559.7803055683255,182.8736988778728L560.5165155166472,191.7640851276434L560.5647915788323,191.7640851276434L560.6251366565637,173.98331262810223L560.9147930296739,173.98331262810223L561.0475522006827,200.65447137741398L561.0958282628677,182.8736988778728L561.4096226670705,182.8736988778728L561.4216916826167,200.65447137741398L561.5544508536256,182.8736988778728L562.182039662031,191.7640851276434L562.9544566569915,209.5448576271846L562.9785946880841,200.65447137741398L563.0992848435467,200.65447137741398L563.4734243254807,218.4352438769552L564.0406680561548,173.98331262810223L564.3182554137187,182.8736988778728L564.9217061910317,191.7640851276434L565.3320527196045,209.5448576271846L566.0803316834724,191.7640851276434L566.4544711654065,191.7640851276434L567.2148191448208,182.8736988778728L567.456199455746,200.65447137741398L567.552751580116,165.0929263783316L568.0717192486051,191.7640851276434L568.1199953107902,182.8736988778728L568.3975826683541,209.5448576271846L568.4337897149928,182.8736988778728L568.7234460881031,218.4352438769552L568.7596531347418,209.5448576271846L568.9044813212969,165.0929263783316L570.2441420469315,173.98331262810223L570.2682800780241,173.98331262810223L570.5096603889493,191.7640851276434L571.4510436015574,173.98331262810223L572.7786353116459,191.7640851276434L573.15277479358,173.98331262810223L573.4665691977826,182.8736988778728L574.2510552082895,182.8736988778728L574.4682974881221,173.98331262810223L574.6131256746771,182.8736988778728L574.649332721316,209.5448576271846L575.2889905452676,173.98331262810223L575.3372666074526,200.65447137741398L576.0131314780432,209.5448576271846L576.2545117889683,191.7640851276434L576.7614104419112,191.7640851276434L577.1355499238451,209.5448576271846L577.1838259860302,200.65447137741398L577.220033032669,191.7640851276434L577.3045161414927,209.5448576271846L577.4252062969554,200.65447137741398L577.920035934352,218.4352438769552L578.1734852608234,173.98331262810223L578.197623291916,200.65447137741398L578.245899354101,191.7640851276434L578.9941783179689,200.65447137741398L579.4769389398193,191.7640851276434L579.4890079553655,182.8736988778728L579.6821122041057,182.8736988778728L579.7665953129296,165.0929263783316L580.0200446394009,209.5448576271846L580.3700460902425,173.98331262810223L580.6234954167139,182.8736988778728L580.768323603269,200.65447137741398L581.2028081629343,191.7640851276434L581.3355673339431,173.98331262810223L581.7459138625159,173.98331262810223L582.5424688885689,200.65447137741398L582.5907449507539,165.0929263783316L583.3028168679832,173.98331262810223L583.7493704431947,182.8736988778728L583.7855774898336,173.98331262810223L584.6183395625254,191.7640851276434L584.6545466091642,173.98331262810223L584.8114438112656,173.98331262810223L585.3545495108472,191.7640851276434L585.4148945885785,200.65447137741398L585.4390326196709,200.65447137741398L585.4752396663098,182.8736988778728L585.5959298217723,200.65447137741398L585.6200678528648,191.7640851276434L586.3321397700942,173.98331262810223L586.4045538633717,182.8736988778728L586.4166228789179,165.0929263783316L586.5493820499267,191.7640851276434L587.0683497184159,182.8736988778728L587.1045567650546,200.65447137741398L587.6718004957288,173.98331262810223L587.6959385268212,182.8736988778728L588.2993893041341,182.8736988778728L588.4080104440505,200.65447137741398L588.4200794595969,200.65447137741398L588.5045625684206,182.8736988778728L588.6735287860682,191.7640851276434L589.1562894079185,182.8736988778728L589.3735316877512,173.98331262810223L589.458014796575,182.8736988778728L589.6149119986763,173.98331262810223L589.8562923096016,209.5448576271846L590.0131895117029,173.98331262810223L590.0976726205267,200.65447137741398L590.3752599780906,191.7640851276434L590.3873289936369,209.5448576271846L590.435605055822,182.8736988778728L590.7373304444784,191.7640851276434L591.0752628797736,191.7640851276434L591.1476769730511,191.7640851276434L591.1959530352362,173.98331262810223L591.3769882684301,191.7640851276434L591.7752657814567,200.65447137741398L591.9080249524654,191.7640851276434L592.402854589862,173.98331262810223L592.728718009611,191.7640851276434L593.05458142936,173.98331262810223L593.0666504449063,200.65447137741398L593.4166518957478,165.0929263783316L594.0321716886069,209.5448576271846L594.3701041239023,182.8736988778728L594.7080365591975,191.7640851276434L594.8407957302062,182.8736988778728L595.1907971810477,173.98331262810223L595.2028661965941,209.5448576271846L595.6976958339906,191.7640851276434L596.2890775957572,200.65447137741398L596.6390790465988,165.0929263783316L597.8701186323171,191.7640851276434L597.8821876478634,191.7640851276434L597.8942566634097,182.8736988778728L597.9546017411409,182.8736988778728L598.0873609121497,182.8736988778728L598.3890863008063,182.8736988778728L598.4132243318988,191.7640851276434L598.7149497205552,173.98331262810223L599.125296249128,173.98331262810223L599.6804709642558,165.0929263783316L600.2597837104763,173.98331262810223L600.6701302390492,182.8736988778728L600.7063372856878,218.4352438769552L600.7184063012342,218.4352438769552L601.0684077520756,191.7640851276434L601.3339260940933,200.65447137741398L601.5753064050185,191.7640851276434L601.7684106537587,173.98331262810223L602.070136042415,173.98331262810223L602.8908290995606,173.98331262810223L603.1684164571246,173.98331262810223L603.3977277525034,200.65447137741398L604.6649743848606,191.7640851276434L605.0753209134334,209.5448576271846L605.196011068896,165.0929263783316L605.8477379083939,173.98331262810223L605.9080829861252,209.5448576271846L606.4994647478919,182.8736988778728L606.8253281676408,182.8736988778728L606.8373971831871,191.7640851276434L607.296019773945,191.7640851276434L607.8874015357117,165.0929263783316L608.3701621575619,191.7640851276434L608.3943001886545,191.7640851276434L608.973612934875,165.0929263783316L609.0701650592449,182.8736988778728L610.470170862611,182.8736988778728L610.6512060958048,191.7640851276434L610.6994821579898,191.7640851276434L610.8684483756374,182.8736988778728L611.1098286865625,218.4352438769552L611.9305217437081,182.8736988778728L611.9667287903469,200.65447137741398L612.2201781168184,191.7640851276434L612.389144334466,191.7640851276434L612.4253513811047,173.98331262810223L612.533972521021,182.8736988778728L612.8236288941313,191.7640851276434L612.9563880651401,182.8736988778728L613.1253542827877,165.0929263783316L613.1736303449728,191.7640851276434L613.4029416403517,191.7640851276434L613.7891501378319,165.0929263783316L614.2598417441361,191.7640851276434L614.3322558374136,191.7640851276434L614.4288079617837,173.98331262810223L614.9719136613653,182.8736988778728L615.382260189938,191.7640851276434L615.7443306563258,182.8736988778728L615.8650208117884,173.98331262810223L616.2753673403613,182.8736988778728L616.6977828844803,200.65447137741398L616.8546800865817,182.8736988778728L616.9270941798592,165.0929263783316L617.0960603975068,182.8736988778728L617.7115801903659,209.5448576271846L618.8460676517143,191.7640851276434L618.9546887916306,209.5448576271846L619.3529663046571,218.4352438769552L619.7874508643224,173.98331262810223L620.1857283773489,191.7640851276434L620.4150396727279,182.8736988778728L620.4995227815516,173.98331262810223L621.0788355277721,182.8736988778728L621.7547003983625,165.0929263783316L621.778838429455,182.8736988778728L622.3943582223143,182.8736988778728L623.4322935592925,191.7640851276434L623.5529837147551,182.8736988778728L623.9995372899666,182.8736988778728L624.0840203987905,191.7640851276434L624.1081584298829,182.8736988778728L625.6047163576189,200.65447137741398L626.3409263059408,200.65447137741398L626.401271383672,200.65447137741398L626.6305826790509,182.8736988778728L626.775410865606,191.7640851276434L626.7874798811523,191.7640851276434L626.8598939744298,209.5448576271846L627.0892052698088,200.65447137741398L627.4512757361964,182.8736988778728L627.4633447517427,191.7640851276434L627.5116208139278,182.8736988778728L627.6443799849367,191.7640851276434L627.7409321093068,182.8736988778728L628.2598997777958,173.98331262810223L628.7305913840999,182.8736988778728L628.92369563284,182.8736988778728L629.3461111769591,191.7640851276434L629.6357675500692,209.5448576271846L630.3719774983911,191.7640851276434L630.746116980325,182.8736988778728L630.7823240269639,173.98331262810223L631.6030170841094,200.65447137741398L631.6754311773869,191.7640851276434L632.0857777059597,182.8736988778728L632.2064678614223,182.8736988778728L632.4116411257087,182.8736988778728L632.7133665143652,182.8736988778728L632.8340566698278,182.8736988778728L633.0633679652067,209.5448576271846L633.3771623694095,200.65447137741398L633.5219905559645,182.8736988778728L633.7875088979822,209.5448576271846L635.2116527324407,182.8736988778728L636.2375190538727,182.8736988778728L636.6237275513529,165.0929263783316L637.1668332509346,173.98331262810223L637.468558639591,209.5448576271846L637.7823530437937,173.98331262810223L637.7944220593399,200.65447137741398L637.8185600904325,182.8736988778728L637.8547671370712,182.8736988778728L638.5547700387542,182.8736988778728L638.6633911786706,200.65447137741398L639.4599462047236,165.0929263783316L639.4961532513624,173.98331262810223L639.6047743912787,200.65447137741398L640.2082251685916,182.8736988778728L640.4496054795168,191.7640851276434L640.5220195727944,182.8736988778728L641.0771942879222,200.65447137741398L641.4513337698562,218.4352438769552L641.5599549097726,182.8736988778728L641.6565070341427,165.0929263783316L642.2961648580944,165.0929263783316L642.3927169824644,200.65447137741398L642.5254761534733,200.65447137741398L644.0703101433943,182.8736988778728L644.1065171900332,191.7640851276434L644.2754834076808,182.8736988778728L645.4220398845753,191.7640851276434L646.1461808173508,218.4352438769552L646.2185949106283,209.5448576271846L646.2668709728134,191.7640851276434L646.7737696257562,191.7640851276434L647.0996330455052,200.65447137741398L647.2927372942454,191.7640851276434L647.3530823719766,191.7640851276434L647.4013584341617,182.8736988778728L647.5220485896242,191.7640851276434L647.6789457917256,182.8736988778728L648.861709315259,173.98331262810223L649.1272276572766,165.0929263783316L649.2841248593779,200.65447137741398L649.5375741858494,191.7640851276434L649.7789544967745,191.7640851276434L649.9720587455147,165.0929263783316L650.5875785383739,173.98331262810223L650.8893039270304,191.7640851276434L651.8186181240923,200.65447137741398L651.8548251707309,182.8736988778728L651.903101232916,165.0929263783316L652.08413646611,173.98331262810223L652.2531026837576,165.0929263783316L653.2186239274582,191.7640851276434L653.4117281761984,191.7640851276434L654.8117339795643,182.8736988778728L655.4634608190622,182.8736988778728L655.9100143942738,191.7640851276434L656.3324299383929,182.8736988778728L656.8513976068821,182.8736988778728L657.1651920110847,182.8736988778728L657.2979511820936,191.7640851276434L657.3100201976398,173.98331262810223L657.7445047573051,173.98331262810223L657.9979540837766,191.7640851276434L658.3962315968031,191.7640851276434L658.5651978144507,173.98331262810223L659.3376148094112,182.8736988778728L659.9652036178167,209.5448576271846L660.3634811308432,182.8736988778728L660.870379783786,165.0929263783316L661.1238291102575,165.0929263783316L661.4255544989139,182.8736988778728L662.5841799913547,173.98331262810223L662.8859053800112,191.7640851276434L663.2359068308527,173.98331262810223L663.3083209241303,173.98331262810223L663.4290110795928,173.98331262810223L663.573839266148,173.98331262810223L663.7548744993419,191.7640851276434L663.7910815459805,200.65447137741398L664.2617731522847,209.5448576271846L664.370394292201,182.8736988778728L664.5272914943023,182.8736988778728L664.5876365720337,173.98331262810223L665.0462591627914,200.65447137741398L665.1790183338004,173.98331262810223L665.4324676602718,191.7640851276434L665.8910902510296,173.98331262810223L666.1566085930473,182.8736988778728L666.4945410283425,218.4352438769552L666.5790241371662,182.8736988778728L666.6273001993513,182.8736988778728L666.7721283859065,191.7640851276434L666.796266416999,200.65447137741398L667.4479932564969,218.4352438769552L667.918684862801,173.98331262810223L668.4255835157438,173.98331262810223L668.5342046556602,218.4352438769552L668.8238610287704,173.98331262810223L669.089379370788,173.98331262810223L669.415242790537,200.65447137741398L669.7652442413785,173.98331262810223L670.5980063140703,191.7640851276434L670.8635246560881,173.98331262810223L671.79283885315,173.98331262810223L671.8773219619737,173.98331262810223L671.9738740863438,191.7640851276434L672.3721515993703,227.3256301267258L672.7342220657581,182.8736988778728L672.9031882834057,182.8736988778728L673.0238784388682,191.7640851276434L673.1083615476921,173.98331262810223L673.5790531539961,173.98331262810223L674.2428490090404,182.8736988778728L674.4480222733267,173.98331262810223L674.5566434132431,182.8736988778728L674.6411265220669,173.98331262810223L674.7014715997982,165.0929263783316L675.6549238279526,173.98331262810223L676.0411323254328,182.8736988778728L676.3307886985431,191.7640851276434L676.4514788540057,173.98331262810223L676.7652732582084,173.98331262810223L677.1997578178737,200.65447137741398L677.6945874552703,200.65447137741398L677.7066564708165,173.98331262810223L677.9480367817416,182.8736988778728L678.3101072481295,182.8736988778728L679.2876975073764,173.98331262810223L679.4687327405702,191.7640851276434L679.7221820670417,173.98331262810223L680.0359764712443,173.98331262810223L680.156666626707,200.65447137741398L680.4221849687247,182.8736988778728L680.7359793729274,182.8736988778728L682.5221936737737,191.7640851276434L682.8721951246151,173.98331262810223L683.282541653188,182.8736988778728L683.6446121195756,200.65447137741398L683.6808191662144,182.8736988778728L684.0066825859634,182.8736988778728L684.3928910834437,209.5448576271846L684.5256502544526,200.65447137741398L685.0808249695804,173.98331262810223L685.1291010317655,209.5448576271846L685.4428954359682,191.7640851276434L685.479102482607,191.7640851276434L685.7566898401709,173.98331262810223L685.804965902356,182.8736988778728L685.8170349179022,165.0929263783316L686.4204856952151,182.8736988778728L686.6618660061403,200.65447137741398L686.8187632082416,173.98331262810223L687.1929026901756,173.98331262810223L688.0256647628675,200.65447137741398L688.0618718095063,191.7640851276434L688.1222168872375,191.7640851276434L688.2066999960614,191.7640851276434L688.2670450737926,218.4352438769552L689.1118761620307,209.5448576271846L689.2325663174934,173.98331262810223L689.2446353330396,182.8736988778728L689.2567043485859,165.0929263783316L691.079125696071,182.8736988778728L691.4411961624586,182.8736988778728L691.59809336456,173.98331262810223L691.6584384422913,173.98331262810223L691.8394736754851,173.98331262810223L692.1774061107805,191.7640851276434L692.298096266243,173.98331262810223L692.6843047637233,209.5448576271846L692.9136160591022,191.7640851276434L693.094651292296,182.8736988778728L693.7222401007015,200.65447137741398L693.9515513960804,173.98331262810223L693.9636204116266,209.5448576271846L694.0118964738117,182.8736988778728L694.2653458002831,182.8736988778728L694.3618979246532,173.98331262810223L694.4101739868382,182.8736988778728L694.7963824843184,173.98331262810223L695.2187980284375,173.98331262810223L695.8825938834817,182.8736988778728L696.3291474586932,165.0929263783316L696.4739756452484,200.65447137741398L696.642941862896,191.7640851276434L696.9808742981912,182.8736988778728L696.9929433137374,173.98331262810223L697.4274278734027,191.7640851276434L698.0550166818083,191.7640851276434L698.1274307750858,191.7640851276434L698.2119138839096,173.98331262810223L698.4050181326497,165.0929263783316L698.465363210381,191.7640851276434L698.4774322259274,191.7640851276434L698.9360548166851,182.8736988778728L699.0929520187864,182.8736988778728L699.4429534696279,182.8736988778728L700.5170958532449,182.8736988778728L700.6015789620687,191.7640851276434L700.7826141952626,200.65447137741398L700.9636494284565,165.0929263783316L701.2774438326592,182.8736988778728L701.8567565788796,191.7640851276434L702.110205905351,173.98331262810223L702.2067580297211,191.7640851276434L702.3033101540912,182.8736988778728L702.6895186515715,191.7640851276434L702.7740017603952,173.98331262810223L702.9308989624966,182.8736988778728L703.0636581335054,182.8736988778728L703.1843482889681,173.98331262810223L703.2809004133381,182.8736988778728L703.6671089108185,191.7640851276434L704.2826287036776,182.8736988778728L704.5360780301489,165.0929263783316L704.9826316053606,209.5448576271846L705.4050471494796,173.98331262810223L706.9619501549469,191.7640851276434L709.2792011398286,165.0929263783316L710.2567913990755,182.8736988778728L710.3774815545381,182.8736988778728L710.8119661142034,173.98331262810223L710.9447252852123,165.0929263783316L710.9688633163048,173.98331262810223L711.0412774095823,191.7640851276434L711.6085211402565,209.5448576271846L711.6447281868952,200.65447137741398L711.7774873579041,218.4352438769552L712.1757648709305,182.8736988778728L712.9361128503448,165.0929263783316L713.0688720213537,173.98331262810223L714.058531296147,200.65447137741398L714.3361186537109,173.98331262810223L715.4464680839666,191.7640851276434L715.699917410438,173.98331262810223L715.7964695348081,173.98331262810223L716.0137118146407,173.98331262810223L716.8344048717863,200.65447137741398L716.9068189650638,173.98331262810223L717.2688894314516,191.7640851276434L717.6671669444781,182.8736988778728L717.6792359600245,173.98331262810223L718.077513473051,191.7640851276434L718.3430318150687,209.5448576271846L718.3671698461611,173.98331262810223L718.4637219705312,209.5448576271846L719.151655856668,191.7640851276434L719.622347462972,191.7640851276434L719.6344164785182,182.8736988778728L720.3947644579325,182.8736988778728L720.4189024890251,173.98331262810223L720.6240757533116,173.98331262810223L720.9378701575142,165.0929263783316L721.6620110902896,182.8736988778728L721.7344251835672,165.0929263783316L722.1085646655013,227.3256301267258L722.1206336810476,182.8736988778728L722.2895998986952,165.0929263783316L722.6275323339904,182.8736988778728L725.69306228274,191.7640851276434L726.2603060134142,191.7640851276434L726.6103074642556,191.7640851276434L726.6585835264407,173.98331262810223L726.7913426974495,200.65447137741398L727.2258272571148,191.7640851276434L727.2499652882074,182.8736988778728L727.2741033192998,173.98331262810223L727.8654850810665,191.7640851276434L728.1430724386305,182.8736988778728L728.1551414541767,165.0929263783316L728.3844527495556,200.65447137741398L728.6861781382121,209.5448576271846L728.963765495776,182.8736988778728L729.1327317134236,191.7640851276434L730.2068740970407,191.7640851276434L730.7982558588072,191.7640851276434L731.1844643562877,200.65447137741398L731.2689474651114,182.8736988778728L732.3068828020896,209.5448576271846L732.8258504705788,191.7640851276434L733.6586125432706,191.7640851276434L733.9241308852883,173.98331262810223L734.4672365848699,165.0929263783316L735.6500001084031,191.7640851276434L735.9517254970597,200.65447137741398L736.6275903676501,200.65447137741398L736.6517283987426,173.98331262810223L736.7000044609277,209.5448576271846L736.7603495386589,191.7640851276434L736.9293157563066,182.8736988778728L737.2551791760555,182.8736988778728L738.6069089172365,191.7640851276434L738.7155300571528,173.98331262810223L738.9931174147168,182.8736988778728L739.1982906790032,165.0929263783316L739.5241540987521,200.65447137741398L739.8982935806862,191.7640851276434L740.0913978294262,191.7640851276434L740.1034668449726,209.5448576271846L740.2241570004352,200.65447137741398L741.7810600059024,182.8736988778728L741.7931290214487,165.0929263783316" style="fill: none;" fill="none"></path></g></g></g></g></g></g><g transform="translate(39, 377)" clip-path="url(#clip_1)"><clipPath id="clip_1"><rect width="879" height="23"></rect></clipPath><g><g><line x1="40.29366941072461" y1="0" x2="40.29366941072461" y2="5" style="visibility: inherit;" fill="rgb(0, 0, 0)" stroke="rgb(204, 204, 204)" stroke-width="1px"></line><line x1="160.98382487330878" y1="0" x2="160.98382487330878" y2="5" style="visibility: inherit;" fill="rgb(0, 0, 0)" stroke="rgb(204, 204, 204)" stroke-width="1px"></line><line x1="281.6739803358929" y1="0" x2="281.6739803358929" y2="5" style="visibility: inherit;" fill="rgb(0, 0, 0)" stroke="rgb(204, 204, 204)" stroke-width="1px"></line><line x1="402.3641357984771" y1="0" x2="402.3641357984771" y2="5" style="visibility: inherit;" fill="rgb(0, 0, 0)" stroke="rgb(204, 204, 204)" stroke-width="1px"></line><line x1="523.0542912610612" y1="0" x2="523.0542912610612" y2="5" style="visibility: inherit;" fill="rgb(0, 0, 0)" stroke="rgb(204, 204, 204)" stroke-width="1px"></line><line x1="643.7444467236453" y1="0" x2="643.7444467236453" y2="5" style="visibility: inherit;" fill="rgb(0, 0, 0)" stroke="rgb(204, 204, 204)" stroke-width="1px"></line><line x1="764.4346021862295" y1="0" x2="764.4346021862295" y2="5" style="visibility: inherit;" fill="rgb(0, 0, 0)" stroke="rgb(204, 204, 204)" stroke-width="1px"></line></g><g transform="translate(0, 8)"><text x="40.29366941072461" y="0" dx="0em" dy="0.95em" style="text-anchor: middle; visibility: inherit; font-family: &quot;Helvetica Neue&quot;, sans-serif; font-size: 12px; font-weight: 200;" fill="rgb(50, 49, 63)" stroke="none" stroke-width="1px">-30k</text><text x="160.98382487330878" y="0" dx="0em" dy="0.95em" style="text-anchor: middle; visibility: inherit; font-family: &quot;Helvetica Neue&quot;, sans-serif; font-size: 12px; font-weight: 200;" fill="rgb(50, 49, 63)" stroke="none" stroke-width="1px">-20k</text><text x="281.6739803358929" y="0" dx="0em" dy="0.95em" style="text-anchor: middle; visibility: inherit; font-family: &quot;Helvetica Neue&quot;, sans-serif; font-size: 12px; font-weight: 200;" fill="rgb(50, 49, 63)" stroke="none" stroke-width="1px">-10k</text><text x="402.3641357984771" y="0" dx="0em" dy="0.95em" style="text-anchor: middle; visibility: inherit; font-family: &quot;Helvetica Neue&quot;, sans-serif; font-size: 12px; font-weight: 200;" fill="rgb(50, 49, 63)" stroke="none" stroke-width="1px">0</text><text x="523.0542912610612" y="0" dx="0em" dy="0.95em" style="text-anchor: middle; visibility: inherit; font-family: &quot;Helvetica Neue&quot;, sans-serif; font-size: 12px; font-weight: 200;" fill="rgb(50, 49, 63)" stroke="none" stroke-width="1px">10k</text><text x="643.7444467236453" y="0" dx="0em" dy="0.95em" style="text-anchor: middle; visibility: inherit; font-family: &quot;Helvetica Neue&quot;, sans-serif; font-size: 12px; font-weight: 200;" fill="rgb(50, 49, 63)" stroke="none" stroke-width="1px">20k</text><text x="764.4346021862295" y="0" dx="0em" dy="0.95em" style="text-anchor: middle; visibility: inherit; font-family: &quot;Helvetica Neue&quot;, sans-serif; font-size: 12px; font-weight: 200;" fill="rgb(50, 49, 63)" stroke="none" stroke-width="1px">30k</text></g><line x1="0" y1="0" x2="879.640625" y2="0" fill="rgb(0, 0, 0)" stroke="rgb(204, 204, 204)" stroke-width="1px"></line></g></g></g></g></svg>