<svg viewBox="0 0 918.75 400" xmlns="http://www.w3.org/2000/svg"><g><g><g><g><g><line x1="48.8125" y1="365.16564093843806" x2="43.8125" y2="365.16564093843806" style="visibility: inherit;" fill="rgb(0, 0, 0)" stroke="rgb(204, 204, 204)" stroke-width="1px"></line><line x1="48.8125" y1="334.03005297036145" x2="43.8125" y2="334.03005297036145" style="visibility: inherit;" fill="rgb(0, 0, 0)" stroke="rgb(204, 204, 204)" stroke-width="1px"></line><line x1="48.8125" y1="302.89446500228485" x2="43.8125" y2="302.89446500228485" style="visibility: inherit;" fill="rgb(0, 0, 0)" stroke="rgb(204, 204, 204)" stroke-width="1px"></line><line x1="48.8125" y1="271.7588770342082" x2="43.8125" y2="271.7588770342082" style="visibility: inherit;" fill="rgb(0, 0, 0)" stroke="rgb(204, 204, 204)" stroke-width="1px"></line><line x1="48.8125" y1="240.62328906613158" x2="43.8125" y2="240.62328906613158" style="visibility: inherit;" fill="rgb(0, 0, 0)" stroke="rgb(204, 204, 204)" stroke-width="1px"></line><line x1="48.8125" y1="209.48770109805494" x2="43.8125" y2="209.48770109805494" style="visibility: inherit;" fill="rgb(0, 0, 0)" stroke="rgb(204, 204, 204)" stroke-width="1px"></line><line x1="48.8125" y1="178.35211312997833" x2="43.8125" y2="178.35211312997833" style="visibility: inherit;" fill="rgb(0, 0, 0)" stroke="rgb(204, 204, 204)" stroke-width="1px"></line><line x1="48.8125" y1="147.21652516190173" x2="43.8125" y2="147.21652516190173" style="visibility: inherit;" fill="rgb(0, 0, 0)" stroke="rgb(204, 204, 204)" stroke-width="1px"></line><line x1="48.8125" y1="116.0809371938251" x2="43.8125" y2="116.0809371938251" style="visibility: inherit;" fill="rgb(0, 0, 0)" stroke="rgb(204, 204, 204)" stroke-width="1px"></line><line x1="48.8125" y1="84.94534922574843" x2="43.8125" y2="84.94534922574843" style="visibility: inherit;" fill="rgb(0, 0, 0)" stroke="rgb(204, 204, 204)" stroke-width="1px"></line><line x1="48.8125" y1="53.80976125767182" x2="43.8125" y2="53.80976125767182" style="visibility: inherit;" fill="rgb(0, 0, 0)" stroke="rgb(204, 204, 204)" stroke-width="1px"></line><line x1="48.8125" y1="22.67417328959516" x2="43.8125" y2="22.67417328959516" style="visibility: inherit;" fill="rgb(0, 0, 0)" stroke="rgb(204, 204, 204)" stroke-width="1px"></line></g><g transform="translate(38.8125, 0)"><text x="0" y="365.16564093843806" dx="0em" dy="0.3em" style="text-anchor: end; visibility: inherit; font-family: &quot;Helvetica Neue&quot;, sans-serif; font-size: 12px; font-weight: 200;" fill="rgb(50, 49, 63)" stroke="none" stroke-width="1px">-0.2</text><text x="0" y="334.03005297036145" dx="0em" dy="0.3em" style="text-anchor: end; visibility: inherit; font-family: &quot;Helvetica Neue&quot;, sans-serif; font-size: 12px; font-weight: 200;" fill="rgb(50, 49, 63)" stroke="none" stroke-width="1px">0</text><text x="0" y="302.89446500228485" dx="0em" dy="0.3em" style="text-anchor: end; visibility: inherit; font-family: &quot;Helvetica Neue&quot;, sans-serif; font-size: 12px; font-weight: 200;" fill="rgb(50, 49, 63)" stroke="none" stroke-width="1px">0.2</text><text x="0" y="271.7588770342082" dx="0em" dy="0.3em" style="text-anchor: end; visibility: inherit; font-family: &quot;Helvetica Neue&quot;, sans-serif; font-size: 12px; font-weight: 200;" fill="rgb(50, 49, 63)" stroke="none" stroke-width="1px">0.4</text><text x="0" y="240.62328906613158" dx="0em" dy="0.3em" style="text-anchor: end; visibility: inherit; font-family: &quot;Helvetica Neue&quot;, sans-serif; font-size: 12px; font-weight: 200;" fill="rgb(50, 49, 63)" stroke="none" stroke-width="1px">0.6</text><text x="0" y="209.48770109805494" dx="0em" dy="0.3em" style="text-anchor: end; visibility: inherit; font-family: &quot;Helvetica Neue&quot;, sans-serif; font-size: 12px; font-weight: 200;" fill="rgb(50, 49, 63)" stroke="none" stroke-width="1px">0.8</text><text x="0" y="178.35211312997833" dx="0em" dy="0.3em" style="text-anchor: end; visibility: inherit; font-family: &quot;Helvetica Neue&quot;, sans-serif; font-size: 12px; font-weight: 200;" fill="rgb(50, 49, 63)" stroke="none" stroke-width="1px">1</text><text x="0" y="147.21652516190173" dx="0em" dy="0.3em" style="text-anchor: end; visibility: inherit; font-family: &quot;Helvetica Neue&quot;, sans-serif; font-size: 12px; font-weight: 200;" fill="rgb(50, 49, 63)" stroke="none" stroke-width="1px">1.2</text><text x="0" y="116.0809371938251" dx="0em" dy="0.3em" style="text-anchor: end; visibility: inherit; font-family: &quot;Helvetica Neue&quot;, sans-serif; font-size: 12px; font-weight: 200;" fill="rgb(50, 49, 63)" stroke="none" stroke-width="1px">1.4</text><text x="0" y="84.94534922574843" dx="0em" dy="0.3em" style="text-anchor: end; visibility: inherit; font-family: &quot;Helvetica Neue&quot;, sans-serif; font-size: 12px; font-weight: 200;" fill="rgb(50, 49, 63)" stroke="none" stroke-width="1px">1.6</text><text x="0" y="53.80976125767182" dx="0em" dy="0.3em" style="text-anchor: end; visibility: inherit; font-family: &quot;Helvetica Neue&quot;, sans-serif; font-size: 12px; font-weight: 200;" fill="rgb(50, 49, 63)" stroke="none" stroke-width="1px">1.8</text><text x="0" y="22.67417328959516" dx="0em" dy="0.3em" style="text-anchor: end; visibility: inherit; font-family: &quot;Helvetica Neue&quot;, sans-serif; font-size: 12px; font-weight: 200;" fill="rgb(50, 49, 63)" stroke="none" stroke-width="1px">2</text></g><line x1="48.8125" y1="0" x2="48.8125" y2="377" fill="rgb(0, 0, 0)" stroke="rgb(204, 204, 204)" stroke-width="1px"></line></g></g><g transform="translate(48, 0)" clip-path="url(#clip_0)"><clipPath id="clip_0"><rect width="869" height="377"></rect></clipPath><g><g><g><line x1="78.9104571130699" y1="0" x2="78.9104571130699" y2="377" fill="rgb(0, 0, 0)" stroke="rgb(60, 60, 60)" stroke-width="1px" opacity="0.25"></line><line x1="181.54787870449746" y1="0" x2="181.54787870449746" y2="377" fill="rgb(0, 0, 0)" stroke="rgb(60, 60, 60)" stroke-width="1px" opacity="0.25"></line><line x1="284.185300295925" y1="0" x2="284.185300295925" y2="377" fill="rgb(0, 0, 0)" stroke="rgb(60, 60, 60)" stroke-width="1px" opacity="0.25"></line><line x1="386.82272188735254" y1="0" x2="386.82272188735254" y2="377" fill="rgb(0, 0, 0)" stroke="rgb(60, 60, 60)" stroke-width="1px" opacity="0.25"></line><line x1="489.46014347878014" y1="0" x2="489.46014347878014" y2="377" fill="rgb(0, 0, 0)" stroke="rgb(60, 60, 60)" stroke-width="1px" opacity="0.25"></line><line x1="592.0975650702077" y1="0" x2="592.0975650702077" y2="377" fill="rgb(0, 0, 0)" stroke="rgb(60, 60, 60)" stroke-width="1px" opacity="0.25"></line><line x1="694.7349866616352" y1="0" x2="694.7349866616352" y2="377" fill="rgb(0, 0, 0)" stroke="rgb(60, 60, 60)" stroke-width="1px" opacity="0.25"></line><line x1="797.3724082530628" y1="0" x2="797.3724082530628" y2="377" fill="rgb(0, 0, 0)" stroke="rgb(60, 60, 60)" stroke-width="1px" opacity="0.25"></line></g><g><line x1="0" y1="365.16564093843806" x2="869.9375" y2="365.16564093843806" fill="rgb(0, 0, 0)" stroke="rgb(60, 60, 60)" stroke-width="1px" opacity="0.25"></line><line x1="0" y1="334.03005297036145" x2="869.9375" y2="334.03005297036145" fill="rgb(0, 0, 0)" stroke="rgb(60, 60, 60)" stroke-width="1px" opacity="0.25"></line><line x1="0" y1="302.89446500228485" x2="869.9375" y2="302.89446500228485" fill="rgb(0, 0, 0)" stroke="rgb(60, 60, 60)" stroke-width="1px" opacity="0.25"></line><line x1="0" y1="271.7588770342082" x2="869.9375" y2="271.7588770342082" fill="rgb(0, 0, 0)" stroke="rgb(60, 60, 60)" stroke-width="1px" opacity="0.25"></line><line x1="0" y1="240.62328906613158" x2="869.9375" y2="240.62328906613158" fill="rgb(0, 0, 0)" stroke="rgb(60, 60, 60)" stroke-width="1px" opacity="0.25"></line><line x1="0" y1="209.48770109805494" x2="869.9375" y2="209.48770109805494" fill="rgb(0, 0, 0)" stroke="rgb(60, 60, 60)" stroke-width="1px" opacity="0.25"></line><line x1="0" y1="178.35211312997833" x2="869.9375" y2="178.35211312997833" fill="rgb(0, 0, 0)" stroke="rgb(60, 60, 60)" stroke-width="1px" opacity="0.25"></line><line x1="0" y1="147.21652516190173" x2="869.9375" y2="147.21652516190173" fill="rgb(0, 0, 0)" stroke="rgb(60, 60, 60)" stroke-width="1px" opacity="0.25"></line><line x1="0" y1="116.0809371938251" x2="869.9375" y2="116.0809371938251" fill="rgb(0, 0, 0)" stroke="rgb(60, 60, 60)" stroke-width="1px" opacity="0.25"></line><line x1="0" y1="84.94534922574843" x2="869.9375" y2="84.94534922574843" fill="rgb(0, 0, 0)" stroke="rgb(60, 60, 60)" stroke-width="1px" opacity="0.25"></line><line x1="0" y1="53.80976125767182" x2="869.9375" y2="53.80976125767182" fill="rgb(0, 0, 0)" stroke="rgb(60, 60, 60)" stroke-width="1px" opacity="0.25"></line><line x1="0" y1="22.67417328959516" x2="869.9375" y2="22.67417328959516" fill="rgb(0, 0, 0)" stroke="rgb(60, 60, 60)" stroke-width="1px" opacity="0.25"></line></g></g></g><g><g><line x1="0" y1="334.03005297036145" x2="869.9375" y2="334.03005297036145" fill="rgb(0, 0, 0)" stroke="rgb(153, 153, 153)" stroke-width="1.5px"></line></g></g><g><g><line x1="284.185300295925" y1="0" x2="284.185300295925" y2="377" fill="rgb(0, 0, 0)" stroke="rgb(153, 153, 153)" stroke-width="1.5px"></line></g></g><g><g><g><g><g><path stroke="rgb(0, 119, 187)" stroke-width="2px" d="M285.10903709024785,-8.458749712832628L285.6427516825233,14.49859315692919L285.9301364629793,19.94818809309129L285.97119143161586,6.910678777983662L286.39200486014073,28.86715631066795L286.61780718764186,11.158218317190574L286.89492822593866,35.17815128550524L287.26442294366785,58.82910899595754L287.6852363721927,55.669658599881586L287.94182992617124,51.72604762912914L288.3113246439004,62.395096561268645L288.855302978335,75.15447328460567L289.45060002356524,93.26169002312798L289.83035848345355,111.71316242171207L289.85088596777183,95.88324790970375L289.9637871315224,111.82107868388232L290.2203806855009,100.57687226297554L290.63093037186667,108.93985367086003L290.9593701209592,118.28447406197716L290.9901613474367,117.83623649014584L291.04148005823237,126.03185953994753L291.36991980732495,134.5923193563882L291.8009969780089,146.00327171290982L291.8317882044864,143.75115304061163L292.5502501556264,175.64232929149244L292.81710745176406,145.34361848181038L292.89921738903723,145.7446995236031L293.1763384273341,139.97202389816798L293.24818462244804,153.21139137039103L293.27897584892554,162.24790758531705L293.4329319813126,154.5021181174149L293.46372320779005,144.88396758216572L293.7305805039278,171.27228670042203L294.5311523923409,188.25916932495858L294.8698558835926,186.29572433418386L295.0135482738206,161.13237078066416L295.1777681483669,206.89460044216054L295.37277924939065,182.66587780788768L295.81412016223373,171.3281099362962L296.05018623189403,177.8662394137478L296.60442830848774,195.7869456733688L296.65574701928347,187.53398688977947L296.84049437814804,200.01575065253084L296.98418676837605,194.95742871954457L297.13814290076317,184.58816986463614L297.3126265174686,199.26129256755405L297.6000112979246,215.13839144698593L298.3082095069054,193.8283351084402L298.7290229354303,221.90524215799175L298.78034164622596,209.0298763308604L298.81113287270347,202.09948098350446L300.576496524076,219.2702480936325L300.8022988515771,190.57190854246386L300.83309007805457,244.85138511989123L301.02810117907825,224.67840244279094L301.1923210536246,241.7465795103949L301.6336619664677,228.9728758129572L301.8389368096506,247.36469269567775L302.0647391371517,207.07051415653925L302.2186952695388,227.51209048151415L302.4752888235174,235.25068862498102L302.5060800499948,216.85768401383763L302.6497724402228,223.19915164602378L302.77293734613255,182.01350869250658L302.80372857261,228.53721145997721L303.33744316488537,255.19809569302203L303.4400805864768,188.55303003920372L303.5529817502274,198.804870804559L304.06616885818454,228.81899074917112L304.1277513111394,235.84035867041507L304.3432898964814,178.88147812056758L304.5075097710276,253.8830669089711L304.9693781681891,244.46986448056245L305.85205999387534,239.06182148094365L307.69953358252104,221.20142027616745L307.91507216786306,285.20185549088325L308.8080177357085,268.8882478577957L308.99276509457303,263.712039239277L309.5059522025302,241.8072557303718L309.9165018888959,275.8988659089L310.10124924776045,262.3609332043819L310.3065240909433,280.10370289965397L310.7581287459456,241.13283940614144L310.7786562302639,251.01997331265395L310.80944745674134,247.73703627711433L310.860766167537,238.79466609795614L311.05577726856075,229.01219147957934L311.38421701765327,241.23552223994852L311.78450296185986,244.52063059151118L312.297690069817,239.4806256577961L312.87245963072905,263.4211153691399L313.31380054357214,249.48705203777905L313.590921581869,245.92727220930303L313.7038227456196,224.07903570827966L314.165691142781,248.92751132194667L314.6891419928973,275.4655955710223L315.30496652244585,266.3545865140754L315.5102413656287,263.7757218968243L316.0131647314267,258.4981248828968L316.34160448051927,238.7583011941345L316.74189042472585,261.8531421870984L317.7887921249584,239.92248846848287L317.80931960927666,224.26347694156937L318.05564942109606,261.20927739280745L318.0967043897327,261.7967807617826L318.2403967799607,254.2183310937067L318.2506605221198,206.53603636625473L318.37382542802953,270.77430955808296L318.7125289192813,268.57569433958304L319.41046338610295,257.42819499385587L319.58494700280835,254.6945173999883L319.6875844243998,271.9501560571448L320.0262879156515,257.2633188025942L320.03655165781066,250.31486163199543L320.8371235462238,258.85805763022734L321.2476732325895,229.55738666305447L321.32978316986265,281.339042529834L321.7916515670241,225.3513248273644L322.5614322289598,275.4634103363068L322.60248719759636,186.06686391370505L322.6127509397555,258.83173738279436L322.69486087702865,259.60361239159687L322.85908075157494,276.51189152027405L322.8693444937341,255.26591684179266L323.1156743055535,275.0842697933879L323.66991638214716,236.0787394765333L323.75202631942034,268.61373876562766L323.82387251453434,288.40615191405027L323.87519122533,289.78436228272005L324.9323566677217,254.46265054193918L325.2300051903369,259.09213292081273L325.44554377567886,249.81053172956916L326.3692805700017,289.023965555629L326.90299516227714,303.91391132983387L327.34433607512034,268.4384792297943L327.4161822702343,292.7069304518988L327.754885761486,278.5670374965086L328.0627980262603,289.17542876692784L328.1038529948969,252.91701686128846L328.8428424303551,257.652633909698L329.65367806092746,256.5761019208691L329.8178979354737,249.66379159457682L330.053964005134,269.88546649745L330.2797663326351,276.232033010639L330.5979423395686,250.4148442394662L331.0700744788891,256.54478022328044L331.6551077819603,282.9155942659921L331.8090639143474,204.95307275243883L332.08618495264426,289.6414590672812L332.3222510223045,237.2692052422373L332.4762071546917,229.0784166182818L332.7943831616251,301.8781030569839L333.11255916855856,258.65262700871506L333.2767790431048,288.30849372821956L334.20051583742764,284.20162577409445L334.3134170011782,248.01244080516372L334.9087140464085,187.47076818864738L335.64770348186676,303.1942754935982L335.8119233564131,260.4963619652457L335.9864069731185,297.79198555352764L336.04798942607334,277.8582373623494L336.0685169103916,257.7063090273699L336.0890443947099,292.1172696855931L336.1814180741422,276.3046514687426L336.50985782323477,299.3697296576728L336.6535502134627,283.9513491254911L336.7253964085768,250.4958510295562L337.0025174468736,257.1186479132136L337.0435724155102,292.97648912911694L337.17700106357904,262.9300824575726L337.56702326562646,266.0827358921662L337.93651798335554,285.1195357041383L339.05526587870213,245.10388875928746L339.4863430493861,258.2746185194492L339.4966067915453,269.1974330524342L339.8558377671153,288.62025388096225L340.1740137740487,299.0836077364328L340.46139855450474,233.35822896572847L340.5845634604144,299.1472950335442L340.6564096555284,280.3990389952994L340.80010204575643,246.02810849657772L340.87194824087044,280.16317283295143L341.11827805268985,301.4892078304359L341.2619704429178,295.66755000646833L341.38513534882753,273.70970148257726L341.62120141848783,288.0781486472122L341.67252012928355,297.6110773483395L342.10359729996753,288.6445466388609L342.48335575985584,292.64003257639433L342.5449382128107,236.75429713354498L343.1504990002001,277.1326559246533L343.3455101012238,264.3710058148819L343.4378837806561,246.8771208989677L343.50972997577014,294.6533482422365L344.0844995366821,288.23574072275557L344.60795038679834,273.432742700537L345.1211374947555,261.38583136703915L346.6812263029452,240.35884875608565L346.74280875590006,308.78376024828253L346.9275561147647,213.7061858307178L347.00966605203774,278.79890435455775L347.6768092923821,306.5714281583679L347.7383917453369,282.6439849014189L347.76918297181436,296.29457550267045L347.8718203934058,249.47837605281524L347.9128753620423,257.8171946105973L347.9334028463606,292.28871086012947L347.9847215571564,282.0402848139899L349.09320571034374,284.715837948164L349.1753156476169,281.73192546177046L349.185579389776,278.46118584038584L349.3497992643223,287.6819020312657L350.92015181467116,266.20016326084766L351.17674536864973,288.1229111621485L352.1620646159275,270.3274638554972L352.2339108110415,295.31657625751484L352.777889145476,285.5119036444539L353.1473838632051,236.55602999908302L353.65030722900315,255.46635529227768L354.7382638978723,275.34283270356633L354.74852764003145,269.8533839113405L355.09749487344226,292.26482638387614L355.59015449708113,270.0272469383641L355.6312094657177,290.6274360429957L355.71331940299086,266.6788966878486L356.12386908935656,273.654119504039L356.14439657367484,277.6851816194882L356.21624276878885,253.6130535544661L356.2572977374254,266.4643307645215L356.729429876746,277.9235809838631L356.86285852481484,285.20820705420704L356.89364975129223,291.8969646214102L357.0681333679977,270.9384573377728L357.08866085231597,268.38945295540253L357.2836719533397,279.1774603123935L357.90976022504736,280.67216549735025L358.0226613887979,309.1307810885787L358.3408373957314,302.06065830744586L358.38189236436796,296.8330317192151L358.4126835908454,251.4264919236325L359.4903765175554,283.2367680943988L359.61354142346505,281.1352496744672L359.82908000880707,265.44149245162106L359.8598712352845,281.72643221781476L359.93171743039846,269.0729489066779L360.2909484059685,284.8653432633908L361.6252348866571,285.9533256965463L361.9331471514314,297.7197266616458L362.1178945102959,301.4203149423462L362.4668617437068,299.2941789950253L362.7131915555262,252.67497079949032L362.8568839457542,278.9314242254249L363.4111260223479,284.19787700625983L364.4477639804213,300.5497053688297L364.67356630792244,309.0888556671212L365.53572064929045,289.8718412648018L365.60756684440446,288.0961037604796L365.65888555520013,302.6792606749304L366.65446854463704,294.3742970167638L368.00928250964387,269.4428567169348L368.06060122043954,284.0434537530321L368.53273335976013,298.68619658988416L369.15882163146784,311.1871194328003L369.79517364533467,272.5998295857537L369.8978110669261,300.9599333113475L369.96965726204013,284.50583271639806L370.03123971499497,255.1499741336398L370.174932105223,289.53165450250117L370.2980970111327,241.5887137005666L370.3699432062467,258.9555023961071L370.44178940136067,283.20054237750173L370.606009275907,257.1372247280773L370.98576773579526,280.37543289289516L371.27315251625123,254.05805271051946L371.8376583350041,307.15605499756896L372.24820802136986,270.4336866767521L372.26873550568814,228.63749099955368L372.4226916380752,270.32708341123674L372.474010348871,270.4573623726186L372.6382302234172,295.35433998992823L372.7306039028495,302.4623123354113L372.98719745682814,313.8286274452287L373.9519892197875,266.3393269875802L373.9725167041058,297.01388656941543L374.8551985297921,242.78898750488747L375.09126459945236,261.35789655128127L375.1323195680889,289.99362518422174L375.2452207318395,244.81219008193705L375.25548447399865,277.06765099132275L375.3170669269535,279.13189979242316L375.6352429338869,249.6995440759304L375.9431551986612,266.6575129366731L376.2510674634355,305.138830498929L376.4152873379818,271.7472261607103L376.45634230661835,282.61072386601484L377.8624749824209,279.32602379609756L378.0882773099221,254.91106441720828L378.2524971844683,289.73128102925955L378.9709591356083,256.7143377347712L379.21728894742773,285.38155972917394L379.4944099857246,261.4581111369596L380.5002567173206,299.65797649929425L380.54131168595717,268.62028055108163L380.602894138912,291.07942702222584L381.0544987939143,288.6853376868834L381.92691687744144,289.8605671239129L381.9474443617597,303.1475968386672L382.1219279784651,283.34289812437066L382.2861478530114,297.0585539732867L382.41957650108026,306.815153742389L383.05592851494714,272.6608491334779L383.19962090517515,303.96492797724676L383.8051816925646,301.5425210621039L384.0823027308614,218.5092667814583L384.11309395733883,291.1995824546285L384.1438851838163,277.27986929518914L384.3594237691583,300.88476773252467L384.6160173231368,264.97001994251764L384.7597097133648,285.64759233763675L385.06762197813913,263.60568187066167L385.12920443109397,264.72108876751827L385.1599956575714,274.56409113981914L385.7450289606425,285.8033193083911L386.0837324518942,305.6427729977486L386.17610613132655,281.77927221393935L386.2376885842814,291.68018562598263L386.31979852155456,282.7859138083859L387.33590899530964,248.0408813334141L387.5617113228108,249.23015937069528L387.9825247513357,278.8053997443702L388.08516217292714,304.72669801532675L388.17753585235937,285.5913979366304L388.40333817986055,269.69240031440216L388.50597560145195,220.2136570682545L388.6599317338391,304.6529985387758L389.0191627094091,307.6221177748714L389.1936463261145,281.2570150356306L389.2860200055468,293.2405174458662L389.9121082772545,262.9187619210423L389.9736907302094,281.35688629356173L390.17896557339225,290.26734091091987L390.3123942214611,308.74198561265996L390.68188893919023,254.1189701878323L390.7126801656676,309.6801773973933L390.89742752453225,262.11985217192733L391.16428482066993,312.30164481246806L391.90327425612816,294.87100411528877L392.3138239424939,244.21189543459545L392.4267251062445,312.33465531140797L392.5088350435176,274.76035398256755L392.59094498079077,280.2560244303209L392.6319999494273,287.6526310210321L392.7654285974962,260.0043593847706L392.9091209877242,269.2066982620453L393.8225940398879,270.89427940791956L393.9354952036385,254.8640656323508L394.30498992136756,264.75750006698144L394.61290218614187,264.1850242462939L395.04397935682584,266.0034086242992L395.10556180978074,249.22435063637727L395.44426530103243,284.9208185319536L395.57769394910133,285.0257515543743L395.629012659897,277.6458241967887L395.9574524089896,305.51268657827904L396.060089830581,292.48852760901815L396.3987933218327,256.6968233800983L396.4090570639919,273.29746228899955L396.7477605552436,269.66324529327244L396.9119804297898,245.97589484161364L396.93250791410816,297.21193100479815L397.10699153081356,287.15419800464275L397.281475147519,293.83753656091665L397.3020026318373,309.06000453744343L397.53806870149754,290.1061485335947L397.5585961858159,317.2164708256951L397.8049259976353,302.5443166317939L397.81518973979445,300.17508144161246L398.2770581369558,308.68643379128866L398.54391543309356,305.54770136893245L398.9852563459367,276.3408771856396L398.9955200880958,276.21518675320385L399.02631131457326,306.6541678256686L399.27264112639267,291.77901762154374L399.3034323528701,276.664273365275L399.5497621646896,264.5796284565307L399.652399586281,283.74036958525323L399.92952062457783,265.23557467587284L400.5966638649221,309.8297337478258L400.96615858265125,302.9485015420041L401.1714334258341,294.4057810990978L401.41776323765356,295.5940964268175L402.12596144663434,268.5139695781079L402.25939009470324,278.6458404936265L403.20365437334436,295.87381806931006L403.22418185766264,275.99107260685236L403.2549730841401,285.7309374680592L403.3576105057315,225.7299318204059L403.47051166948205,291.57364267480125L403.84000638721125,260.7723649970706L403.99396251959837,207.80780585415445L404.01449000391665,280.9367505617977L404.11712742550804,313.54865526627185L404.48662214323724,303.31013468959634L405.06139170414923,284.3791030215923L405.3693039689235,301.4278681527852L405.60537003858377,259.20936078823564L406.28277702108716,300.24094005474694L406.3238319897238,276.4553352332639L406.7138541917712,304.24764445839935L406.90886529279487,275.01972881647254L407.4117886585929,302.8399055836856L408.2944704842792,265.7733465567051L408.38684416371143,307.00848902015764L408.91029501382775,266.9095758174749L409.23873476292033,287.0124500406777L409.36189966883006,284.71313308226354L410.0598341356517,279.6354920041493L410.2445814945163,287.580026481621L410.2548452366754,278.4090649767048L410.42932885338087,284.2576624299196L410.4806475641766,244.22126735418203L410.66539492304116,251.46294033960885L411.3633293898629,310.09388965258916L411.55834049088656,308.891437572899L411.7533515919103,268.8119038296783L412.29732992634484,288.8826629898225L412.4718135430503,254.6641282547942L412.60524219111915,299.4975519698363L412.93368194021167,289.8776036034783L413.097901814758,274.96164611285644L413.47766027464627,275.0354151828697L413.5495064697603,310.15944901383585L413.6213526648743,284.0268719507537L413.73425382862484,310.3314724536733L413.744517570784,293.9248995538946L414.29875964737766,276.4602531712648L414.4013970689691,321.2596538024909L414.4732432640831,274.85329837122003L414.48350700624223,291.42469410727267L415.35592508976936,268.6554066912747L415.4688262535199,309.15985955689996L415.7151560653394,301.68880883959145L415.97174961931796,268.9458666049966L416.04359581443197,312.4033347795467L416.09491452522764,299.5680687053791L416.3412443370471,294.1929457331992L416.52599169591167,310.4001264042092L416.61836537534396,300.1441216300277L416.71073905477624,303.1536189929362L417.58315713830336,244.8488797552493L417.89106940307767,290.1214266183465L417.9629155981916,294.6012366576838L418.0552892776239,284.0960942478982L418.6813775493316,283.7777087975467L418.72243251796823,282.17519406039526L418.7737512287639,302.9023262797836L419.02008104058336,307.3734997704523L419.1329822043339,279.57858774982776L419.1740371729705,257.9651456718333L419.44089446910823,297.938665374186L419.4511582112674,275.03251545527485L419.56405937501796,299.7717710892449L420.09777396729334,275.84706053558125L420.7546534654785,274.87216283906116L420.7751809497967,266.32573770417963L420.8778183713882,291.1867215827998L421.1959943783216,261.3643548245806L421.67839025980135,306.3844931593467L421.9144563294616,278.38377007294935L422.42764343741874,273.73909312147873L422.77661067082965,284.0889214817195L423.4129626846965,308.4910733437678L423.7311386916299,281.5152531763184L424.3777544476559,284.1226557526671L424.58302929083874,282.5922908776398L424.6651392281119,322.468951559087L425.106480140955,291.18999711509093L425.14753510959156,299.9567690702328L425.3836011792519,293.79054705518746L425.4143924057293,272.1626109787829L425.6607222175487,225.9363924251599L425.69151344402616,278.7762029671631L425.8146783499359,313.4935813200082L426.95395372960076,300.23506636653076L426.974481213919,308.6252170620881L427.1797560571019,304.71388353913954L427.980327945515,299.0856120281464L429.10933958302064,300.62736471338417L429.4275155899541,316.4369486552794L429.6943728860918,297.729147296656L430.3615161264361,295.04736786739016L430.54626348530064,312.03630581884596L430.6694283912104,301.92367517586473L430.7002196176878,254.369042695613L431.24419795212236,304.37619982169883L431.2852529207589,252.1174529336281L431.86002248167097,257.038388092952L432.0652973248538,275.8026552670846L432.4963744955378,275.1591430796692L432.8145505024712,248.58934277005207L432.85560547110776,279.931542592674L432.88639669758527,277.41446305123213L432.9582428926992,271.07359392282154L433.0608803142906,297.0076347567209L433.4816937428155,277.8618979784652L433.6972323281575,310.2717682223862L433.71775981247583,275.7382349188372L433.75881478111233,295.14518611818414L434.3951667949792,289.18946344848695L434.8057164813449,285.1456286129279L434.815980223504,293.3460582511908L434.9802000980503,296.90905561740607L435.0520462931643,316.1974404350723L435.26758487850634,247.29772522671104L435.5652334011214,282.02268694716224L435.78077198646344,287.65985482241643L435.9039368923732,267.85043767137756L436.2734316101023,289.2627314455718L436.3863327738529,308.62516138731826L436.73530000726373,313.7936381721781L437.41270698976723,283.82460087242873L437.45376195840373,308.6815460104548L438.05932274579317,302.34179733678684L438.4390812056814,292.4233695700706L438.46987243215887,302.15987770661366L439.17807064113975,296.5771574364626L439.2088618676171,305.90705185096203L439.342290515686,300.56020238272305L439.80415891284747,302.9982423092753L439.85547762364314,292.2040109769747L439.8760051079614,280.64962185513673L439.90679633443887,301.6456284160309L440.00943375603026,258.65464521912105L440.0299612403486,289.1933606823744L440.635522027738,291.347825808406L440.6971044806929,296.3409873826627L440.70736822285204,316.31061680309966L440.82026938660255,286.21460275175355L441.2616102994457,292.67767336035774L441.29240152592314,263.3174443081685L441.7747974074029,315.0975285225916L441.7953248917211,291.03496143939526L442.3085119996782,296.38534625551785L442.4008856791106,274.5557909595516L442.4111494212697,297.7610837364947L442.4829956163837,293.94495175015857L442.62668800661174,296.34098042331647L443.03723769297744,300.4383488698408L443.221985051842,315.38538100126016L443.29383124695596,293.28564184680636L443.4272598950248,296.72373054714546L443.6325347382077,292.92944858818214L443.76596338627655,307.08877203823994L443.8378095813905,283.8068638186765L444.07387565105086,289.2292477110884L444.08413939320997,249.67177164491787L444.1251943618465,304.4130727577951L444.38178791582516,302.9222717660721L444.6691726962811,294.7356030750833L444.7307551492359,283.6265703557385L444.7718101178725,311.9527356695621L444.9257662502597,292.26684459428213L445.26446974151133,270.2209719395215L445.37737090526196,289.91438606807355L445.7981843337868,303.8170534688193L446.0753053720836,244.59246960283724L446.3524264103805,308.7796959900856L446.3626901525397,283.76347925429326L446.6603386751548,326.96304797633854L447.1837895252711,266.7077872538217L447.47117430572706,293.9560495876096L447.7585590861831,288.29832380359886L447.8714602499336,313.3810022958654L448.1691087725488,299.6665295358081L448.1793725147079,274.49257689798367L448.60018594323276,268.8801286205301L449.1031093090308,271.22861104026066L449.4007578316459,312.9611031818731L450.4476595318785,285.3189905670231L450.4579232740376,289.08136160375057L450.46818701619674,300.8551603538901L450.51950572699246,300.0431716734313L450.6324068907431,298.7836877514054L450.8890004447216,304.17986274592397L450.90952792903994,294.710619022126L451.1661214830185,315.3259006289434L451.51508871642926,296.364503013566L451.9872208557499,313.6087376220374L452.4798804793888,311.92212150550665L452.82884771279964,301.32268459390036L452.859638939277,265.40689522174125L452.86990268143614,253.4842128579713L453.1675512040513,285.26646606126087L453.3933535315524,279.2668925509832L453.5986283747353,288.75181336205L453.76284824928155,305.94364177364497L454.0194418032601,317.3524448520733L454.7173762700819,310.9778495719524L454.95344233974214,304.64244121054844L455.1484534407658,276.8921826751026L456.22614636747585,283.09778995023237L456.5751136008867,281.6285606120331L456.6777510224781,321.1209122760962L457.2319930990719,310.6742016971291L457.2833118098676,298.27399451281974L457.7862351756656,308.4754704895254L458.0633562139624,301.237082315518L458.0736199561215,293.06045132157163L458.46364215816897,304.58019681788824L458.96656552396695,313.3451431045363L459.37711521033265,286.01207649740024L459.397642694651,277.1981758496047L459.89030231828986,319.5085802211995L459.972412255563,308.1521323044419L461.1630063460235,299.49202392914947L461.31696247841063,271.75130897716383L461.3580174470472,287.6944613314245L461.50170983727526,304.7370349642569L461.70698468045805,204.85338707707376L462.4049191472798,305.42348631789696L462.43571037375716,294.25700883500696L462.6512489590992,272.1270394404312L462.7949413493272,269.9946308023771L462.82573257580464,309.0546667188868L462.9181062552369,297.61226739654444L463.1644360670564,302.05772146333777L463.2773372308069,289.61630335045027L463.4210296210349,321.7336769119867L463.46208458967146,286.5888485544923L463.65709569069526,303.8722874800462L463.9855354397878,311.6731230568271L464.38582138399437,278.46018369452906L464.4474038369492,271.0112242619292L464.5295137742223,304.77776569794537L464.99138217138375,309.38893339732977L465.3403494047946,301.5466386752886L465.6482616695689,295.6161041993714L465.7508990911603,300.9594554362399L466.09986632457117,303.21565924477375L466.4590973001412,263.2122050745138L466.59252594821004,293.88015559721487L466.6541084011649,319.3610652789938L466.79780079139283,300.16886674543116L467.32125164150915,259.39367211372905L468.2860434044686,288.5639295721597L468.3784170839009,244.77068454103525L468.7171205751526,253.21619451605153L469.0866152928817,318.67831861732896L469.4253187841334,267.89268554254363L469.6203298851571,284.2885712062987L469.69217608027117,314.7050735904481L470.18483570391004,301.66557158253727L470.759605264822,316.1690602211559L470.78013274914025,297.30910899573917L471.30358359925657,280.3548100302405L472.1862654249428,282.49181647636897L472.2889028465343,291.19961957114174L472.6686613064225,301.9602163831241L472.74050750153657,268.3790000173685L472.7610349858548,293.24021123463217L474.0337390135885,277.9396477945206L474.6598272852962,287.1937363703442L474.711145996092,265.1852214861336L474.9061570971157,297.3510970513127L475.0293220030254,292.97266148869176L475.0395857451845,282.0596457151953L475.10116819813936,262.59569051089755L475.29617929916316,274.9773371188178L475.60409156393735,299.7116794543511L475.61435530609657,266.019146025902L475.65541027473313,287.85995922428253L475.76831143848364,283.78168026446065L475.8504213757568,315.9619210801447L476.29176228859995,306.6161257194061L476.69204823280654,287.6513458617621L476.8562681073528,289.93428051915635L477.21549908292275,302.89382659825753L477.4618288947422,260.523670439843L478.0879171664499,294.8683131680807L478.40609317338334,309.00078514061016L478.43688439986073,302.6668568001706L479.13481886668245,237.2454042781387L479.1964013196373,282.96012944228505L479.54536855304815,303.3966672005911L479.6480059746396,309.31810813077084L479.822489591345,295.2534109113705L480.07908314532364,293.62551311874466L480.18172056691503,295.4876068306238L480.37673166793877,286.84786150239347L480.6435889640765,291.53113034847854L480.76675386998613,276.9500890752809L480.99255619748726,278.7616857709322L482.20367777226613,300.9692031605228L483.0760958557933,299.7084479979194L483.40453560488584,314.9360102158848L483.86640400204726,292.47124059298864L484.12299755602584,257.6645065543624L484.3898548521636,305.5168065112458L484.4001185943227,284.25434978111525L484.420646078641,272.365132593572L484.4514373051184,312.6846153155943L485.04673435034874,290.51293623929405L485.139108029781,294.43712135494303L485.81651501228447,316.90066033344795L485.8473062387618,307.6333965553244L485.9396799181941,280.9699420037395L486.4528670261513,272.1154822861291L486.6581418693341,299.7438873086927L486.719724322289,305.8081804191056L487.1918564616095,279.07550125059413L487.51003246854293,258.1558039210863L487.6024061479752,299.5198404360214L487.6845160852484,314.32551780653756L488.22849441968293,320.8268149440793L488.3106043569561,299.54505182762216L488.4235055207067,289.7249341055L489.73726451707694,284.3205006867912L489.7680557435544,287.60761796963163L489.9117481337824,309.2256462567901L490.886803638901,283.0913780725746L491.50262816844946,267.20314423917847L491.5642106214044,278.60363901810194L491.605265590041,267.7926658185596L492.0363427607249,297.88178895724934L492.31346379902175,280.23688622819486L492.4776836735681,297.3343505445069L492.52900238436376,276.695056873422L492.5700573530003,304.84634077589067L492.6726947745917,293.100077838992L492.8061234226606,306.32318131908096L493.81197015425664,309.8851765394395L494.03777248175777,323.3948287806704L494.17120112982667,256.53161777978187L494.3867397151686,280.1977654232671L494.5920145583515,300.8224537464022L494.75623443289777,319.8008437654854L495.27968528301403,304.50556942850693L495.5362788369926,299.25568917082217L496.3265869832466,286.16797977159234L496.357378209724,297.98305208442605L496.39843317836056,322.7046089410481L496.5523893107478,291.0238172063027L496.69608170097575,319.1391305679026L497.51718107370715,282.89409452571283L497.68140094825344,302.84572359713195L498.871995038714,320.8971959723707L499.42623711530774,295.7717221403682L499.805995575196,274.6482899500455L500.16522655076596,304.2907854456646L500.6065674636091,303.5618959987283L500.87342475974685,288.80474150989346L500.98632592349736,299.2402487013251L500.9965896656566,307.14425426614895L501.3660843833857,308.42452343557477L501.58162296872774,295.7006184999601L501.9203264599794,286.08857827069886L502.0640188502074,290.1829054829217L502.72089834839255,306.7333095109696L503.254612940668,266.460220110683L503.5933164319196,289.58660086075065L504.02439360260365,315.22515829284276L504.23993218794567,318.54128909010626L504.4965257419242,303.82206419810325L505.4818449892019,304.5795287206504L505.7384385431805,305.63044103623315L506.0360870657957,312.7423407727707L506.0976695187505,301.5780044487367L506.2003069403419,312.0766653874023L506.3234718462516,288.8553869921742L506.47742797863873,283.2195321135749L506.5082192051162,273.86025533930234L506.90850514932276,269.5454838759721L507.00087882875505,304.07138277670924L507.1343074768239,287.7048400364321L507.1856261876196,310.5526497559167L507.57564838966704,293.1916535562197L507.6885495534176,310.7993353818666L507.9040881387596,265.01499123784083L508.29411034080704,314.5253229565159L508.51991266830817,299.25205871187336L508.80729744876413,267.2791959747544L508.8791436438782,285.17750241865053L508.92019861251475,292.3626469544522L509.0433635184245,290.44913295307884L509.06389100274276,266.33572204623425L509.6181330793364,273.52401220653076L510.018419023543,295.0336857927066L510.44949619422704,310.38806585719664L510.5418698736593,263.2726493162831L510.7881996854787,295.82204285315834L511.01400201297986,318.1295347309824L511.29112305127677,290.3349811166886L511.58877157389185,291.3708241279064L512.2969697828727,290.5121103968751L512.5227721103738,313.08659411305035L513.3130802566279,302.0406014716177L513.3849264517419,298.15192989976856L513.467036389015,307.6747768279941L513.8057398802667,165.2570732193887L514.113652145041,292.56817500681166L514.257344535269,288.76103217601957L514.3599819568605,300.18010608958883L514.4318281519745,308.9143036648211L514.8321140961809,316.91530279791095L515.3966199149338,302.99464896683975L515.5711035316393,303.5533476017786L515.6634772110716,288.28472060150585L515.7353234061856,278.2769487479188L515.7866421169813,318.31198095168685L516.5974777475535,313.16148131802413L516.9259174966461,313.77345606811787L517.1722473084654,279.2418110671787L517.274884730057,284.9323292906141L517.5417420261947,313.2934977961808L517.9112367439238,273.00448309194326L518.3320501724486,261.6110822066078L518.3423139146079,320.1549260224206L518.5475887577907,299.1920227517494L518.8555010225649,313.0771850769505L519.6868641374555,312.16179211045903L519.8408202698427,291.08894276830114L520.0563588551847,303.5642691357919L520.3232161513224,312.18988467139803L520.4258535729138,278.85419404055443L520.6516559004149,299.57940548038397L520.9185131965527,308.57847345325894L522.4375470361058,306.0880389287407L522.7351955587209,312.1301085268666L523.0841627921318,303.6224724680759L523.392075056906,284.1596748350341L523.4228662833835,309.86543751375575L523.6999873216804,306.5996506271032L524.0284270707729,270.83642404294693L524.1413282345235,274.504110854465L524.613460373844,297.50418874962884L524.6545153424806,264.89708599405174L524.9213726386183,284.9663001793335L524.9521638650958,300.66386648434826L525.188229934756,310.32307716234067L525.2292849033926,300.9427390866011L525.2395486455517,320.6271130244034L525.7527357535089,304.49126101266285L525.9580105966917,270.1781997976063L526.0914392447606,303.71957158642635L526.409615251694,316.08475934051813L527.1178134606748,298.97186847340146L527.1486046871523,295.9575645220317L527.199923397948,243.87890463629424L527.271769593062,285.2226824943606L527.3230883038577,280.7529774257459L528.0415502549977,277.5121815513968L528.1441876765891,317.6353550350292L528.1544514187483,307.5127214917367L528.1647151609075,322.0181100318755L529.714540226938,295.65334366103565L530.0224524917122,291.83816742491473L530.1558811397811,295.0249309351522L530.2071998505769,310.8009081941141L530.361155982964,311.2025297451304L530.6485407634199,296.57347826209025L530.7511781850114,311.7629589374979L531.079617934104,275.5306886560717L531.2746290351276,262.6877997780028L531.4285851675148,309.78049637326507L531.9622997597903,284.27951013751033L532.1573108608139,312.22125740419233L532.1675746029731,267.6261750589732L532.2086295716097,289.07080659530527L532.4241681569516,295.5811543626161L532.5062780942249,306.559938277746L532.5473330628614,295.7409827080806L532.875772811954,306.07425478364576L533.235003787524,310.10286720922284L533.7995096062768,265.91530330105695L534.179268066165,318.5625475730497L534.3024329720748,254.37660518518038L534.4461253623028,295.8023409439878L534.7335101427587,303.5189568325036L534.743773884918,312.6293233098155L535.113268602647,274.47487696074467L535.6469831949225,290.2002760111059L535.7085656478773,287.31812308525326L535.7804118429914,299.5597151701238L535.9446317175376,324.6301150558627L535.9959504283333,307.436493452723L536.0062141704925,279.99780020832554L536.3962363725399,273.221053306984L536.5296650206087,303.4990252649076L536.8273135432239,290.83632777936526L537.7407865953876,307.9600079529169L537.8126327905017,298.75788481537535L537.9665889228887,248.3374701113805L538.1205450552759,325.71331873794185L538.3874023514137,294.99536299281294L538.8800619750525,302.5142476165263L539.0956005603945,300.91627733246145L539.1777104976676,278.1306261737002L539.2598204349407,310.16137211317675L539.5882601840333,277.33495484036314L539.6601063791474,295.91063765041855L539.7935350272162,298.98624184314366L539.9064361909667,288.3878488334715L540.0090736125582,309.79196537584824L540.0911835498314,312.922276989269L540.4196232989239,299.5310589021404L540.9430741490401,251.1910247638016L541.1586127343821,316.168208861134L541.5383711942704,292.4369263765221L541.8976021698404,309.3893138415902L543.2216249083698,288.74526229746766L545.1922634029253,320.3669042288421L546.0236265178158,281.4020292527585L546.1262639394073,307.7127678990509L546.4957586571363,302.91547248480765L546.6086598208869,316.57913041849264L546.6291873052053,296.3446758361634L546.6907697581601,299.8798566955067L547.1731656396398,249.2796078454249L547.2039568661172,288.639076592726L547.3168580298677,246.89241290241193L547.6555615211196,308.6091247338277L548.3021772771455,319.7379289558053L548.4150784408961,297.1984089950778L549.2567052979458,280.1263578914071L549.4927713676061,298.23957822594184L550.4370356462472,289.1955598357824L550.6525742315893,320.25977089312244L550.7346841688623,314.59736610866463L550.9194315277269,319.5264541420942L551.6173659945487,283.95687948596003L551.6789484475034,315.4664852221974L551.9868607122777,305.960761765365L552.3255642035294,313.2597913626182L552.3358279456886,307.665511618383L552.6745314369404,300.2571715699319L552.9003337644415,276.4466221317869L552.9208612487597,306.5938650906059L553.0029711860329,223.5749749005742L553.588004489104,279.7421416653061L553.9882904333106,256.13878588305107L553.9985541754697,300.22990949097607L554.6451699314957,290.68968971478427L554.6656974158141,313.31771864083515L554.8401810325195,317.8961205782887L555.1070383286572,321.30980633108055L555.7228628582056,309.34604294652866L555.7844453111607,317.53842758055237L556.1026213180941,268.91698995771594L556.1128850602531,285.6443168053456L556.2565774504811,320.8063092304195L556.5439622309372,304.3209240543946L559.1509527393595,281.378812873743L559.6333486208391,285.4572774161309L559.9309971434542,271.46357712716315L559.9720521120909,311.05998841569544L560.0849532758414,292.2530604491873L560.4544479935705,293.856438145271L560.4749754778888,289.51582430961525L560.4955029622072,312.46048029120414L560.9984263280052,296.72759066451977L561.2344923976653,294.09909662953714L561.2447561398245,316.4144189317584L561.4397672408483,280.24493587199817L561.6963607948268,253.80662545000646L561.9324268644872,298.79318493922415L562.0761192547151,296.7363455220742L562.9895923068788,284.82091479707344L563.4925156726767,297.93281952335474L563.8209554217694,276.7483840237825L563.8928016168834,306.30024099413254L564.7754834425697,282.29539588843943L565.2168243554128,287.2565931854724L565.9250225643935,279.1532185897005L566.1508248918947,303.24284477092107L566.6126932890562,311.48181758837484L567.6185400206522,280.310409401308L567.8751335746308,261.1462396346773L568.4499031355427,286.7831813385536L568.470430619861,314.7945568642434L568.5114855884976,269.2331808942236L568.5628042992932,292.60607560636754L568.7064966895213,307.9198594845295L568.9836177278182,287.36720967397906L570.1331568496421,280.40745980423486L570.2255305290744,308.6873431458624L570.4615965987347,301.0565081589488L570.6360802154401,318.02728337664144L570.9132012537369,294.2950393423591L571.2313772606705,299.65727592510734L571.3955971352167,299.09850769670624L571.4058608773759,243.72295960602474L571.5084982989673,261.3838781105312L572.8325210374967,307.24110516781724L572.8427847796557,318.02632530664414" style="fill: none;" fill="none"></path></g></g></g></g></g></g><g transform="translate(48, 377)" clip-path="url(#clip_1)"><clipPath id="clip_1"><rect width="869" height="23"></rect></clipPath><g><g><line x1="78.9104571130699" y1="0" x2="78.9104571130699" y2="5" style="visibility: inherit;" fill="rgb(0, 0, 0)" stroke="rgb(204, 204, 204)" stroke-width="1px"></line><line x1="181.54787870449746" y1="0" x2="181.54787870449746" y2="5" style="visibility: inherit;" fill="rgb(0, 0, 0)" stroke="rgb(204, 204, 204)" stroke-width="1px"></line><line x1="284.185300295925" y1="0" x2="284.185300295925" y2="5" style="visibility: inherit;" fill="rgb(0, 0, 0)" stroke="rgb(204, 204, 204)" stroke-width="1px"></line><line x1="386.82272188735254" y1="0" x2="386.82272188735254" y2="5" style="visibility: inherit;" fill="rgb(0, 0, 0)" stroke="rgb(204, 204, 204)" stroke-width="1px"></line><line x1="489.46014347878014" y1="0" x2="489.46014347878014" y2="5" style="visibility: inherit;" fill="rgb(0, 0, 0)" stroke="rgb(204, 204, 204)" stroke-width="1px"></line><line x1="592.0975650702077" y1="0" x2="592.0975650702077" y2="5" style="visibility: inherit;" fill="rgb(0, 0, 0)" stroke="rgb(204, 204, 204)" stroke-width="1px"></line><line x1="694.7349866616352" y1="0" x2="694.7349866616352" y2="5" style="visibility: inherit;" fill="rgb(0, 0, 0)" stroke="rgb(204, 204, 204)" stroke-width="1px"></line><line x1="797.3724082530628" y1="0" x2="797.3724082530628" y2="5" style="visibility: inherit;" fill="rgb(0, 0, 0)" stroke="rgb(204, 204, 204)" stroke-width="1px"></line></g><g transform="translate(0, 8)"><text x="78.9104571130699" y="0" dx="0em" dy="0.95em" style="text-anchor: middle; visibility: inherit; font-family: &quot;Helvetica Neue&quot;, sans-serif; font-size: 12px; font-weight: 200;" fill="rgb(50, 49, 63)" stroke="none" stroke-width="1px">-20k</text><text x="181.54787870449746" y="0" dx="0em" dy="0.95em" style="text-anchor: middle; visibility: inherit; font-family: &quot;Helvetica Neue&quot;, sans-serif; font-size: 12px; font-weight: 200;" fill="rgb(50, 49, 63)" stroke="none" stroke-width="1px">-10k</text><text x="284.185300295925" y="0" dx="0em" dy="0.95em" style="text-anchor: middle; visibility: inherit; font-family: &quot;Helvetica Neue&quot;, sans-serif; font-size: 12px; font-weight: 200;" fill="rgb(50, 49, 63)" stroke="none" stroke-width="1px">0</text><text x="386.82272188735254" y="0" dx="0em" dy="0.95em" style="text-anchor: middle; visibility: inherit; font-family: &quot;Helvetica Neue&quot;, sans-serif; font-size: 12px; font-weight: 200;" fill="rgb(50, 49, 63)" stroke="none" stroke-width="1px">10k</text><text x="489.46014347878014" y="0" dx="0em" dy="0.95em" style="text-anchor: middle; visibility: inherit; font-family: &quot;Helvetica Neue&quot;, sans-serif; font-size: 12px; font-weight: 200;" fill="rgb(50, 49, 63)" stroke="none" stroke-width="1px">20k</text><text x="592.0975650702077" y="0" dx="0em" dy="0.95em" style="text-anchor: middle; visibility: inherit; font-family: &quot;Helvetica Neue&quot;, sans-serif; font-size: 12px; font-weight: 200;" fill="rgb(50, 49, 63)" stroke="none" stroke-width="1px">30k</text><text x="694.7349866616352" y="0" dx="0em" dy="0.95em" style="text-anchor: middle; visibility: inherit; font-family: &quot;Helvetica Neue&quot;, sans-serif; font-size: 12px; font-weight: 200;" fill="rgb(50, 49, 63)" stroke="none" stroke-width="1px">40k</text><text x="797.3724082530628" y="0" dx="0em" dy="0.95em" style="text-anchor: middle; visibility: inherit; font-family: &quot;Helvetica Neue&quot;, sans-serif; font-size: 12px; font-weight: 200;" fill="rgb(50, 49, 63)" stroke="none" stroke-width="1px">50k</text></g><line x1="0" y1="0" x2="869.9375" y2="0" fill="rgb(0, 0, 0)" stroke="rgb(204, 204, 204)" stroke-width="1px"></line></g></g></g></g></svg>