<svg viewBox="0 0 330 200" xmlns="http://www.w3.org/2000/svg"><g><g><g><g><g><line x1="48.8125" y1="156.41139892551223" x2="43.8125" y2="156.41139892551223" style="visibility: inherit;" fill="rgb(0, 0, 0)" stroke="rgb(204, 204, 204)" stroke-width="1px"></line><line x1="48.8125" y1="134.10160086096928" x2="43.8125" y2="134.10160086096928" style="visibility: inherit;" fill="rgb(0, 0, 0)" stroke="rgb(204, 204, 204)" stroke-width="1px"></line><line x1="48.8125" y1="111.79180279642638" x2="43.8125" y2="111.79180279642638" style="visibility: inherit;" fill="rgb(0, 0, 0)" stroke="rgb(204, 204, 204)" stroke-width="1px"></line><line x1="48.8125" y1="89.4820047318835" x2="43.8125" y2="89.4820047318835" style="visibility: inherit;" fill="rgb(0, 0, 0)" stroke="rgb(204, 204, 204)" stroke-width="1px"></line><line x1="48.8125" y1="67.17220666734059" x2="43.8125" y2="67.17220666734059" style="visibility: inherit;" fill="rgb(0, 0, 0)" stroke="rgb(204, 204, 204)" stroke-width="1px"></line><line x1="48.8125" y1="44.8624086027977" x2="43.8125" y2="44.8624086027977" style="visibility: inherit;" fill="rgb(0, 0, 0)" stroke="rgb(204, 204, 204)" stroke-width="1px"></line><line x1="48.8125" y1="22.552610538254783" x2="43.8125" y2="22.552610538254783" style="visibility: inherit;" fill="rgb(0, 0, 0)" stroke="rgb(204, 204, 204)" stroke-width="1px"></line><line x1="48.8125" y1="0.2428124737118651" x2="43.8125" y2="0.2428124737118651" style="visibility: inherit;" fill="rgb(0, 0, 0)" stroke="rgb(204, 204, 204)" stroke-width="1px"></line></g><g transform="translate(38.8125, 0)"><text x="0" y="156.41139892551223" dx="0em" dy="0.3em" style="text-anchor: end; visibility: inherit; font-family: &quot;Helvetica Neue&quot;, sans-serif; font-size: 12px; font-weight: 200;" fill="rgb(50, 49, 63)" stroke="none" stroke-width="1px">0.7</text><text x="0" y="134.10160086096928" dx="0em" dy="0.3em" style="text-anchor: end; visibility: hidden; font-family: &quot;Helvetica Neue&quot;, sans-serif; font-size: 12px; font-weight: 200;" fill="rgb(50, 49, 63)" stroke="none" stroke-width="1px">0.75</text><text x="0" y="111.79180279642638" dx="0em" dy="0.3em" style="text-anchor: end; visibility: inherit; font-family: &quot;Helvetica Neue&quot;, sans-serif; font-size: 12px; font-weight: 200;" fill="rgb(50, 49, 63)" stroke="none" stroke-width="1px">0.8</text><text x="0" y="89.4820047318835" dx="0em" dy="0.3em" style="text-anchor: end; visibility: hidden; font-family: &quot;Helvetica Neue&quot;, sans-serif; font-size: 12px; font-weight: 200;" fill="rgb(50, 49, 63)" stroke="none" stroke-width="1px">0.85</text><text x="0" y="67.17220666734059" dx="0em" dy="0.3em" style="text-anchor: end; visibility: inherit; font-family: &quot;Helvetica Neue&quot;, sans-serif; font-size: 12px; font-weight: 200;" fill="rgb(50, 49, 63)" stroke="none" stroke-width="1px">0.9</text><text x="0" y="44.8624086027977" dx="0em" dy="0.3em" style="text-anchor: end; visibility: hidden; font-family: &quot;Helvetica Neue&quot;, sans-serif; font-size: 12px; font-weight: 200;" fill="rgb(50, 49, 63)" stroke="none" stroke-width="1px">0.95</text><text x="0" y="22.552610538254783" dx="0em" dy="0.3em" style="text-anchor: end; visibility: inherit; font-family: &quot;Helvetica Neue&quot;, sans-serif; font-size: 12px; font-weight: 200;" fill="rgb(50, 49, 63)" stroke="none" stroke-width="1px">1</text><text x="0" y="0.2428124737118651" dx="0em" dy="0.3em" style="text-anchor: end; visibility: hidden; font-family: &quot;Helvetica Neue&quot;, sans-serif; font-size: 12px; font-weight: 200;" fill="rgb(50, 49, 63)" stroke="none" stroke-width="1px">1.05</text></g><line x1="48.8125" y1="0" x2="48.8125" y2="177" fill="rgb(0, 0, 0)" stroke="rgb(204, 204, 204)" stroke-width="1px"></line></g></g><g transform="translate(48, 0)" clip-path="url(#clip_0)"><clipPath id="clip_0"><rect width="281" height="177"></rect></clipPath><g><g><g><line x1="24.27240050462528" y1="0" x2="24.27240050462528" y2="177" fill="rgb(0, 0, 0)" stroke="rgb(60, 60, 60)" stroke-width="1px" opacity="0.25"></line><line x1="50.048410132868355" y1="0" x2="50.048410132868355" y2="177" fill="rgb(0, 0, 0)" stroke="rgb(60, 60, 60)" stroke-width="1px" opacity="0.25"></line><line x1="75.82441976111143" y1="0" x2="75.82441976111143" y2="177" fill="rgb(0, 0, 0)" stroke="rgb(60, 60, 60)" stroke-width="1px" opacity="0.25"></line><line x1="101.60042938935449" y1="0" x2="101.60042938935449" y2="177" fill="rgb(0, 0, 0)" stroke="rgb(60, 60, 60)" stroke-width="1px" opacity="0.25"></line><line x1="127.37643901759756" y1="0" x2="127.37643901759756" y2="177" fill="rgb(0, 0, 0)" stroke="rgb(60, 60, 60)" stroke-width="1px" opacity="0.25"></line><line x1="153.15244864584062" y1="0" x2="153.15244864584062" y2="177" fill="rgb(0, 0, 0)" stroke="rgb(60, 60, 60)" stroke-width="1px" opacity="0.25"></line><line x1="178.9284582740837" y1="0" x2="178.9284582740837" y2="177" fill="rgb(0, 0, 0)" stroke="rgb(60, 60, 60)" stroke-width="1px" opacity="0.25"></line><line x1="204.70446790232677" y1="0" x2="204.70446790232677" y2="177" fill="rgb(0, 0, 0)" stroke="rgb(60, 60, 60)" stroke-width="1px" opacity="0.25"></line><line x1="230.48047753056989" y1="0" x2="230.48047753056989" y2="177" fill="rgb(0, 0, 0)" stroke="rgb(60, 60, 60)" stroke-width="1px" opacity="0.25"></line><line x1="256.25648715881294" y1="0" x2="256.25648715881294" y2="177" fill="rgb(0, 0, 0)" stroke="rgb(60, 60, 60)" stroke-width="1px" opacity="0.25"></line></g><g><line x1="0" y1="156.41139892551223" x2="281.1875" y2="156.41139892551223" fill="rgb(0, 0, 0)" stroke="rgb(60, 60, 60)" stroke-width="1px" opacity="0.25"></line><line x1="0" y1="134.10160086096928" x2="281.1875" y2="134.10160086096928" fill="rgb(0, 0, 0)" stroke="rgb(60, 60, 60)" stroke-width="1px" opacity="0.25"></line><line x1="0" y1="111.79180279642638" x2="281.1875" y2="111.79180279642638" fill="rgb(0, 0, 0)" stroke="rgb(60, 60, 60)" stroke-width="1px" opacity="0.25"></line><line x1="0" y1="89.4820047318835" x2="281.1875" y2="89.4820047318835" fill="rgb(0, 0, 0)" stroke="rgb(60, 60, 60)" stroke-width="1px" opacity="0.25"></line><line x1="0" y1="67.17220666734059" x2="281.1875" y2="67.17220666734059" fill="rgb(0, 0, 0)" stroke="rgb(60, 60, 60)" stroke-width="1px" opacity="0.25"></line><line x1="0" y1="44.8624086027977" x2="281.1875" y2="44.8624086027977" fill="rgb(0, 0, 0)" stroke="rgb(60, 60, 60)" stroke-width="1px" opacity="0.25"></line><line x1="0" y1="22.552610538254783" x2="281.1875" y2="22.552610538254783" fill="rgb(0, 0, 0)" stroke="rgb(60, 60, 60)" stroke-width="1px" opacity="0.25"></line><line x1="0" y1="0.2428124737118651" x2="281.1875" y2="0.2428124737118651" fill="rgb(0, 0, 0)" stroke="rgb(60, 60, 60)" stroke-width="1px" opacity="0.25"></line></g></g></g><g><g><line x1="0" y1="468.74857182911285" x2="281.1875" y2="468.74857182911285" fill="rgb(0, 0, 0)" stroke="rgb(153, 153, 153)" stroke-width="1.5px"></line></g></g><g><g><line x1="24.27240050462528" y1="0" x2="24.27240050462528" y2="177" fill="rgb(0, 0, 0)" stroke="rgb(153, 153, 153)" stroke-width="1.5px"></line></g></g><g><g><g><g><g><path stroke="rgb(255, 112, 67)" stroke-width="2px" d="M26.10249718823054,203.81971981266585L26.46336132302594,161.98884844164792L26.514913342282426,134.10160086096928L27.043321539661413,106.21435328029068L27.326857645572083,134.10160086096928L27.674833775553367,217.76334360300518L28.138801948861744,78.32710569961205L28.667210146240723,106.21435328029068L28.98941026659376,92.27072948995136L29.45337843990214,78.32710569961205L30.13644269505058,120.15797707062998L30.883946974269627,134.10160086096928L31.360803152392123,64.38348190927273L31.386579162020368,92.27072948995136L31.528347214975707,78.32710569961205L31.850547335328745,64.38348190927273L32.366067527893605,134.10160086096928L32.778483681945495,106.21435328029068L32.81714769638786,64.38348190927273L32.88158772045846,78.32710569961205L33.29400387451036,106.21435328029068L33.83530007670346,64.38348190927273L33.87396409114582,92.27072948995136L34.77612442813433,106.21435328029068L35.11121255330149,78.32710569961205L35.214316591814466,78.32710569961205L35.56229272179574,78.32710569961205L35.652508755494594,120.15797707062998L35.69117276993696,161.98884844164792L35.88449284214879,134.10160086096928L35.92315685659115,92.27072948995136L36.25824498175831,148.04522465130862L37.263509357259785,78.32710569961205L37.6888135161258,148.04522465130862L37.8692455835235,92.27072948995136L38.07545366054945,50.439858118933415L38.32032575201775,92.27072948995136L38.874509959024984,106.21435328029068L39.17093406974978,92.27072948995136L39.866886329712344,106.21435328029068L39.93132635378294,92.27072948995136L40.16331044043714,78.32710569961205L40.34374250783484,64.38348190927273L40.53706258004666,106.21435328029068L40.75615866188673,78.32710569961205L41.11702279668213,78.32710569961205L42.006295128856515,50.439858118933415L42.5347033262355,120.15797707062998L42.59914335030611,106.21435328029068L42.63780736474847,106.21435328029068L44.85454419277737,120.15797707062998L45.138080298688045,64.38348190927273L45.17674431313041,36.49623432859411L45.42161640459872,50.439858118933415L45.62782448162467,92.27072948995136L46.18200868863189,78.32710569961205L46.43976878491432,106.21435328029068L46.72330489082499,78.32710569961205L46.916624963036824,22.552610538254783L47.238825083389855,92.27072948995136L47.27748909783222,92.27072948995136L47.457921165229926,64.38348190927273L47.61257722299938,92.27072948995136L47.651241237441745,92.27072948995136L48.32141748777607,78.32710569961205L48.45029753591728,64.38348190927273L48.59206558887262,78.32710569961205L49.2364658295787,134.10160086096928L49.31379385846342,64.38348190927273L49.58444195955998,78.32710569961205L49.790650036585916,50.439858118933415L50.37061025322139,50.439858118933415L51.47897866723584,134.10160086096928L53.79881953377772,64.38348190927273L54.069467634874265,36.49623432859411L55.190724053702844,78.32710569961205L55.422708140357024,78.32710569961205L56.06710838106311,50.439858118933415L56.582628573627964,106.21435328029068L56.81461266028215,106.21435328029068L57.07237275656458,92.27072948995136L57.63944496838593,120.15797707062998L57.665220978014176,36.49623432859411L57.70388499245654,106.21435328029068L57.76832501652715,78.32710569961205L58.01319710799545,64.38348190927273L58.42561326204734,106.21435328029068L58.928245449798084,50.439858118933415L59.57264569050417,78.32710569961205L60.294373960094966,78.32710569961205L60.8485581671022,64.38348190927273L61.196534297083474,50.439858118933415L61.338302350038816,36.49623432859411L61.91826256667429,64.38348190927273L62.57555081219448,36.49623432859411L63.34883110104177,64.38348190927273L63.60659119732421,78.32710569961205L64.23810343321615,64.38348190927273L64.65051958726805,64.38348190927273L65.15315177501878,78.32710569961205L66.46772826605918,64.38348190927273L66.49350427568743,92.27072948995136L66.80281639122634,78.32710569961205L66.85436841048283,64.38348190927273L67.03480047788054,78.32710569961205L67.04768848269465,64.38348190927273L67.20234454046411,106.21435328029068L67.62764869933012,92.27072948995136L68.5040330266904,78.32710569961205L68.72312910853044,64.38348190927273L68.85200915667167,106.21435328029068L69.27731331553768,78.32710569961205L69.2902013203518,92.27072948995136L70.29546569585328,50.439858118933415L70.81098588841813,92.27072948995136L70.91408992693111,78.32710569961205L71.4940501435666,36.49623432859411L72.46065050462569,92.27072948995136L72.51220252388218,50.439858118933415L72.5250905286963,106.21435328029068L72.62819456720928,36.49623432859411L72.83440264423523,78.32710569961205L72.84729064904934,50.439858118933415L73.15660276458827,64.38348190927273L73.85255502455082,64.38348190927273L73.9556590630638,120.15797707062998L74.04587509676266,120.15797707062998L74.11031512083326,64.38348190927273L75.43777961668778,64.38348190927273L75.8115317562973,36.49623432859411L76.08217985739384,36.49623432859411L77.24210029066478,64.38348190927273L77.9122765409991,78.32710569961205L78.46646074800634,22.552610538254783L78.55667678170519,64.38348190927273L78.98198094057119,64.38348190927273L79.36862108499484,134.10160086096928L79.42017310425133,120.15797707062998L80.34810945086808,78.32710569961205L81.36626183118369,64.38348190927273L81.57246990820963,36.49623432859411L81.86889401893443,64.38348190927273L82.1524301248451,22.552610538254783L82.55195827408286,120.15797707062998L83.14480649553246,134.10160086096928L83.87942276993738,64.38348190927273L84.07274284214921,64.38348190927273L84.42071897213049,64.38348190927273L84.71714308285529,64.38348190927273L84.9104631550671,22.552610538254783L85.30999130430487,22.552610538254783L85.70951945354264,22.552610538254783L85.91572753056857,64.38348190927273L87.07564796383951,78.32710569961205L87.21741601679486,50.439858118933415L87.9649202960139,50.439858118933415L88.89285664263066,50.439858118933415L89.09906471965661,106.21435328029068L89.31816080149667,64.38348190927273L89.39548883038141,64.38348190927273L89.42126484000964,78.32710569961205L89.44704084963787,64.38348190927273L89.56303289296497,36.49623432859411L89.97544904701687,50.439858118933415L90.15588111441457,64.38348190927273L90.24609714811342,92.27072948995136L90.5940732780947,78.32710569961205L90.64562529735119,78.32710569961205L90.81316935993476,64.38348190927273L91.30291354287138,22.552610538254783L91.76688171617977,92.27072948995136L93.171674240919,78.32710569961205L93.71297044311211,64.38348190927273L93.72585844792624,50.439858118933415L94.17693861642049,50.439858118933415L94.57646676565825,36.49623432859411L94.93733090045365,22.552610538254783L95.09198695822312,78.32710569961205L95.18220299192197,92.27072948995136L95.36263505931967,106.21435328029068L95.45285109301852,64.38348190927273L95.76216320855742,64.38348190927273L95.94259527595513,36.49623432859411L96.0972513337246,92.27072948995136L96.3936754444494,64.38348190927273L96.45811546852,50.439858118933415L96.9994116707131,64.38348190927273L97.4762678488356,78.32710569961205L97.55359587772033,78.32710569961205L98.3139881617535,64.38348190927273L98.55886025322181,78.32710569961205L98.6748522965489,64.38348190927273L98.76506833024776,78.32710569961205L99.48679659983856,50.439858118933415L100.14408484535876,78.32710569961205L100.78848508606484,120.15797707062998L102.74746181781131,92.27072948995136L102.82478984669605,106.21435328029068L103.05677393335021,78.32710569961205L103.1598779718632,64.38348190927273L103.99759828478109,78.32710569961205L104.07492631366583,64.38348190927273L104.11359032810819,64.38348190927273L104.2424703762494,92.27072948995136L104.29402239550589,64.38348190927273L104.31979840513414,106.21435328029068L104.38423842920474,22.552610538254783L105.77614294912986,64.38348190927273L105.87924698764284,64.38348190927273L105.89213499245696,36.49623432859411L106.09834306948291,92.27072948995136L108.07020780604351,92.27072948995136L108.39240792639653,64.38348190927273L109.6296563885522,64.38348190927273L109.71987242225106,64.38348190927273L110.4029366773995,50.439858118933415L110.86690485070788,92.27072948995136L111.49841708659983,78.32710569961205L112.8645455968967,64.38348190927273L112.87743360171083,50.439858118933415L113.31562576539098,36.49623432859411L113.9342499964688,92.27072948995136L113.98580201572528,64.38348190927273L114.08890605423827,64.38348190927273L114.60442624680311,50.439858118933415L114.63020225643136,92.27072948995136L114.72041829013021,78.32710569961205L114.7719703093867,64.38348190927273L115.3648185308363,78.32710569961205L115.53236259341986,92.27072948995136L115.57102660786224,92.27072948995136L115.7901226897023,36.49623432859411L115.81589869933055,50.439858118933415L116.06077079079886,64.38348190927273L116.84693908446027,22.552610538254783L116.98870713741562,92.27072948995136L117.38823528665337,50.439858118933415L117.43978730590986,106.21435328029068L117.47845132035222,78.32710569961205L118.831691825835,50.439858118933415L118.98634788360444,106.21435328029068L119.25699598470099,78.32710569961205L119.29565999914335,64.38348190927273L119.3858760328422,50.439858118933415L119.83695620133648,106.21435328029068L121.51239682717227,22.552610538254783L121.8990369715959,50.439858118933415L122.1310210582501,50.439858118933415L122.56921322193023,92.27072948995136L122.87852533746914,92.27072948995136L123.05895740486685,78.32710569961205L123.75490966482941,36.49623432859411L125.0565981510557,50.439858118933415L125.34013425696635,64.38348190927273L126.42272666135257,50.439858118933415L126.51294269505142,50.439858118933415L126.57738271912203,36.49623432859411L127.82751918609182,36.49623432859411L129.52873582155587,78.32710569961205L129.59317584562646,64.38348190927273L130.18602406707606,64.38348190927273L130.97219236073747,64.38348190927273L131.771248659213,92.27072948995136L131.9001287073542,64.38348190927273L131.99034474105306,120.15797707062998L132.06767276993781,106.21435328029068L132.24810483733552,64.38348190927273L132.40276089510496,36.49623432859411L132.4929769288038,78.32710569961205L132.58319296250266,64.38348190927273L132.7894010395286,50.439858118933415L133.26625721765112,78.32710569961205L133.6271213524465,64.38348190927273L134.33596161722318,50.439858118933415L134.85148180978805,50.439858118933415L134.87725781941631,78.32710569961205L135.07057789162812,64.38348190927273L135.1350179156987,50.439858118933415L135.34122599272467,78.32710569961205L135.45721803605176,92.27072948995136L135.7794181564048,92.27072948995136L136.99089060893223,36.49623432859411L137.01666661856046,106.21435328029068L138.1250350325749,78.32710569961205L138.42145914329973,50.439858118933415L138.47301116255622,106.21435328029068L138.61477921551156,78.32710569961205L138.62766722032566,64.38348190927273L138.70499524921038,64.38348190927273L139.10452339844815,36.49623432859411L139.49116354287182,64.38348190927273L139.87780368729545,36.49623432859411L140.0840117643214,64.38348190927273L140.13556378357788,64.38348190927273L141.90122044311255,64.38348190927273L142.1847565490232,78.32710569961205L142.39096462604917,92.27072948995136L143.29312496303766,92.27072948995136L143.60243707857657,64.38348190927273L143.95041320855785,64.38348190927273L145.21343768034177,78.32710569961205L145.26498969959826,22.552610538254783L145.34231772848298,64.38348190927273L145.90938994030432,64.38348190927273L147.00487034950467,22.552610538254783L147.0306463591329,64.38348190927273L147.24974244097297,78.32710569961205L147.4559505179989,36.49623432859411L147.6234945805825,64.38348190927273L148.42255087905804,50.439858118933415L148.60298294645574,50.439858118933415L149.36337523048888,64.38348190927273L149.7113513604702,50.439858118933415L149.75001537491255,92.27072948995136L149.78867938935494,50.439858118933415L150.05932749045147,64.38348190927273L150.3815276108045,22.552610538254783L150.56195967820221,36.49623432859411L150.94859982262585,50.439858118933415L151.0259278515106,64.38348190927273L151.06459186595293,50.439858118933415L151.79920814035788,64.38348190927273L152.2245122992239,50.439858118933415L152.340504342551,36.49623432859411L152.4178323714357,64.38348190927273L152.5209364099487,50.439858118933415L153.7968488865467,50.439858118933415L154.0803849924574,78.32710569961205L154.60879318983638,106.21435328029068L154.7376732379776,22.552610538254783L154.85366528130467,64.38348190927273L155.13720138721536,92.27072948995136L155.26608143535657,64.38348190927273L155.45940150756837,36.49623432859411L155.91048167606266,36.49623432859411L156.12957775790272,64.38348190927273L156.2455698012298,50.439858118933415L157.0317380948912,22.552610538254783L157.10906612377593,78.32710569961205L157.36682622005836,50.439858118933415L157.53437028264196,78.32710569961205L157.99833845595032,78.32710569961205L158.0370024703927,78.32710569961205L158.2689865570469,64.38348190927273L158.60407468221405,50.439858118933415L159.5320110288308,64.38348190927273L160.04753122139567,50.439858118933415L160.189299274351,50.439858118933415L160.29240331286397,92.27072948995136L160.39550735137695,50.439858118933415L160.4470593706334,22.552610538254783L160.61460343321698,92.27072948995136L160.7950355006147,50.439858118933415L161.94206792907153,64.38348190927273L162.08383598202687,78.32710569961205L162.54780415533523,92.27072948995136L162.93444429975887,92.27072948995136L163.475740501952,78.32710569961205L163.55306853083673,78.32710569961205L163.97837268970272,64.38348190927273L164.1459167522863,78.32710569961205L164.21035677635692,92.27072948995136L164.62277293040881,50.439858118933415L164.75165297855003,36.49623432859411L165.17695713741603,50.439858118933415L165.18984514223013,64.38348190927273L165.61514930109618,50.439858118933415L165.82135737812212,78.32710569961205L165.84713338775038,36.49623432859411L166.0662294695904,64.38348190927273L166.28532555143047,64.38348190927273L166.3111015610587,64.38348190927273L166.60752567178352,106.21435328029068L166.63330168141178,78.32710569961205L166.94261379695067,36.49623432859411L166.9555018017648,50.439858118933415L167.53546201840027,36.49623432859411L167.87055014356744,64.38348190927273L168.42473435057465,50.439858118933415L168.43762235538878,64.38348190927273L168.47628636983114,78.32710569961205L168.78559848537006,50.439858118933415L168.82426249981242,36.49623432859411L169.13357461535134,78.32710569961205L169.26245466349255,64.38348190927273L169.61043079347382,64.38348190927273L170.44815110639172,50.439858118933415L170.9121192797001,64.38348190927273L171.16987937598253,36.49623432859411L171.47919149152148,50.439858118933415L172.36846382369586,64.38348190927273L172.5360078862794,22.552610538254783L173.7217043291786,64.38348190927273L173.74748033880687,50.439858118933415L173.7861443532492,36.49623432859411L173.91502440139044,64.38348190927273L174.05679245434575,64.38348190927273L174.52076062765414,78.32710569961205L174.71408069986597,78.32710569961205L174.73985670949423,92.27072948995136L174.86873675763542,78.32710569961205L175.3327049309438,22.552610538254783L176.05443320053462,50.439858118933415L176.44107334495826,64.38348190927273L176.73749745568304,64.38348190927273L177.58810577341507,36.49623432859411L177.63965779267153,106.21435328029068L178.12940197560818,78.32710569961205L178.3742740670765,106.21435328029068L179.00578630296846,50.439858118933415L180.11415471698288,78.32710569961205L180.23014676030996,50.439858118933415L180.88743500583018,50.439858118933415L181.29985115988205,64.38348190927273L181.45450721765152,106.21435328029068L182.3308915450118,64.38348190927273L182.562875631666,64.38348190927273L182.5757636364801,78.32710569961205L182.7948597183202,92.27072948995136L182.8592997423908,64.38348190927273L183.09128382904495,50.439858118933415L183.9676681564052,50.439858118933415L184.21254024787353,22.552610538254783L184.45741233934186,92.27072948995136L185.14047659449028,50.439858118933415L185.35957267633037,22.552610538254783L185.52711673891395,92.27072948995136L185.93953289296584,50.439858118933415L186.14574096999178,50.439858118933415L186.62259714811427,64.38348190927273L186.71281318181312,64.38348190927273L186.80302921551197,50.439858118933415L186.94479726846728,36.49623432859411L186.95768527328144,22.552610538254783L187.65363753324397,64.38348190927273L187.7825175813852,64.38348190927273L187.87273361508406,36.49623432859411L187.88562161989816,64.38348190927273L188.9811020290985,36.49623432859411L189.12287008205385,64.38348190927273L189.43218219759274,64.38348190927273L189.7543823179458,78.32710569961205L189.84459835164463,50.439858118933415L189.90903837571528,92.27072948995136L190.21835049125417,36.49623432859411L190.45033457790836,50.439858118933415L190.56632662123548,78.32710569961205L190.68231866456256,64.38348190927273L191.77779907376288,50.439858118933415L192.16443921818654,78.32710569961205L192.25465525188537,78.32710569961205L192.37064729521248,64.38348190927273L193.15681558887388,78.32710569961205L193.20836760813037,106.21435328029068L193.27280763220097,78.32710569961205L193.58211974773988,22.552610538254783L193.72388780069522,50.439858118933415L193.7754398199517,78.32710569961205L194.11052794511886,36.49623432859411L194.12341594993302,36.49623432859411L194.26518400288833,106.21435328029068L194.93536025322265,106.21435328029068L195.76019256132642,36.49623432859411L195.78596857095468,64.38348190927273L195.9148486190959,36.49623432859411L196.3143767683337,50.439858118933415L196.9201129945974,78.32710569961205L197.21653710532217,50.439858118933415L197.86093734602827,22.552610538254783L198.29912950970837,50.439858118933415L199.09818580818393,134.10160086096928L199.49771395742167,92.27072948995136L200.30965826071133,36.49623432859411L200.56741835699376,64.38348190927273L200.67052239550674,92.27072948995136L201.22470660251395,78.32710569961205L201.27625862177044,50.439858118933415L201.57268273249525,64.38348190927273L201.6113467469376,78.32710569961205L201.92065886247653,78.32710569961205L201.9593228769189,64.38348190927273L202.11397893468833,50.439858118933415L203.54454746905586,106.21435328029068L203.5703234786841,64.38348190927273L203.8280835749665,50.439858118933415L204.83334795046798,36.49623432859411L206.25102848002135,78.32710569961205L206.65055662925914,22.552610538254783L206.98564475442632,92.27072948995136L207.8233650673442,64.38348190927273L208.05534915399838,64.38348190927273L208.21000521176782,92.27072948995136L208.2486692262102,92.27072948995136L208.93173348135863,64.38348190927273L208.98328550061512,50.439858118933415L209.70501377020597,50.439858118933415L209.96277386648836,106.21435328029068L210.50407006868147,64.38348190927273L210.90359821791924,50.439858118933415L210.95515023717573,64.38348190927273L210.9938142516181,64.38348190927273L211.08403028531694,64.38348190927273L211.21291033345818,36.49623432859411L211.74131853083716,50.439858118933415L212.0119666319337,50.439858118933415L212.03774264156195,92.27072948995136L212.08929466081844,50.439858118933415L212.88835095929397,64.38348190927273L213.40387115185885,106.21435328029068L213.41675915667295,50.439858118933415L213.62296723369892,78.32710569961205L213.71318326739777,64.38348190927273L213.98383136849432,78.32710569961205L214.35758350810383,64.38348190927273L214.6282316092004,50.439858118933415L214.78288766696983,50.439858118933415L215.24685584027822,64.38348190927273L215.38862389323356,120.15797707062998L215.82681605691369,50.439858118933415L216.6774243746457,78.32710569961205L216.7289763939022,50.439858118933415L217.48936867793537,36.49623432859411L217.96622485605786,92.27072948995136L218.00488887050025,50.439858118933415L218.89416120267464,64.38348190927273L218.93282521711697,50.439858118933415L219.10036927970057,50.439858118933415L219.68032949633604,50.439858118933415L219.74476952040663,78.32710569961205L219.77054553003487,64.38348190927273L219.80920954447726,50.439858118933415L219.93808959261847,50.439858118933415L219.96386560224673,64.38348190927273L220.72425788627987,78.32710569961205L220.80158591516462,36.49623432859411L220.81447391997872,50.439858118933415L220.95624197293404,64.38348190927273L221.5104261799413,50.439858118933415L221.54909019438364,36.49623432859411L222.15482642064737,50.439858118933415L222.1806024302756,64.38348190927273L222.8250026709817,50.439858118933415L222.94099471430877,78.32710569961205L222.9538827191229,64.38348190927273L223.04409875282175,50.439858118933415L223.22453082021946,50.439858118933415L223.7400510127843,64.38348190927273L223.9720350994385,92.27072948995136L224.06225113313735,92.27072948995136L224.22979519572095,36.49623432859411L224.48755529200338,50.439858118933415L224.65509935458695,78.32710569961205L224.74531538828577,50.439858118933415L225.0417394990106,36.49623432859411L225.0546275038247,50.439858118933415L225.10617952308118,78.32710569961205L225.42837964343423,78.32710569961205L225.78924377822963,36.49623432859411L225.86657180711435,78.32710569961205L225.91812382637085,36.49623432859411L226.11144389858268,106.21435328029068L226.5367480574487,36.49623432859411L226.67851611040402,50.439858118933415L227.206924307783,64.38348190927273L227.5549004377643,64.38348190927273L227.90287656774558,64.38348190927273L227.9157645725597,50.439858118933415L228.28951671216922,64.38348190927273L228.9468049576894,50.439858118933415L229.30766909248482,36.49623432859411L229.66853322728022,64.38348190927273L229.81030128023556,92.27072948995136L230.18405341984507,36.49623432859411L230.1969414246592,64.38348190927273L230.72534962203818,50.439858118933415L231.35686185793014,50.439858118933415L231.73061399753965,50.439858118933415L233.04519048858006,64.38348190927273L233.0580784933942,78.32710569961205L233.07096649820832,36.49623432859411L233.1354065222789,78.32710569961205L233.27717457523426,50.439858118933415L233.5993746955873,106.21435328029068L233.62515070521553,92.27072948995136L233.94735082556858,50.439858118933415L234.3855429892487,64.38348190927273L234.9783912106983,50.439858118933415L235.5970154417761,64.38348190927273L236.03520760545626,64.38348190927273L236.07387161989863,36.49623432859411L236.08675962471276,64.38348190927273L236.46051176432226,50.439858118933415L236.74404787023295,78.32710569961205L237.00180796651537,78.32710569961205L237.20801604354133,92.27072948995136L237.53021616389435,106.21435328029068L238.40660049125464,78.32710569961205L238.70302460197942,78.32710569961205L238.94789669344772,78.32710569961205L240.3011371989305,22.552610538254783L240.73932936261062,50.439858118933415L240.86820941075183,92.27072948995136L241.56416167071438,134.10160086096928L241.628601694785,120.15797707062998L242.26011393067697,92.27072948995136L242.60809006065824,64.38348190927273L242.62097806547237,50.439858118933415L243.110722248409,36.49623432859411L243.74223448430095,50.439858118933415L244.25775467686577,106.21435328029068L244.28353068649403,78.32710569961205L244.90215491757186,50.439858118933415L245.00525895608484,64.38348190927273L246.50026751452293,92.27072948995136L246.6935875867348,36.49623432859411L246.74513960599126,50.439858118933415L246.92557167338893,78.32710569961205L247.18333176967138,92.27072948995136L248.05971609703167,36.49623432859411L248.098380111474,106.21435328029068L248.36902821257058,64.38348190927273L248.5494602799683,64.38348190927273L248.58812429441065,50.439858118933415L248.7041163377377,50.439858118933415L249.01342845327665,92.27072948995136L249.155196506232,106.21435328029068L249.3356285736297,50.439858118933415L249.38718059288618,36.49623432859411L249.63205268435448,64.38348190927273L250.04446883840637,64.38348190927273L250.54710102615712,50.439858118933415L250.62442905504184,78.32710569961205L250.72753309355483,64.38348190927273L251.30749331019027,64.38348190927273L251.74568547387042,36.49623432859411L252.13232561829406,92.27072948995136L252.26120566643525,36.49623432859411L252.6993978301154,22.552610538254783L253.15047799860963,36.49623432859411L253.31802206119323,50.439858118933415L253.39535009007798,92.27072948995136L253.5757821574757,64.38348190927273L254.23307040299588,36.49623432859411L255.44454285552328,92.27072948995136L255.5605348988504,36.49623432859411L255.9858390577164,92.27072948995136L256.4498072310248,64.38348190927273L256.8751113898908,64.38348190927273L257.1199834813591,50.439858118933415L257.210199515058,78.32710569961205L257.82882374613575,50.439858118933415L258.55055201572657,64.38348190927273L258.5763280253548,50.439858118933415L259.233616270875,50.439858118933415L260.34198468488944,36.49623432859411L260.4708647330307,22.552610538254783L260.9477209111532,50.439858118933415L261.03793694485205,78.32710569961205L261.0637129544803,36.49623432859411L262.6618255514313,22.552610538254783L263.44799384509275,64.38348190927273L263.5124338691634,78.32710569961205L263.7573059606317,78.32710569961205L263.91196201840114,36.49623432859411L263.92485002321524,50.439858118933415L264.00217805209996,22.552610538254783L264.2470501435683,78.32710569961205L264.63369028799195,50.439858118933415L264.64657829280605,78.32710569961205L264.6981303120626,92.27072948995136L264.83989836501786,148.04522465130862L264.94300240353084,50.439858118933415L265.4971866105381,64.38348190927273L265.99981879828886,78.32710569961205L266.20602687531476,22.552610538254783L266.65710704380905,50.439858118933415L266.96641915934794,50.439858118933415L267.75258745300937,50.439858118933415L268.15211560224714,50.439858118933415L268.1907796166895,78.32710569961205L269.06716394404975,36.49623432859411L269.1444919729345,92.27072948995136L269.5826841366146,22.552610538254783L269.71156418475584,50.439858118933415L269.9306602665959,50.439858118933415L270.2528603869489,50.439858118933415L270.38174043509014,78.32710569961205L270.62661252655846,64.38348190927273L270.96170065172566,50.439858118933415L271.11635670949505,50.439858118933415L271.39989281540574,22.552610538254783L272.9206773834721,64.38348190927273L274.0161577926724,50.439858118933415L274.4285739467243,64.38348190927273L275.0085341633598,50.439858118933415L275.33073428371284,78.32710569961205L275.66582240888,36.49623432859411L275.6787104136941,36.49623432859411L275.70448642332235,78.32710569961205L275.7431504377647,64.38348190927273L276.4906547169838,64.38348190927273L276.60664676031087,22.552610538254783L277.45725507804286,50.439858118933415L277.4959190924852,106.21435328029068L277.61191113581236,64.38348190927273L278.2563113765184,64.38348190927273L278.5140714728008,50.439858118933415L278.59139950168554,36.49623432859411L279.1842477231352,64.38348190927273L279.58377587237294,64.38348190927273L279.6997679157,92.27072948995136L279.802871954213,78.32710569961205L280.48593620936145,78.32710569961205L280.58904024787444,78.32710569961205L280.7308083008297,50.439858118933415L282.3804729170373,50.439858118933415" style="fill: none;" fill="none"></path></g></g></g></g></g></g><g transform="translate(48, 177)" clip-path="url(#clip_1)"><clipPath id="clip_1"><rect width="281" height="23"></rect></clipPath><g><g><line x1="24.27240050462528" y1="0" x2="24.27240050462528" y2="5" style="visibility: inherit;" fill="rgb(0, 0, 0)" stroke="rgb(204, 204, 204)" stroke-width="1px"></line><line x1="50.048410132868355" y1="0" x2="50.048410132868355" y2="5" style="visibility: inherit;" fill="rgb(0, 0, 0)" stroke="rgb(204, 204, 204)" stroke-width="1px"></line><line x1="75.82441976111143" y1="0" x2="75.82441976111143" y2="5" style="visibility: inherit;" fill="rgb(0, 0, 0)" stroke="rgb(204, 204, 204)" stroke-width="1px"></line><line x1="101.60042938935449" y1="0" x2="101.60042938935449" y2="5" style="visibility: inherit;" fill="rgb(0, 0, 0)" stroke="rgb(204, 204, 204)" stroke-width="1px"></line><line x1="127.37643901759756" y1="0" x2="127.37643901759756" y2="5" style="visibility: inherit;" fill="rgb(0, 0, 0)" stroke="rgb(204, 204, 204)" stroke-width="1px"></line><line x1="153.15244864584062" y1="0" x2="153.15244864584062" y2="5" style="visibility: inherit;" fill="rgb(0, 0, 0)" stroke="rgb(204, 204, 204)" stroke-width="1px"></line><line x1="178.9284582740837" y1="0" x2="178.9284582740837" y2="5" style="visibility: inherit;" fill="rgb(0, 0, 0)" stroke="rgb(204, 204, 204)" stroke-width="1px"></line><line x1="204.70446790232677" y1="0" x2="204.70446790232677" y2="5" style="visibility: inherit;" fill="rgb(0, 0, 0)" stroke="rgb(204, 204, 204)" stroke-width="1px"></line><line x1="230.48047753056989" y1="0" x2="230.48047753056989" y2="5" style="visibility: inherit;" fill="rgb(0, 0, 0)" stroke="rgb(204, 204, 204)" stroke-width="1px"></line><line x1="256.25648715881294" y1="0" x2="256.25648715881294" y2="5" style="visibility: inherit;" fill="rgb(0, 0, 0)" stroke="rgb(204, 204, 204)" stroke-width="1px"></line></g><g transform="translate(0, 8)"><text x="24.27240050462528" y="0" dx="0em" dy="0.95em" style="text-anchor: middle; visibility: inherit; font-family: &quot;Helvetica Neue&quot;, sans-serif; font-size: 12px; font-weight: 200;" fill="rgb(50, 49, 63)" stroke="none" stroke-width="1px">0</text><text x="50.048410132868355" y="0" dx="0em" dy="0.95em" style="text-anchor: middle; visibility: inherit; font-family: &quot;Helvetica Neue&quot;, sans-serif; font-size: 12px; font-weight: 200;" fill="rgb(50, 49, 63)" stroke="none" stroke-width="1px">2k</text><text x="75.82441976111143" y="0" dx="0em" dy="0.95em" style="text-anchor: middle; visibility: inherit; font-family: &quot;Helvetica Neue&quot;, sans-serif; font-size: 12px; font-weight: 200;" fill="rgb(50, 49, 63)" stroke="none" stroke-width="1px">4k</text><text x="101.60042938935449" y="0" dx="0em" dy="0.95em" style="text-anchor: middle; visibility: inherit; font-family: &quot;Helvetica Neue&quot;, sans-serif; font-size: 12px; font-weight: 200;" fill="rgb(50, 49, 63)" stroke="none" stroke-width="1px">6k</text><text x="127.37643901759756" y="0" dx="0em" dy="0.95em" style="text-anchor: middle; visibility: inherit; font-family: &quot;Helvetica Neue&quot;, sans-serif; font-size: 12px; font-weight: 200;" fill="rgb(50, 49, 63)" stroke="none" stroke-width="1px">8k</text><text x="153.15244864584062" y="0" dx="0em" dy="0.95em" style="text-anchor: middle; visibility: inherit; font-family: &quot;Helvetica Neue&quot;, sans-serif; font-size: 12px; font-weight: 200;" fill="rgb(50, 49, 63)" stroke="none" stroke-width="1px">10k</text><text x="178.9284582740837" y="0" dx="0em" dy="0.95em" style="text-anchor: middle; visibility: inherit; font-family: &quot;Helvetica Neue&quot;, sans-serif; font-size: 12px; font-weight: 200;" fill="rgb(50, 49, 63)" stroke="none" stroke-width="1px">12k</text><text x="204.70446790232677" y="0" dx="0em" dy="0.95em" style="text-anchor: middle; visibility: inherit; font-family: &quot;Helvetica Neue&quot;, sans-serif; font-size: 12px; font-weight: 200;" fill="rgb(50, 49, 63)" stroke="none" stroke-width="1px">14k</text><text x="230.48047753056989" y="0" dx="0em" dy="0.95em" style="text-anchor: middle; visibility: inherit; font-family: &quot;Helvetica Neue&quot;, sans-serif; font-size: 12px; font-weight: 200;" fill="rgb(50, 49, 63)" stroke="none" stroke-width="1px">16k</text><text x="256.25648715881294" y="0" dx="0em" dy="0.95em" style="text-anchor: middle; visibility: inherit; font-family: &quot;Helvetica Neue&quot;, sans-serif; font-size: 12px; font-weight: 200;" fill="rgb(50, 49, 63)" stroke="none" stroke-width="1px">18k</text></g><line x1="0" y1="0" x2="281.1875" y2="0" fill="rgb(0, 0, 0)" stroke="rgb(204, 204, 204)" stroke-width="1px"></line></g></g></g></g></svg>