<svg viewBox="0 0 330 200" xmlns="http://www.w3.org/2000/svg"><g><g><g><g><g><line x1="48.8125" y1="177" x2="43.8125" y2="177" style="visibility: inherit;" fill="rgb(0, 0, 0)" stroke="rgb(204, 204, 204)" stroke-width="1px"></line><line x1="48.8125" y1="159.3" x2="43.8125" y2="159.3" style="visibility: inherit;" fill="rgb(0, 0, 0)" stroke="rgb(204, 204, 204)" stroke-width="1px"></line><line x1="48.8125" y1="141.6" x2="43.8125" y2="141.6" style="visibility: inherit;" fill="rgb(0, 0, 0)" stroke="rgb(204, 204, 204)" stroke-width="1px"></line><line x1="48.8125" y1="123.89999999999999" x2="43.8125" y2="123.89999999999999" style="visibility: inherit;" fill="rgb(0, 0, 0)" stroke="rgb(204, 204, 204)" stroke-width="1px"></line><line x1="48.8125" y1="106.2" x2="43.8125" y2="106.2" style="visibility: inherit;" fill="rgb(0, 0, 0)" stroke="rgb(204, 204, 204)" stroke-width="1px"></line><line x1="48.8125" y1="88.5" x2="43.8125" y2="88.5" style="visibility: inherit;" fill="rgb(0, 0, 0)" stroke="rgb(204, 204, 204)" stroke-width="1px"></line><line x1="48.8125" y1="70.8" x2="43.8125" y2="70.8" style="visibility: inherit;" fill="rgb(0, 0, 0)" stroke="rgb(204, 204, 204)" stroke-width="1px"></line><line x1="48.8125" y1="53.10000000000001" x2="43.8125" y2="53.10000000000001" style="visibility: inherit;" fill="rgb(0, 0, 0)" stroke="rgb(204, 204, 204)" stroke-width="1px"></line><line x1="48.8125" y1="35.400000000000006" x2="43.8125" y2="35.400000000000006" style="visibility: inherit;" fill="rgb(0, 0, 0)" stroke="rgb(204, 204, 204)" stroke-width="1px"></line><line x1="48.8125" y1="17.69999999999999" x2="43.8125" y2="17.69999999999999" style="visibility: inherit;" fill="rgb(0, 0, 0)" stroke="rgb(204, 204, 204)" stroke-width="1px"></line><line x1="48.8125" y1="0" x2="43.8125" y2="0" style="visibility: inherit;" fill="rgb(0, 0, 0)" stroke="rgb(204, 204, 204)" stroke-width="1px"></line></g><g transform="translate(38.8125, 0)"><text x="0" y="177" dx="0em" dy="0.3em" style="text-anchor: end; visibility: hidden; font-family: &quot;Helvetica Neue&quot;, sans-serif; font-size: 12px; font-weight: 200;" fill="rgb(50, 49, 63)" stroke="none" stroke-width="1px">-0.1</text><text x="0" y="159.3" dx="0em" dy="0.3em" style="text-anchor: end; visibility: inherit; font-family: &quot;Helvetica Neue&quot;, sans-serif; font-size: 12px; font-weight: 200;" fill="rgb(50, 49, 63)" stroke="none" stroke-width="1px">0</text><text x="0" y="141.6" dx="0em" dy="0.3em" style="text-anchor: end; visibility: hidden; font-family: &quot;Helvetica Neue&quot;, sans-serif; font-size: 12px; font-weight: 200;" fill="rgb(50, 49, 63)" stroke="none" stroke-width="1px">0.1</text><text x="0" y="123.89999999999999" dx="0em" dy="0.3em" style="text-anchor: end; visibility: inherit; font-family: &quot;Helvetica Neue&quot;, sans-serif; font-size: 12px; font-weight: 200;" fill="rgb(50, 49, 63)" stroke="none" stroke-width="1px">0.2</text><text x="0" y="106.2" dx="0em" dy="0.3em" style="text-anchor: end; visibility: hidden; font-family: &quot;Helvetica Neue&quot;, sans-serif; font-size: 12px; font-weight: 200;" fill="rgb(50, 49, 63)" stroke="none" stroke-width="1px">0.3</text><text x="0" y="88.5" dx="0em" dy="0.3em" style="text-anchor: end; visibility: inherit; font-family: &quot;Helvetica Neue&quot;, sans-serif; font-size: 12px; font-weight: 200;" fill="rgb(50, 49, 63)" stroke="none" stroke-width="1px">0.4</text><text x="0" y="70.8" dx="0em" dy="0.3em" style="text-anchor: end; visibility: hidden; font-family: &quot;Helvetica Neue&quot;, sans-serif; font-size: 12px; font-weight: 200;" fill="rgb(50, 49, 63)" stroke="none" stroke-width="1px">0.5</text><text x="0" y="53.10000000000001" dx="0em" dy="0.3em" style="text-anchor: end; visibility: inherit; font-family: &quot;Helvetica Neue&quot;, sans-serif; font-size: 12px; font-weight: 200;" fill="rgb(50, 49, 63)" stroke="none" stroke-width="1px">0.6</text><text x="0" y="35.400000000000006" dx="0em" dy="0.3em" style="text-anchor: end; visibility: hidden; font-family: &quot;Helvetica Neue&quot;, sans-serif; font-size: 12px; font-weight: 200;" fill="rgb(50, 49, 63)" stroke="none" stroke-width="1px">0.7</text><text x="0" y="17.69999999999999" dx="0em" dy="0.3em" style="text-anchor: end; visibility: inherit; font-family: &quot;Helvetica Neue&quot;, sans-serif; font-size: 12px; font-weight: 200;" fill="rgb(50, 49, 63)" stroke="none" stroke-width="1px">0.8</text><text x="0" y="0" dx="0em" dy="0.3em" style="text-anchor: end; visibility: hidden; font-family: &quot;Helvetica Neue&quot;, sans-serif; font-size: 12px; font-weight: 200;" fill="rgb(50, 49, 63)" stroke="none" stroke-width="1px">0.9</text></g><line x1="48.8125" y1="0" x2="48.8125" y2="177" fill="rgb(0, 0, 0)" stroke="rgb(204, 204, 204)" stroke-width="1px"></line></g></g><g transform="translate(48, 0)" clip-path="url(#clip_0)"><clipPath id="clip_0"><rect width="281" height="177"></rect></clipPath><g><g><g><line x1="0" y1="0" x2="0" y2="177" fill="rgb(0, 0, 0)" stroke="rgb(60, 60, 60)" stroke-width="1px" opacity="0.25"></line><line x1="40.169642857142854" y1="0" x2="40.169642857142854" y2="177" fill="rgb(0, 0, 0)" stroke="rgb(60, 60, 60)" stroke-width="1px" opacity="0.25"></line><line x1="80.33928571428571" y1="0" x2="80.33928571428571" y2="177" fill="rgb(0, 0, 0)" stroke="rgb(60, 60, 60)" stroke-width="1px" opacity="0.25"></line><line x1="120.50892857142857" y1="0" x2="120.50892857142857" y2="177" fill="rgb(0, 0, 0)" stroke="rgb(60, 60, 60)" stroke-width="1px" opacity="0.25"></line><line x1="160.67857142857142" y1="0" x2="160.67857142857142" y2="177" fill="rgb(0, 0, 0)" stroke="rgb(60, 60, 60)" stroke-width="1px" opacity="0.25"></line><line x1="200.84821428571428" y1="0" x2="200.84821428571428" y2="177" fill="rgb(0, 0, 0)" stroke="rgb(60, 60, 60)" stroke-width="1px" opacity="0.25"></line><line x1="241.01785714285714" y1="0" x2="241.01785714285714" y2="177" fill="rgb(0, 0, 0)" stroke="rgb(60, 60, 60)" stroke-width="1px" opacity="0.25"></line><line x1="281.1875" y1="0" x2="281.1875" y2="177" fill="rgb(0, 0, 0)" stroke="rgb(60, 60, 60)" stroke-width="1px" opacity="0.25"></line></g><g><line x1="0" y1="177" x2="281.1875" y2="177" fill="rgb(0, 0, 0)" stroke="rgb(60, 60, 60)" stroke-width="1px" opacity="0.25"></line><line x1="0" y1="159.3" x2="281.1875" y2="159.3" fill="rgb(0, 0, 0)" stroke="rgb(60, 60, 60)" stroke-width="1px" opacity="0.25"></line><line x1="0" y1="141.6" x2="281.1875" y2="141.6" fill="rgb(0, 0, 0)" stroke="rgb(60, 60, 60)" stroke-width="1px" opacity="0.25"></line><line x1="0" y1="123.89999999999999" x2="281.1875" y2="123.89999999999999" fill="rgb(0, 0, 0)" stroke="rgb(60, 60, 60)" stroke-width="1px" opacity="0.25"></line><line x1="0" y1="106.2" x2="281.1875" y2="106.2" fill="rgb(0, 0, 0)" stroke="rgb(60, 60, 60)" stroke-width="1px" opacity="0.25"></line><line x1="0" y1="88.5" x2="281.1875" y2="88.5" fill="rgb(0, 0, 0)" stroke="rgb(60, 60, 60)" stroke-width="1px" opacity="0.25"></line><line x1="0" y1="70.8" x2="281.1875" y2="70.8" fill="rgb(0, 0, 0)" stroke="rgb(60, 60, 60)" stroke-width="1px" opacity="0.25"></line><line x1="0" y1="53.10000000000001" x2="281.1875" y2="53.10000000000001" fill="rgb(0, 0, 0)" stroke="rgb(60, 60, 60)" stroke-width="1px" opacity="0.25"></line><line x1="0" y1="35.400000000000006" x2="281.1875" y2="35.400000000000006" fill="rgb(0, 0, 0)" stroke="rgb(60, 60, 60)" stroke-width="1px" opacity="0.25"></line><line x1="0" y1="17.69999999999999" x2="281.1875" y2="17.69999999999999" fill="rgb(0, 0, 0)" stroke="rgb(60, 60, 60)" stroke-width="1px" opacity="0.25"></line><line x1="0" y1="0" x2="281.1875" y2="0" fill="rgb(0, 0, 0)" stroke="rgb(60, 60, 60)" stroke-width="1px" opacity="0.25"></line></g></g></g><g><g><line x1="0" y1="159.3" x2="281.1875" y2="159.3" fill="rgb(0, 0, 0)" stroke="rgb(153, 153, 153)" stroke-width="1.5px"></line></g></g><g><g><line x1="40.169642857142854" y1="0" x2="40.169642857142854" y2="177" fill="rgb(0, 0, 0)" stroke="rgb(153, 153, 153)" stroke-width="1.5px"></line></g></g><g><g><g><g><g><path stroke="rgb(255, 112, 67)" stroke-width="2px" d="M42.579821428571435,-7.245445024967211L42.9092125,5.118526804447185L43.110060714285716,12.255426871776592L43.399282142857146,24.07366715669633L43.82508035714286,5.118410754203808L44.291048214285716,-14.810391139984148L44.58830357142857,53.11971377134323L44.604371428571426,20.44114683866502L44.69274464285714,70.6577013015747L44.893592857142856,49.48759435415268L45.21495,13.788397836685192L45.47203571428572,27.78201048374177L45.4961375,54.95292781591415L45.53630714285714,51.01119689941406L45.79339285714286,46.83032863140107L46.13081785714285,63.083534467220304L46.154919642857145,40.364874172210705L46.71729464285714,29.5981756925583L46.92617678571428,42.34368907213212L46.99044821428571,65.04836003780365L47.207364285714284,39.91581248044969L47.263601785714286,41.38611631393434L47.28770357142857,16.249506998062145L47.4082125,31.81365923881532L47.432314285714284,36.735392260551464L47.641196428571426,22.200025427341473L48.26784285714286,51.963357496261594L48.532962500000004,29.12154679298402L48.6454375,45.60038595199586L48.77398035714286,63.37195097208023L48.926624999999994,66.9133929491043L49.272083928571426,27.44491617679597L49.45686428571428,39.56898050308229L49.89069642857143,40.303937244415295L49.930866071428575,57.042602348327634L50.07547678571429,83.52290468215942L50.18795178571428,47.25408082008363L50.308460714285715,59.73880820274353L50.4450375,29.13423846960069L50.6699875,78.29652394652366L51.22432857142857,81.7569364786148L51.55371964285714,36.206899452209484L51.59388928571428,29.45713244676591L51.61799107142858,7.161971139907848L52.99982678571428,64.43889580965042L53.17657321428571,107.37571873068809L53.200675000000004,100.53166090250015L53.35331964285714,79.75926341414451L53.481862500000005,67.41943531036377L53.82732142857142,72.57495682239532L53.988,45.70527427196504L54.164746428571426,80.7085649549961L54.28525535714285,114.63389657735826L54.48610357142857,82.13660012483597L54.51020535714286,39.00977658033372L54.622680357142855,93.57378416061401L54.7190875,90.73022614717483L54.74318928571429,53.43779693841934L55.16095357142857,74.83441813588142L55.24129285714286,67.08011494874954L55.32966607142857,81.63915075659752L55.731362499999996,28.17217140197755L55.77956607142857,80.62864326238632L55.948278571428574,86.0475302517414L56.07682142857143,98.00262014865875L56.43834821428571,101.69869379997253L57.12926607142857,-6.247961533069628L58.57537321428571,69.52214967012405L58.74408571428572,106.27238159179687L59.4430375,84.12024165987968L59.587648214285714,103.9349292397499L59.98934464285714,90.15894244909286L60.310701785714286,73.50033091306686L60.4553125,50.50781314373016L60.615991071428574,82.24618320465088L60.96948392857143,-18.967479658126848L60.985551785714286,110.03756843805313L61.00965357142857,54.20857100486755L61.04982321428571,49.45127062797546L61.20246785714286,91.67836718559265L61.45955357142857,71.7204683303833L61.77287678571429,101.53374420404434L62.174573214285715,78.06438125967979L62.624473214285715,79.01018546819687L62.96993214285714,75.90066139698028L63.18684821428572,94.027224111557L63.275221428571435,69.92628936767578L63.63674821428572,59.05630617141723L64.04647857142857,125.72695471644403L64.5285142857143,93.28021924495697L64.68919285714286,86.22710217833519L65.08285535714286,98.30796943902969L65.33994107142857,93.3268292427063L65.65326428571429,90.72499861121177L66.472725,96.90378259420395L66.48879285714285,94.10657610297203L66.68160714285715,72.5719395160675L66.71374285714286,90.66444148421287L66.82621785714285,93.85864003300667L66.83425178571429,84.80812947750091L66.93065892857143,65.08282696008682L67.19577857142858,90.98420737981796L67.74208571428572,88.21701570153236L67.8786625,113.11715154647828L67.95900178571428,33.843673396110546L68.22412142857142,84.68717347383499L68.23215535714286,76.22645663022995L68.85880178571429,96.3943800508976L69.18015892857143,96.53056501150131L69.24443035714286,83.4680656671524L69.60595714285715,105.68813191652298L70.20850178571429,69.00294088125229L70.2406375,90.83161185979843L70.24867142857143,63.05522875785827L70.31294285714286,86.6786484003067L70.4414857142857,82.47297175526619L70.44951964285714,64.1672432899475L70.64233392857142,104.98897140026092L71.07616607142857,87.44772391319275L71.1404375,48.82736341953279L71.196675,70.51921116113662L71.23684464285715,85.75047327876091L72.06433928571428,91.14760612249374L72.29732321428573,120.43997992873193L72.46603571428572,81.60191445350647L73.18908928571429,73.49625332951545L73.60685357142856,101.84734361171722L73.9523125,127.12529157400132L74.00855,114.19535325765611L74.27366964285714,109.26311768889427L74.51468750000001,76.53467025160789L74.54682321428571,83.4203795671463L75.12526607142857,67.35228441953659L75.75994642857142,102.59278180003166L75.88848928571429,115.600310254097L76.07326964285714,98.38653545379638L76.25001607142858,135.64675544500352L76.49906785714285,30.81328504085542L76.86862857142857,59.87194948196411L77.32656250000001,93.74620317220688L77.44707142857142,101.87609242200851L77.6639875,101.81459634304046L77.84876785714286,89.76491494774818L77.96927678571429,131.69259132742883L78.21832857142857,114.49377118349076L78.46738035714286,131.9980698555708L78.59592321428572,78.74535881280899L79.31897678571428,80.3903815627098L79.40735,95.57855738997459L79.87331785714285,117.01600189805032L80.45176071428571,117.11360279023648L80.58030357142857,49.92989348173141L80.71688035714286,103.62628834247589L80.76508392857143,92.55967383384704L80.78115178571429,78.22887192964554L80.79721964285714,78.53940655589103L80.86952500000001,123.11273572146894L81.12661071428572,107.50187589526176L81.23908571428572,94.21945606470108L81.29532321428572,59.90808330774307L81.51223928571429,95.22513692378998L81.54437499999999,91.22689481377601L81.64881607142857,72.7620509147644L81.95410535714285,135.4086282581091L82.24332678571429,91.44102333784103L83.119025,94.62309463620186L83.45645,106.42220773100853L83.46448392857143,121.74108514487745L83.74567142857143,101.8887102484703L83.99472321428571,125.27734969854356L84.21967321428572,126.2519765675068L84.31608035714287,69.92128865718841L84.37231785714286,60.386210310459134L84.48479285714286,74.01774619817733L84.54103035714286,100.5902346253395L84.73384464285714,87.80903052091598L84.84631964285714,116.52527553141118L84.94272678571429,98.96267216205597L85.12750714285714,106.32109104394912L85.16767678571428,103.3229910314083L85.50510178571429,91.26706402301788L85.80235714285715,65.43293999433517L85.8505607142857,94.23133011460304L86.3245625,86.91538562178611L86.47720714285714,105.62783326506614L86.5495125,92.89420976042747L86.60575,52.89044069051742L87.05565,98.87530742883682L87.46538035714286,88.89883725643158L87.86707678571429,5.840496468544018L89.08823392857143,89.33687945008278L89.1364375,68.61831872463226L89.2810482142857,107.14448862075805L89.34531964285715,105.58330689668655L89.867525,102.99380396604538L89.91572857142857,99.62297167181968L89.93983035714285,97.36320968270302L90.02016964285714,66.47643213272094L90.05230535714286,80.56692563295364L90.06837321428571,72.35130162835121L90.10854285714287,118.9848312020302L90.97620714285713,82.1930321931839L91.04047857142858,97.59751512408256L91.04851249999999,121.67590183317662L91.17705535714286,34.26419727802278L92.40624642857144,33.22365914583207L92.60709464285715,69.22110478878021L93.37835178571427,106.35887067317962L93.43458928571428,74.03681008815765L93.8603875,114.27515362501146L94.14960892857142,71.19814728498459L94.54327142857143,98.85000847578048L95.39486785714286,110.23874680995941L95.40290178571429,124.09855352640153L95.67605535714286,122.27937892377378L96.06168392857144,74.51275323629379L96.09381964285714,103.1674573302269L96.15809107142857,108.71689556837082L96.47944821428571,97.43565668463707L96.49551607142857,-0.8554126739502124L96.55175357142856,75.9908377110958L96.58388928571428,95.06992499828338L96.95345,110.46814649105072L97.05789107142857,64.78665618896484L97.08199285714286,61.773970770835874L97.21856964285713,116.88483083546163L97.2346375,110.5524728178978L97.38728214285713,100.91093947291374L97.87735178571428,133.53126237094403L97.96572499999999,86.72521619796753L98.21477678571429,100.50720067620277L98.2469125,105.04701762199402L98.27101428571429,88.25839816331863L99.11457678571429,118.48825221061708L99.21098392857144,51.30389671325683L99.37969642857142,99.63403864502907L99.40379821428571,104.29371439218521L99.46003571428571,119.2650582522154L99.74122321428571,95.33949916362762L100.78563392857143,131.60712559819223L101.02665178571428,105.54953627586364L101.1712625,118.28775959014894L101.44441607142858,78.48961045145988L101.63723035714285,69.19784198999405L101.74970535714286,69.9187355518341L102.1835375,128.19683622121812L102.99496428571427,113.70983068943025L103.17171071428571,113.87578253746034L103.84656071428572,120.36274057924749L103.90279821428572,105.5234618961811L103.94296785714286,123.97803007364274L104.72225892857143,121.06824693381787L105.7827375,102.47586117982864L105.82290714285715,90.57344226837158L106.19246785714286,100.25042368769645L106.68253750000001,92.16119422316551L107.18064107142857,84.7601901769638L107.26098035714287,94.55916677713394L107.31721785714286,49.10775135755539L107.36542142857142,66.66060386896133L107.47789642857143,111.69252930879593L107.57430357142857,130.1175837993622L107.63054107142858,67.10952841043472L107.68677857142858,122.19832574129106L107.81532142857144,116.26711385250093L108.11257678571428,84.86472507119178L108.33752678571429,89.97280840873718L108.77939285714285,115.15648664832116L109.10075,87.14012746810913L109.11681785714286,67.41310529708862L109.23732678571427,119.88887842297555L109.27749642857142,78.11673574447632L109.4060392857143,82.10562525987625L109.47834464285715,92.95458226203918L109.67919285714287,87.00059815049171L110.43438214285713,96.24763451814651L110.45044999999999,70.7496447443962L111.14136785714285,66.33282523155212L111.32614821428571,105.85955922603607L111.35828392857144,44.984612810611736L111.44665714285715,111.5506737112999L111.45469107142858,115.9923860013485L111.50289464285714,100.83682029247284L111.75194642857143,136.73495066463948L111.9929642857143,101.92711232900619L112.23398214285714,124.57816280722619L112.362525,105.90693937540054L112.3946607142857,119.24208294153215L113.49530892857143,103.43249498605728L113.67205535714287,94.37339671254158L113.80059821428571,75.43992083072662L114.3629732142857,78.55797986984253L114.5557875,113.1921305537224L114.77270357142858,105.6639829158783L115.56002857142857,106.48091332912445L115.59216428571429,131.77823376953603L115.64036785714286,113.19494740962983L115.99386071428572,96.28113083839416L116.67674464285714,137.9065556779504L116.69281249999999,112.50734971761703L116.82938928571429,87.30867989659309L116.95793214285715,113.14020334482194L117.06237321428571,103.78105716705322L117.56047678571429,108.69665007591247L117.67295178571429,116.5955465912819L118.14695357142857,100.86097456812858L118.36386964285714,101.56195496320724L118.38797142857143,81.92883326411247L118.41207321428571,114.43329845666887L118.58078571428571,109.28852741718292L118.78163392857142,132.16829446256162L118.89410892857143,132.83097036480905L119.13512678571428,105.61176030635833L119.18333035714286,71.69816558361053L119.20743214285714,124.60104580521585L119.66536607142856,104.9169147491455L119.93048571428572,100.5648618221283L120.00279107142858,130.12504266500474L120.05099464285713,77.20924394130707L120.11526607142858,119.02427773475648L120.910625,101.51447986364364L121.08737142857143,97.59501476883888L121.4167625,43.35846405029298L121.49710178571429,138.24896323978902L121.56940714285714,115.18719248771669L121.74615357142856,56.184400248527524L121.82649285714285,118.82510650455953L121.94700178571429,134.59444348812104L122.22818928571428,127.34257982969285L122.36476607142858,105.8120946764946L122.43707142857143,101.08649711608886L122.92714107142857,136.92012201547624L122.97534464285714,104.45827891230583L123.13602321428571,114.15345911979676L123.24046428571428,81.05273305177688L123.52968571428572,97.14054619073868L123.5537875,69.64161812067032L123.69839821428572,87.72875012755394L123.90728035714285,111.07775314450264L124.48572321428571,66.79073839187622L124.80708035714285,117.03473082482816L124.89545357142856,104.83069469332695L124.959725,83.33845864534378L125.02399642857142,117.84595631361009L125.05613214285715,145.84836440831424L125.16057321428572,106.9463697552681L125.27304821428571,108.86806156039238L125.98806785714287,102.86316304206848L126.07644107142858,94.76442800760269L126.3656625,78.60933737754821L126.60668035714286,56.370629239082334L126.94410535714285,75.10213022232055L126.99230892857143,77.13575776219368L127.25742857142858,106.29977999925613L127.36186964285714,92.60635768175125L127.40203928571428,69.96363644599914L127.659125,97.55918161869049L127.73946428571429,123.14193554520608L128.00458392857144,120.49059893488885L128.01261785714286,105.15114634037018L128.2777375,128.26114388108255L128.40628035714286,65.99564652442932L128.42234821428573,113.35781865119935L128.558925,115.5410850673914L128.6955017857143,100.08313198685646L128.71156964285714,94.57769261598587L128.89634999999998,63.529948103427884L128.91241785714286,104.20264132618904L129.10523214285715,124.3118855237961L129.11326607142857,107.95797445178032L129.47479285714286,112.36141653656959L129.683675,96.430804002285L130.0291339285714,121.25491638779641L130.03716785714286,119.74099085032941L130.06126964285716,71.58374004364013L130.25408392857142,121.15155254602433L130.2781857142857,132.11521993875505L130.471,96.29495136737823L130.55133928571428,96.17121015787124L130.76825535714286,114.43770309090615L131.29046071428573,96.48293166160583L131.57968214285714,104.04339401721954L131.7403607142857,114.73894842267038L131.933175,130.07301786839963L132.48751607142856,115.32069510519506L132.59195714285715,129.30455425679685L133.33107857142858,107.51775895357132L133.34714642857142,119.08773084282876L133.3712482142857,136.25829275250436L133.45158750000002,92.1816032409668L133.5399607142857,111.30260576605797L133.82918214285715,58.439340877532956L133.94969107142856,90.79924439191818L133.96575892857143,75.92008398771286L134.0460982142857,100.06639965176582L134.33531964285714,139.80185660272838L134.78521964285713,67.12532179355621L135.0262375,122.49303005933763L135.21101785714285,106.22074978351593L135.74125714285714,129.5866803109646L135.77339285714285,68.06687961816787L136.07868214285713,87.62208412885666L136.2313267857143,44.23771344423295L136.6249892857143,116.41564497649671L137.31590714285713,76.9016263961792L137.38821249999998,79.47596367001533L137.79794285714286,120.54295341968538L138.05502857142858,117.80186513364316L138.15143571428572,85.24637739658355L138.69774285714286,95.33947278857231L138.84235357142856,124.70757729113103L138.8503875,76.76407520771026L138.9869642857143,83.66620563268661L139.02713392857143,87.77697955369949L139.17174464285713,108.54525725841522L139.71805178571427,123.85708461999894L139.87069642857142,127.34267477989198L140.02334107142858,113.37386523485185L140.4491392857143,73.35665016174316L140.58571607142858,127.72019413411618L140.69015714285712,96.63933046460151L140.94724285714287,122.84689626395703L141.0757857142857,108.96966354846954L141.37304107142856,100.78949816823005L141.4292785714286,106.25497933030128L141.48551607142858,106.09971992969513L141.5738892857143,128.52149732708932L141.5819232142857,126.52194635868074L142.01575535714287,111.84708713293075L142.09609464285714,114.7249590933323L142.15233214285715,127.2496209472418L142.16036607142857,102.5519057393074L142.84325,127.49716666638852L142.9316232142857,88.47439931631088L143.1244375,91.53116800189018L143.3252857142857,67.27440415620804L143.38152321428572,122.34492884874345L143.42169285714286,87.63900108933449L143.61450714285715,127.80917038321496L143.75911785714285,113.05252211093904L143.8314232142857,95.71268509626388L143.90372857142856,112.0317441701889L144.5866125,102.19257198572159L144.82763035714285,104.76995294094085L144.88386785714286,85.98956843018532L144.9561732142857,104.59175251722336L145.44624285714286,111.98480184674263L145.47837857142858,67.97799568176269L145.51854821428572,99.6588575720787L145.7113625,131.30674536824228L145.7997357142857,106.16176988482475L145.83187142857142,56.48615198135376L146.04075357142858,116.33789395093919L146.0487875,109.65610601305961L146.1371607142857,87.72464089393615L146.554925,83.53682543635368L147.0690964285714,132.22003704607488L147.08516428571428,59.96706848144531L147.1655035714286,122.46778385639192L147.41455535714286,119.11980554759504L147.79215,98.4855896115303L147.97693035714286,86.13536446094513L148.3786267857143,134.18086152076722L148.65178035714285,102.98156066536903L149.14988392857143,46.69235544204713L149.39893571428573,91.7997135400772L149.90507321428572,109.3943757891655L150.0657517857143,91.2208707511425L150.1300232142857,62.10494606494903L150.47548214285715,81.76704339981079L150.50761785714286,114.46874653100969L150.6923982142857,121.0330810725689L150.7165,93.87816812396049L150.9093142857143,107.06178699731826L150.93341607142858,107.19558237791061L151.02982321428573,129.04226751923562L151.92158928571428,81.02933310270309L151.93765714285715,116.23886616826059L152.0983357142857,116.91567382514478L152.72498214285716,111.43587892055511L153.60871428571429,96.0633256316185L153.85776607142856,130.5378017306328L154.06664821428572,89.13724665641784L154.5888535714286,120.70580356121064L154.7334642857143,80.25938193798065L154.82987142857144,95.05007513165474L154.8539732142857,88.67449631094932L155.27977142857142,115.86216707825662L155.31190714285714,117.12475943863393L155.76180714285715,103.5188891172409L155.92248571428573,59.901457893848416L156.25991071428572,93.14957832098007L156.5089625,100.70853202342987L156.5410982142857,67.56222985982895L156.56519999999998,105.18183107972145L156.6214375,113.1679129779339L156.7017767857143,135.01379631757737L157.03116785714286,99.201904463768L157.19988035714283,117.94079573750497L157.2159482142857,89.63978641033172L157.24808392857142,123.46410684585572L157.74618750000002,98.64453096985817L158.06754464285714,59.96632997989654L158.07557857142857,118.38099541068078L158.20412142857145,106.22931640148163L158.26035892857143,99.77372621297836L158.4290714285714,97.910993206501L158.66205535714286,117.86768935918809L158.83076785714286,120.86507460772992L158.927175,108.75156294107437L159.21639642857141,116.79861077964307L159.30476964285714,89.07555540204048L159.57792321428573,129.58033974766732L160.1081625,68.9896162033081L160.14029821428574,103.19002382755279L160.61430000000001,136.70201613307L160.91155535714287,55.34235023260116L160.93565714285714,132.46932351887227L161.4899982142857,110.63183008432388L161.5141,134.50185913145543L161.61854107142858,78.04378234148025L161.98006785714284,123.67030439078809L162.0202375,92.5824724316597L162.03630535714288,94.29448254704475L162.06040714285714,129.0182846814394L162.14074642857142,102.17158799171447L162.15681428571426,102.97748835682869L162.63081607142857,92.41361932754516L162.67901964285713,107.11442105770111L162.68705357142858,104.42486171722412L162.7754267857143,107.18991174101829L163.12088571428572,112.16248004436493L163.1449875,131.91179177463056L163.52258214285715,114.49203570485116L163.53865,112.00837587118149L163.94034642857144,121.3865331888199L164.0126517857143,77.82179932594299L164.0206857142857,65.28558783531189L164.07692321428573,116.5649436146021L164.18939821428572,127.34388275742532L164.51075535714284,109.52907319664955L164.65536607142855,75.20917074680328L164.71160357142858,75.70637218952179L164.81604464285715,122.30757649540902L164.97672321428573,113.23550169467927L165.0811642857143,80.46674789786339L165.1374017857143,115.35589525401593L165.32218214285714,137.819676245749L165.33021607142857,76.45640491247177L165.3623517857143,100.37677602767944L165.5632,113.92324708700181L165.78815,129.6390664458275L165.8363535714286,80.72154675722122L165.86848928571428,114.38790171146394L165.98899821428571,58.58651368618011L166.25411785714286,138.42710827589036L166.34249107142855,126.03291590809823L166.67188214285713,100.68850808143615L166.88879821428569,79.97844539880752L167.1057142857143,119.61426925957204L167.1137482142857,120.99074119627477L167.34673214285715,78.39249222278595L167.7564625,115.44188320934774L167.9814125,115.60319568514825L168.20636249999998,89.03529124259948L168.2947357142857,93.8859012901783L168.52771964285716,79.40976228117943L168.53575357142856,117.29527417123319L168.86514464285716,96.9560896039009L169.25880714285714,117.89678895771505L169.4917910714286,126.35955778062345L170.3112517857143,94.356332051754L170.31928571428574,98.95852072834968L170.32731964285713,130.71317738592626L170.36748928571427,92.10676138401031L170.4558625,110.73507260084152L170.6567107142857,79.27227439284324L170.67277857142858,66.47741328477859L170.8736267857143,85.30120586156845L171.14678035714286,95.97938438057899L171.51634107142857,95.5428508400917L171.90196964285715,109.55305867195129L172.17512321428572,93.41209979653358L172.199225,130.12659351825715L172.20725892857143,103.90285717248916L172.44024285714286,123.46163286566735L172.61698928571428,99.43211122155189L172.77766785714283,112.1962981402874L172.90621071428572,72.13445647358894L173.10705892857143,94.97063874006271L173.65336607142856,89.0821438908577L173.83814642857143,101.41996749043464L173.99079107142856,84.18298791646957L174.83435357142855,139.0187521979213L175.10750714285714,119.46328261792661L175.18784642857142,21.961795377731335L175.62167857142856,53.29405288696289L175.6618482142857,66.96232395172119L176.05551071428573,87.53595902323723L176.2724267857143,91.04481725692749L176.28046071428574,103.65986906290054L176.58575,135.7513984769583L176.9794125,126.76271105110646L177.30076964285715,90.79064084887504L177.31683750000002,86.24946295022964L177.70246607142855,97.36952387094497L177.7667375,116.53184028267862L178.69867321428572,66.59705053567886L178.81918214285713,118.76507951617242L178.85131785714287,120.7879038333893L178.96379285714286,62.3974770784378L179.1244714285714,75.67105071544647L179.67077857142857,116.11612193584443L179.69488035714286,15.496921169757854L179.86359285714283,117.60224025249482L179.97606785714285,124.09546236991883L180.00016964285714,122.29301218986512L180.072475,107.90136303305626L180.2652892857143,64.61131482124328L180.35366249999998,91.52978067398071L180.4661375,87.33902703523636L180.4982732142857,124.07221275866033L180.65091785714284,66.15162860155105L180.90800357142857,105.35181303620338L181.2213267857143,99.25785123109817L181.26953035714286,69.75389145612716L181.3338017857143,111.15586023330688L181.69532857142858,103.98704107403755L181.96848214285714,124.31824454963208L182.20950000000002,53.13635115623474L182.28983928571427,131.24390152394773L182.56299285714286,121.83941662609578L182.84418035714285,126.63771438896657L182.94862142857144,126.55078220665456L182.996825,79.87820436358452L183.1093,114.66988270282746L183.51903035714284,133.1210405856371L184.27421964285713,83.00543664693832L184.34652499999999,136.99623251259328L184.61164464285713,11.830619680881512L184.90086607142857,115.88811749517919L185.1659857142857,75.36923040747642L185.31863035714287,125.90742866992952L185.37486785714287,97.95977650880813L185.76049642857143,125.57680680155755L186.2103964285714,86.17049603462219L186.2264642857143,124.84891066253186L186.63619464285716,98.92451800704002L187.3271125,129.66168041825296L187.40745178571427,130.01843469142915L187.70470714285713,113.85990475416185L187.76094464285717,54.180254745483396L187.77701249999998,126.23568733334542L188.77321964285713,131.76043588221074L189.26328928571428,108.28477193713188L189.30345892857142,74.72409127950668L189.45610357142857,83.57883034944534L189.5525107142857,116.11655184924604L189.56054464285714,104.51223172545433L189.60874821428573,125.50017935335637L189.76139285714285,100.35858251452446L190.0024107142857,134.03590949177743L190.01044464285712,56.37881605625152L190.04258035714284,75.77769033908844L190.13095357142856,19.936760830879223L190.195225,112.03650223016739L190.54068392857144,104.00889544486999L190.85400714285714,82.87303386926651L190.98255,133.07239707112313L191.26373750000002,124.17228763103486L191.45655178571428,91.51934670209884L191.94662142857143,111.99108438491821L192.19567321428573,117.83736859560014L192.219775,79.02886955738067L192.76608214285713,120.74325613975526L192.81428571428572,98.09826664924621L193.08743928571428,140.84877354204656L193.16777857142856,109.88561646938324L193.30435535714287,108.746140229702L193.50520357142855,111.7250761270523L193.58554285714285,76.3972825884819L193.73818749999998,71.44259129762649L193.94706964285714,101.48372654914856L194.0434767857143,113.70651798248292L194.2202232142857,135.03666349053384L195.1682267857143,119.49998614490033L195.85111071428574,122.28398400843145L196.10819642857143,113.12902559638025L196.46972321428572,118.20843397378923L196.6705714285714,87.47111858725548L196.87945357142857,142.7901609197259L196.88748750000002,114.28895305395127L196.90355535714286,95.87862639427185L196.92765714285716,114.8757241845131L197.393625,120.71395081579686L197.46593035714284,142.54288950115443L197.99616964285715,117.91291730403901L198.02027142857142,56.64241890907287L198.09257678571427,118.64381756186486L198.49427321428573,94.8936552286148L198.65495178571427,107.42427520751953L198.70315535714286,132.06946449279786L199.07271607142857,99.30753128528595L199.32176785714285,103.82776739001274L199.3940732142857,85.06974892616272L199.45834464285716,66.43061338663101L199.88414285714285,69.22782515287399L199.9484142857143,107.57506667375564L200.0367875,126.18847598433496L201.06513035714286,108.03038452863693L201.08923214285716,119.98360970914365L201.20170714285715,124.52595074772836L201.96493035714283,98.82005696296692L202.4469660714286,102.16761590838432L202.49516964285715,111.92583777308464L202.52730535714284,106.67887394428253L202.86473035714286,82.9342978477478L203.08164642857145,118.36658671796323L203.21018928571428,95.84296731948852L203.25035892857142,109.3531515777111L203.28249464285713,80.59949355125427L203.36283392857143,101.00809990167618L203.467275,117.08899222612382L204.2546,145.93471238315107L204.43134642857143,82.95864729881286L204.53578750000003,109.78879891633987L204.7045,141.13443121612073L204.86517857142857,141.99667133688928L204.99372142857143,109.93139301538467L205.40345178571428,128.7169892370701L205.6043,130.07029068768026L206.2229125,111.72542427778244L206.2470142857143,64.73399047851562L206.27915000000002,105.69492085576057L206.39965892857145,136.18618335127832L206.51213392857142,81.15678791999817L207.15484821428572,131.3177490413189L207.28339107142858,77.3002800822258L208.2153267857143,45.37615578174592L208.64915892857144,57.36194096803665L208.94641428571427,132.440535145998L209.22760178571428,77.79394726753235L209.5730607142857,115.00950901508332L209.78194285714287,78.80175923109054L209.87031607142856,100.66697548627853L209.87834999999998,135.9967286914587L210.16757142857142,72.46340088844299L210.33628392857142,70.44348310232162L210.6014035714286,129.57065218985082L210.71387857142858,94.28545172810554L211.22805,107.5221372127533L211.6458142857143,104.6543352484703L211.91093392857144,97.23214148283004L212.24835892857143,31.630742955207836L212.41707142857143,144.77748309373857L212.61791964285715,72.91063742637634L213.38917678571428,66.3956717133522L213.59002500000003,117.10447702109815L213.82300892857143,112.8170983672142L213.8712125,85.03611545562744L213.9515517857143,126.13357630670072L214.04795892857143,115.84449051618577L214.16846785714284,92.99031518697738L214.19256964285714,124.29451227486135L214.50589285714287,105.85776572227478L214.57819821428572,134.14082946181298L214.6826392857143,138.24974262267352L214.72280892857142,98.21388434171676L215.0280982142857,95.3743458867073L215.11647142857143,117.49497817754747L215.28518392857143,131.10162656307222L215.5904732142857,100.53153430223465L215.76721964285713,123.34122546315194L215.99216964285714,81.07139604091644L216.04840714285714,84.69742809534073L216.08054285714286,105.26941208839416L216.17695,92.68753482699394L216.19301785714288,121.31502513885499L216.62685,68.25342510938644L216.94017321428572,118.92267838418485L217.27759821428572,118.23774193525315L217.34990357142857,66.81118433475494L217.54271785714283,116.04244058132173L217.71946428571428,87.26920698881149L217.93638035714287,92.25133888721466L218.1693642857143,47.23478482961656L218.72370535714285,143.3194251984358L218.9004517857143,114.85684491991998L219.5190642857143,48.49796007871629L219.5753017857143,18.553104329109203L219.63957321428572,17.882101821899425L219.90469285714286,80.05089240074157L220.1457107142857,130.6011387884617L220.25818571428573,117.16167396605016L220.33852499999998,117.42381564080716L220.3947625,80.86914156675338L220.70808571428572,111.84871183633804L221.14995178571428,116.97506517469884L221.28652857142856,124.26677890419961L221.3588339285714,139.99140357524158L221.41507142857145,131.79585758149625L221.4552410714286,106.1905661702156L222.08992142857144,111.93781732320785L222.34700714285717,107.73460938334465L222.53982142857146,140.52616309672595L222.6201607142857,125.28449733853341L222.82904285714287,94.41570757627487L223.11826428571428,99.86072169542312L223.44765535714285,111.94468538761139L223.4556892857143,92.83194880485534L223.61636785714288,106.81133474707603L223.8573857142857,71.87749485969543L224.50813392857143,115.43128834962846L224.62864285714284,133.9924407631159L224.79735535714286,74.69921432733535L225.0062375,121.85803477764131L225.08657678571427,127.03915328085424L225.2633232142857,130.3340860784054L225.47220535714285,82.5828502357006L226.6612267857143,127.11224647164346L226.89421071428572,122.44213675260545L227.16736428571429,98.12160329818725L227.40838214285714,127.1038512915373L227.43248392857143,100.28134052753448L227.64939999999999,118.13103901147844L227.90648571428574,132.50026145875455L227.99485892857143,96.57265959978103L228.36441964285714,107.825276273489L228.39655535714286,83.93672930002212L228.6054375,111.21649648547172L228.6295392857143,112.0563995718956L228.81431964285713,88.45087276697159L228.84645535714284,95.8594675540924L228.8544892857143,129.92890192866327L229.25618571428572,128.48420827388765L229.4168642857143,112.44196595549583L229.52130535714286,92.13226078748703L229.77035714285714,24.997427093982708L230.32469821428572,102.34880726337433L230.3488,77.34373562335968L230.38896964285715,120.4458483785391L230.44520714285713,123.08873178362848L230.48537678571427,113.75065927505494L231.04775178571427,97.94524912834167L231.12809107142857,80.9088096499443L231.136125,124.1802766352892L231.14415892857144,125.22544095218183L232.35728214285714,65.29110549688339L232.59830000000002,115.49416648149491L232.7027410714286,112.33994724154472L232.74291071428573,57.02875016927719L232.86341964285717,108.73603330850601L233.08836964285712,116.67922409176828L233.16870892857142,131.12416404783727L233.42579464285714,96.11332218647003L233.57843928571427,91.71622593998909L233.6989482142857,71.4691087782383L234.1167125,121.06240485906602L234.26935714285716,110.28494535684585L234.27739107142858,116.53121255636216L234.3095267857143,92.41426815390587L234.4782392857143,100.35516430735588L234.5425107142857,86.10391484498977L234.57464642857144,-4.527706575393694L234.83173214285716,123.7356723278761L235.11291964285715,116.61286181509496L235.5547857142857,111.7805534183979L235.85204107142857,127.3650408267975L235.94844821428572,100.60956754088402L236.06092321428574,70.72349123954773L236.28587321428571,131.34396848380567L236.29390714285714,69.55863164663315L236.58312857142857,127.32904942631723L237.00089285714284,138.49411542266608L237.04909642857143,127.59259161651136L237.10533392857144,80.27429439425468L237.23387678571427,84.29250242114067L237.27404642857144,123.01062733232976L237.28208035714286,94.42158393859863L237.58736964285714,112.14654423594475L237.6918107142857,112.57601981163025L237.92479464285717,136.52165295481683L238.63981428571427,72.06855048537254L238.69605178571427,32.06099395751954L238.8165607142857,99.31080179214477L238.93706964285715,101.00478719472885L239.1459517857143,76.14372335672378L239.53158035714287,128.39754775464536L239.70029285714284,103.26834191679954L239.76456428571427,105.7906992316246L239.82883571428573,56.86600552797317L240.08592142857142,66.06913797855377L240.14215892857143,89.62863503694534L240.2466,92.7027954339981L240.33497321428572,130.49920183718206L240.4153125,108.79267637729644L240.47958392857143,69.2401159286499L240.73666964285712,53.337139177322385L241.1464,91.09422301054L241.3151125,98.01090191602707L241.61236785714286,136.28481550812722L241.89355535714284,123.03863764107228L242.92993214285713,95.49351893663406L244.47244642857143,123.44226038753987L245.12319464285716,88.17919914722442L245.2035339285714,73.18567650318145L245.49275535714287,108.04174162745475L245.58112857142856,133.24619286060334L245.59719642857144,121.13656096458436L245.64540000000002,114.86326460838319L246.02299464285713,123.02180244326593L246.04709642857142,79.43795721530914L246.13546964285712,128.81155963540078L246.4005892857143,114.82564322948457L246.90672678571428,126.04366374313832L246.99509999999998,122.04766878783704L247.65388214285716,82.93692480325699L247.8386625,112.3527074933052L248.57778392857142,125.70937310457231L248.74649642857142,109.66152344942093L248.81076785714288,124.1114562034607L248.95537857142858,107.01602100133896L249.5016857142857,93.06452404260635L249.5498892857143,99.39987562894821L249.79090714285712,79.49838246703148L250.05602678571427,118.095875787735L250.06406071428572,127.8176816135645L250.32918035714286,72.27751477360725L250.50592678571428,104.29811375141144L250.52199464285715,116.85402477085591L250.58626607142858,97.5470016181469L251.04420000000002,81.48355375528335L251.3575232142857,79.2960752427578L251.36555714285714,96.96571649909019L251.87169464285716,59.34289752244949L251.8877625,115.20292257070543L252.02433928571426,121.1604620397091L252.23322142857143,126.46995584964753L252.71525714285715,114.50744401216508L252.7634607142857,111.58759351372719L253.0125125,99.1309608399868L253.02054642857144,113.11046810746194L253.13302142857142,64.68773918151855L253.35797142857143,89.85956447124481L255.39858928571428,77.69475068449974L255.77618392857144,96.34373466968536L256.00916785714287,109.79947026371956L256.04130357142856,138.74442129135133L256.1296767857143,111.46422683000564L256.4188982142857,116.33347876667978L256.43496607142856,125.62937228679658L256.4510339285714,131.44201511442662L256.84469642857147,120.43243402540685L257.0294767857143,104.90447627305984L257.0375107142857,135.29133311212064L257.1901553571428,115.8563698410988L257.3910035714286,134.83646099567414L257.5757839285714,72.44011171460151L257.68825892857143,121.95239153802396L258.4032785714286,48.84079359769822L258.7969410714286,115.33614297509195L259.05402678571426,140.54780382961036L259.11026428571427,72.85195820331573L259.80118214285716,124.75680896937848L260.1466410714286,86.83405022621155L260.70098214285713,128.61297920644284L260.8777285714286,65.15605466365814L261.23925535714284,60.208389687538144L262.02658035714285,115.5658828943968L262.22742857142856,129.65941480100156L262.6773285714286,111.20391558408737L262.6933964285714,27.31783061027528L262.72553214285716,117.82389885485173L262.76570178571427,88.49724011421203L262.8781767857143,89.24389155507087L263.09509285714284,110.8370807647705L263.9948928571429,75.84739433526993L264.0671982142857,74.10170327425003L264.2519785714286,98.49903033971786L264.3885553571429,120.44797420799733L264.60547142857143,126.58010071814061L264.85452321428573,120.46242510080339L264.98306607142854,140.24219474494458L264.9911,128.18560308516027L265.0714392857143,133.02629874944688L266.10781607142854,89.72244583368301L266.11585,119.60382473766805" style="fill: none;" fill="none"></path></g></g></g></g></g></g><g transform="translate(48, 177)" clip-path="url(#clip_1)"><clipPath id="clip_1"><rect width="281" height="23"></rect></clipPath><g><g><line x1="0" y1="0" x2="0" y2="5" style="visibility: inherit;" fill="rgb(0, 0, 0)" stroke="rgb(204, 204, 204)" stroke-width="1px"></line><line x1="40.169642857142854" y1="0" x2="40.169642857142854" y2="5" style="visibility: inherit;" fill="rgb(0, 0, 0)" stroke="rgb(204, 204, 204)" stroke-width="1px"></line><line x1="80.33928571428571" y1="0" x2="80.33928571428571" y2="5" style="visibility: inherit;" fill="rgb(0, 0, 0)" stroke="rgb(204, 204, 204)" stroke-width="1px"></line><line x1="120.50892857142857" y1="0" x2="120.50892857142857" y2="5" style="visibility: inherit;" fill="rgb(0, 0, 0)" stroke="rgb(204, 204, 204)" stroke-width="1px"></line><line x1="160.67857142857142" y1="0" x2="160.67857142857142" y2="5" style="visibility: inherit;" fill="rgb(0, 0, 0)" stroke="rgb(204, 204, 204)" stroke-width="1px"></line><line x1="200.84821428571428" y1="0" x2="200.84821428571428" y2="5" style="visibility: inherit;" fill="rgb(0, 0, 0)" stroke="rgb(204, 204, 204)" stroke-width="1px"></line><line x1="241.01785714285714" y1="0" x2="241.01785714285714" y2="5" style="visibility: inherit;" fill="rgb(0, 0, 0)" stroke="rgb(204, 204, 204)" stroke-width="1px"></line><line x1="281.1875" y1="0" x2="281.1875" y2="5" style="visibility: inherit;" fill="rgb(0, 0, 0)" stroke="rgb(204, 204, 204)" stroke-width="1px"></line></g><g transform="translate(0, 8)"><text x="0" y="0" dx="0em" dy="0.95em" style="text-anchor: middle; visibility: hidden; font-family: &quot;Helvetica Neue&quot;, sans-serif; font-size: 12px; font-weight: 200;" fill="rgb(50, 49, 63)" stroke="none" stroke-width="1px">-5k</text><text x="40.169642857142854" y="0" dx="0em" dy="0.95em" style="text-anchor: middle; visibility: inherit; font-family: &quot;Helvetica Neue&quot;, sans-serif; font-size: 12px; font-weight: 200;" fill="rgb(50, 49, 63)" stroke="none" stroke-width="1px">0</text><text x="80.33928571428571" y="0" dx="0em" dy="0.95em" style="text-anchor: middle; visibility: inherit; font-family: &quot;Helvetica Neue&quot;, sans-serif; font-size: 12px; font-weight: 200;" fill="rgb(50, 49, 63)" stroke="none" stroke-width="1px">5k</text><text x="120.50892857142857" y="0" dx="0em" dy="0.95em" style="text-anchor: middle; visibility: inherit; font-family: &quot;Helvetica Neue&quot;, sans-serif; font-size: 12px; font-weight: 200;" fill="rgb(50, 49, 63)" stroke="none" stroke-width="1px">10k</text><text x="160.67857142857142" y="0" dx="0em" dy="0.95em" style="text-anchor: middle; visibility: inherit; font-family: &quot;Helvetica Neue&quot;, sans-serif; font-size: 12px; font-weight: 200;" fill="rgb(50, 49, 63)" stroke="none" stroke-width="1px">15k</text><text x="200.84821428571428" y="0" dx="0em" dy="0.95em" style="text-anchor: middle; visibility: inherit; font-family: &quot;Helvetica Neue&quot;, sans-serif; font-size: 12px; font-weight: 200;" fill="rgb(50, 49, 63)" stroke="none" stroke-width="1px">20k</text><text x="241.01785714285714" y="0" dx="0em" dy="0.95em" style="text-anchor: middle; visibility: inherit; font-family: &quot;Helvetica Neue&quot;, sans-serif; font-size: 12px; font-weight: 200;" fill="rgb(50, 49, 63)" stroke="none" stroke-width="1px">25k</text><text x="281.1875" y="0" dx="0em" dy="0.95em" style="text-anchor: middle; visibility: hidden; font-family: &quot;Helvetica Neue&quot;, sans-serif; font-size: 12px; font-weight: 200;" fill="rgb(50, 49, 63)" stroke="none" stroke-width="1px">30k</text></g><line x1="0" y1="0" x2="281.1875" y2="0" fill="rgb(0, 0, 0)" stroke="rgb(204, 204, 204)" stroke-width="1px"></line></g></g></g></g></svg>