<svg viewBox="0 0 918.75 400" xmlns="http://www.w3.org/2000/svg"><g><g><g><g><g><line x1="48.8125" y1="352.0565022052505" x2="43.8125" y2="352.0565022052505" style="visibility: inherit;" fill="rgb(0, 0, 0)" stroke="rgb(204, 204, 204)" stroke-width="1px"></line><line x1="48.8125" y1="320.7042818707595" x2="43.8125" y2="320.7042818707595" style="visibility: inherit;" fill="rgb(0, 0, 0)" stroke="rgb(204, 204, 204)" stroke-width="1px"></line><line x1="48.8125" y1="289.35206153626837" x2="43.8125" y2="289.35206153626837" style="visibility: inherit;" fill="rgb(0, 0, 0)" stroke="rgb(204, 204, 204)" stroke-width="1px"></line><line x1="48.8125" y1="257.9998412017773" x2="43.8125" y2="257.9998412017773" style="visibility: inherit;" fill="rgb(0, 0, 0)" stroke="rgb(204, 204, 204)" stroke-width="1px"></line><line x1="48.8125" y1="226.64762086728624" x2="43.8125" y2="226.64762086728624" style="visibility: inherit;" fill="rgb(0, 0, 0)" stroke="rgb(204, 204, 204)" stroke-width="1px"></line><line x1="48.8125" y1="195.29540053279516" x2="43.8125" y2="195.29540053279516" style="visibility: inherit;" fill="rgb(0, 0, 0)" stroke="rgb(204, 204, 204)" stroke-width="1px"></line><line x1="48.8125" y1="163.94318019830408" x2="43.8125" y2="163.94318019830408" style="visibility: inherit;" fill="rgb(0, 0, 0)" stroke="rgb(204, 204, 204)" stroke-width="1px"></line><line x1="48.8125" y1="132.590959863813" x2="43.8125" y2="132.590959863813" style="visibility: inherit;" fill="rgb(0, 0, 0)" stroke="rgb(204, 204, 204)" stroke-width="1px"></line><line x1="48.8125" y1="101.23873952932195" x2="43.8125" y2="101.23873952932195" style="visibility: inherit;" fill="rgb(0, 0, 0)" stroke="rgb(204, 204, 204)" stroke-width="1px"></line><line x1="48.8125" y1="69.88651919483084" x2="43.8125" y2="69.88651919483084" style="visibility: inherit;" fill="rgb(0, 0, 0)" stroke="rgb(204, 204, 204)" stroke-width="1px"></line><line x1="48.8125" y1="38.53429886033979" x2="43.8125" y2="38.53429886033979" style="visibility: inherit;" fill="rgb(0, 0, 0)" stroke="rgb(204, 204, 204)" stroke-width="1px"></line><line x1="48.8125" y1="7.182078525848681" x2="43.8125" y2="7.182078525848681" style="visibility: inherit;" fill="rgb(0, 0, 0)" stroke="rgb(204, 204, 204)" stroke-width="1px"></line></g><g transform="translate(38.8125, 0)"><text x="0" y="352.0565022052505" dx="0em" dy="0.3em" style="text-anchor: end; visibility: inherit; font-family: &quot;Helvetica Neue&quot;, sans-serif; font-size: 12px; font-weight: 200;" fill="rgb(50, 49, 63)" stroke="none" stroke-width="1px">-0.4</text><text x="0" y="320.7042818707595" dx="0em" dy="0.3em" style="text-anchor: end; visibility: inherit; font-family: &quot;Helvetica Neue&quot;, sans-serif; font-size: 12px; font-weight: 200;" fill="rgb(50, 49, 63)" stroke="none" stroke-width="1px">-0.2</text><text x="0" y="289.35206153626837" dx="0em" dy="0.3em" style="text-anchor: end; visibility: inherit; font-family: &quot;Helvetica Neue&quot;, sans-serif; font-size: 12px; font-weight: 200;" fill="rgb(50, 49, 63)" stroke="none" stroke-width="1px">0</text><text x="0" y="257.9998412017773" dx="0em" dy="0.3em" style="text-anchor: end; visibility: inherit; font-family: &quot;Helvetica Neue&quot;, sans-serif; font-size: 12px; font-weight: 200;" fill="rgb(50, 49, 63)" stroke="none" stroke-width="1px">0.2</text><text x="0" y="226.64762086728624" dx="0em" dy="0.3em" style="text-anchor: end; visibility: inherit; font-family: &quot;Helvetica Neue&quot;, sans-serif; font-size: 12px; font-weight: 200;" fill="rgb(50, 49, 63)" stroke="none" stroke-width="1px">0.4</text><text x="0" y="195.29540053279516" dx="0em" dy="0.3em" style="text-anchor: end; visibility: inherit; font-family: &quot;Helvetica Neue&quot;, sans-serif; font-size: 12px; font-weight: 200;" fill="rgb(50, 49, 63)" stroke="none" stroke-width="1px">0.6</text><text x="0" y="163.94318019830408" dx="0em" dy="0.3em" style="text-anchor: end; visibility: inherit; font-family: &quot;Helvetica Neue&quot;, sans-serif; font-size: 12px; font-weight: 200;" fill="rgb(50, 49, 63)" stroke="none" stroke-width="1px">0.8</text><text x="0" y="132.590959863813" dx="0em" dy="0.3em" style="text-anchor: end; visibility: inherit; font-family: &quot;Helvetica Neue&quot;, sans-serif; font-size: 12px; font-weight: 200;" fill="rgb(50, 49, 63)" stroke="none" stroke-width="1px">1</text><text x="0" y="101.23873952932195" dx="0em" dy="0.3em" style="text-anchor: end; visibility: inherit; font-family: &quot;Helvetica Neue&quot;, sans-serif; font-size: 12px; font-weight: 200;" fill="rgb(50, 49, 63)" stroke="none" stroke-width="1px">1.2</text><text x="0" y="69.88651919483084" dx="0em" dy="0.3em" style="text-anchor: end; visibility: inherit; font-family: &quot;Helvetica Neue&quot;, sans-serif; font-size: 12px; font-weight: 200;" fill="rgb(50, 49, 63)" stroke="none" stroke-width="1px">1.4</text><text x="0" y="38.53429886033979" dx="0em" dy="0.3em" style="text-anchor: end; visibility: inherit; font-family: &quot;Helvetica Neue&quot;, sans-serif; font-size: 12px; font-weight: 200;" fill="rgb(50, 49, 63)" stroke="none" stroke-width="1px">1.6</text><text x="0" y="7.182078525848681" dx="0em" dy="0.3em" style="text-anchor: end; visibility: hidden; font-family: &quot;Helvetica Neue&quot;, sans-serif; font-size: 12px; font-weight: 200;" fill="rgb(50, 49, 63)" stroke="none" stroke-width="1px">1.8</text></g><line x1="48.8125" y1="0" x2="48.8125" y2="377" fill="rgb(0, 0, 0)" stroke="rgb(204, 204, 204)" stroke-width="1px"></line></g></g><g transform="translate(48, 0)" clip-path="url(#clip_0)"><clipPath id="clip_0"><rect width="869" height="377"></rect></clipPath><g><g><g><line x1="32.171101841312016" y1="0" x2="32.171101841312016" y2="377" fill="rgb(0, 0, 0)" stroke="rgb(60, 60, 60)" stroke-width="1px" opacity="0.25"></line><line x1="133.90777690560566" y1="0" x2="133.90777690560566" y2="377" fill="rgb(0, 0, 0)" stroke="rgb(60, 60, 60)" stroke-width="1px" opacity="0.25"></line><line x1="235.6444519698993" y1="0" x2="235.6444519698993" y2="377" fill="rgb(0, 0, 0)" stroke="rgb(60, 60, 60)" stroke-width="1px" opacity="0.25"></line><line x1="337.38112703419296" y1="0" x2="337.38112703419296" y2="377" fill="rgb(0, 0, 0)" stroke="rgb(60, 60, 60)" stroke-width="1px" opacity="0.25"></line><line x1="439.11780209848666" y1="0" x2="439.11780209848666" y2="377" fill="rgb(0, 0, 0)" stroke="rgb(60, 60, 60)" stroke-width="1px" opacity="0.25"></line><line x1="540.8544771627803" y1="0" x2="540.8544771627803" y2="377" fill="rgb(0, 0, 0)" stroke="rgb(60, 60, 60)" stroke-width="1px" opacity="0.25"></line><line x1="642.591152227074" y1="0" x2="642.591152227074" y2="377" fill="rgb(0, 0, 0)" stroke="rgb(60, 60, 60)" stroke-width="1px" opacity="0.25"></line><line x1="744.3278272913676" y1="0" x2="744.3278272913676" y2="377" fill="rgb(0, 0, 0)" stroke="rgb(60, 60, 60)" stroke-width="1px" opacity="0.25"></line><line x1="846.0645023556613" y1="0" x2="846.0645023556613" y2="377" fill="rgb(0, 0, 0)" stroke="rgb(60, 60, 60)" stroke-width="1px" opacity="0.25"></line></g><g><line x1="0" y1="352.0565022052505" x2="869.9375" y2="352.0565022052505" fill="rgb(0, 0, 0)" stroke="rgb(60, 60, 60)" stroke-width="1px" opacity="0.25"></line><line x1="0" y1="320.7042818707595" x2="869.9375" y2="320.7042818707595" fill="rgb(0, 0, 0)" stroke="rgb(60, 60, 60)" stroke-width="1px" opacity="0.25"></line><line x1="0" y1="289.35206153626837" x2="869.9375" y2="289.35206153626837" fill="rgb(0, 0, 0)" stroke="rgb(60, 60, 60)" stroke-width="1px" opacity="0.25"></line><line x1="0" y1="257.9998412017773" x2="869.9375" y2="257.9998412017773" fill="rgb(0, 0, 0)" stroke="rgb(60, 60, 60)" stroke-width="1px" opacity="0.25"></line><line x1="0" y1="226.64762086728624" x2="869.9375" y2="226.64762086728624" fill="rgb(0, 0, 0)" stroke="rgb(60, 60, 60)" stroke-width="1px" opacity="0.25"></line><line x1="0" y1="195.29540053279516" x2="869.9375" y2="195.29540053279516" fill="rgb(0, 0, 0)" stroke="rgb(60, 60, 60)" stroke-width="1px" opacity="0.25"></line><line x1="0" y1="163.94318019830408" x2="869.9375" y2="163.94318019830408" fill="rgb(0, 0, 0)" stroke="rgb(60, 60, 60)" stroke-width="1px" opacity="0.25"></line><line x1="0" y1="132.590959863813" x2="869.9375" y2="132.590959863813" fill="rgb(0, 0, 0)" stroke="rgb(60, 60, 60)" stroke-width="1px" opacity="0.25"></line><line x1="0" y1="101.23873952932195" x2="869.9375" y2="101.23873952932195" fill="rgb(0, 0, 0)" stroke="rgb(60, 60, 60)" stroke-width="1px" opacity="0.25"></line><line x1="0" y1="69.88651919483084" x2="869.9375" y2="69.88651919483084" fill="rgb(0, 0, 0)" stroke="rgb(60, 60, 60)" stroke-width="1px" opacity="0.25"></line><line x1="0" y1="38.53429886033979" x2="869.9375" y2="38.53429886033979" fill="rgb(0, 0, 0)" stroke="rgb(60, 60, 60)" stroke-width="1px" opacity="0.25"></line><line x1="0" y1="7.182078525848681" x2="869.9375" y2="7.182078525848681" fill="rgb(0, 0, 0)" stroke="rgb(60, 60, 60)" stroke-width="1px" opacity="0.25"></line></g></g></g><g><g><line x1="0" y1="289.35206153626837" x2="869.9375" y2="289.35206153626837" fill="rgb(0, 0, 0)" stroke="rgb(153, 153, 153)" stroke-width="1.5px"></line></g></g><g><g><line x1="235.6444519698993" y1="0" x2="235.6444519698993" y2="377" fill="rgb(0, 0, 0)" stroke="rgb(153, 153, 153)" stroke-width="1.5px"></line></g></g><g><g><g><g><g><path stroke="rgb(0, 119, 187)" stroke-width="2px" d="M241.016148413294,-16.002411449781505L241.74865247375695,0.4331014981022463L242.58289320928412,13.565732233109145L243.0915765846056,16.035830063293247L243.8240806450685,55.02914050084917L244.90248940075006,52.59174558489434L246.08263483149582,31.61168617667755L246.83548622697163,66.3615038386053L246.87618089699734,42.01592212122796L247.1000015821388,68.42929976163094L247.60868495746024,67.17791807680385L248.42257835797463,72.31457415848183L249.07369307838607,55.73933567363116L249.13473508342466,78.14965236381926L249.23647175848893,59.595252197193986L249.88758647890043,105.05271409820125L250.7421745494405,98.47187863677999L250.80321655447906,108.93456870459272L252.22753000537918,121.04109411536311L252.7565607157135,124.57556902312174L252.91933939581637,89.48149245494767L253.46871744116353,119.52489357479732L253.61114878625358,119.03741459160631L253.67219079129214,110.53807668246083L253.97740081648502,126.64203814219866L254.03844282152357,112.61061919989464L254.5674735318579,144.86972685198398L256.15456566286093,105.07213028556362L256.8260277182852,121.69382559599939L257.11089040846525,132.4882540257536L257.43644776867103,129.68032574789157L257.82304713391534,146.96348888890768L258.6979825394682,157.669572731794L259.165971244764,137.95188318758545L260.26472733545836,136.30391793374508L260.36646401052263,152.90362754212902L260.73271604075416,163.87739875351642L261.01757873093413,138.05633629563366L261.322788756127,137.32543550629973L261.66869345134563,139.4724939497273L262.23841883170564,170.47360458462538L263.6423849475929,151.77082662429711L264.4766256831201,149.56372563034463L264.5783623581844,156.88067565999697L264.63940436322304,140.19748952712044L268.1391459854347,180.7698087879419L268.5867873557176,169.3237794640148L268.6478293607562,191.13669800444248L269.0344287260005,194.5731762937907L269.3599860862062,179.81056690776956L270.23492149175917,186.802879779713L270.6418681920163,175.21666707801973L271.0895095622992,196.38561851882463L271.3947195874921,195.01124584542617L271.9034029628136,149.01629753352654L271.9644449678521,185.83136029117L272.24930765803214,122.41315889738593L272.4934756781864,191.7272846043534L272.5545176832251,207.4781667146927L273.6125791038937,189.23732208969744L273.81605245402227,190.35173462604268L274.0398731391637,179.49961825558808L275.0572398898067,184.68410468524883L275.17932389988385,207.8151375429109L275.60661793515385,206.80872871673017L275.93217529535957,208.85862213013777L276.8478053709382,192.02842238226611L278.5976761820441,183.7477268139676L282.2601964843587,179.76240953064453L282.6874905196287,191.89545233300998L284.4577086657474,164.68262859504858L284.8239606959789,212.84215476871287L285.8413274466218,220.10362196845284L286.65522084713615,190.30464242955256L287.0214728773676,214.1164191498107L287.42841957762477,213.7459325063524L288.3237023181906,211.48504923402749L288.3643969882163,179.48775176956775L288.42543899325483,205.1152410062827L288.52717566831916,195.4019989520168L288.91377503356347,197.94196889437418L289.56488975397497,180.22292262513105L290.3584358194764,203.37372673036714L291.3758025701194,225.3013484065315L292.5152533308394,217.05539267683423L293.39018873639236,218.89044663113523L293.93956678173953,209.66853316024958L294.16338746688103,197.77042809370707L295.07901754245967,170.72616451937301L296.1167316281155,190.62953186688551L297.337571728887,204.33413657176197L297.74451842914414,204.55863740610087L298.74153784477426,222.56944973240758L299.3926525651857,198.95641329376548L300.1861986306872,231.46108245695737L302.2616268019988,218.25894868552354L302.3023214720245,222.58889395083932L302.79065751233315,225.7230945321217L302.8720468523845,244.96455956747906L303.15690954256456,210.01011977121897L303.1772568775774,151.31605055533544L303.4214248977317,206.26331885690453L304.09288695315604,225.7694018586703L305.47650573403047,232.58217573149514L305.8224104292491,178.11894793527804L306.02588377937764,211.14908752430551L306.697345834802,197.726008192494L306.7176931698148,202.42606168183195L308.3047853008178,208.72126054668513L309.1186787013322,212.25120376490057L309.2814573814351,223.21601904963407L310.1970874570137,218.44772392198942L311.7231375829781,171.58740043744518L311.8045269230295,197.8884762703849L311.82487425804237,229.8163220887115L311.98765293814523,213.02423992329645L312.313210298351,205.25186443824273L312.33355763336385,180.14365076103934L312.8218936736725,200.20884147184793L313.92064976436683,240.46522255014557L314.0834284444697,229.34527398399825L314.2258597895597,212.4375636575584L314.327596464624,215.48419050637972L316.42337197094844,237.17099726584968L317.0134446863214,248.86068198816426L317.4407387215914,239.30536230671143L319.2719988727487,219.12198326387832L320.3300602934174,234.26400251709745L321.20499569897027,209.28061119166225L321.3474270440603,220.16369255004707L322.0188890994846,233.35559030932714L322.6293091498704,225.4238441795445L322.7106984899218,206.46785222618402L324.1757066108476,247.7266804061957L325.7831460768635,225.3321452080457L326.1087034370692,237.93572688403134L326.57669214236495,223.3305773581791L327.0243335126479,227.77517904078266L327.6551008980465,205.1860101126748L328.59107830863803,222.14683464366786L329.7508764043709,218.4689107385651L330.05608642956383,207.6417934101163L330.605464474911,203.49383986248628L331.07345318020674,220.83467692866813L331.3786632053996,200.82431031764241L332.0094305907983,239.3648722669189L332.6401979761969,227.90746700068487L332.9657553364026,183.9629773954245L334.79701548756,224.1771623706766L335.02083617270137,204.42433120920623L336.2009816034472,249.75689600892707L337.665989724373,236.38124991828263L337.99154708457877,251.86643953788882L338.3374517797974,240.58957304557984L338.4595357898745,240.25434014366067L338.50023045990025,232.90332769291618L338.54092512992594,189.72225958926833L338.7240511450417,242.95017684707952L339.37516586545314,226.1916525435086L339.6600285556332,231.29642795565798L339.8024599007232,236.4743644587831L340.35183794607036,212.3181185992585L340.4332272861218,255.04531463593082L340.697742641289,224.60200125758388L341.4709413717776,209.38469055211925L342.2034454322405,218.61605983706204L344.4213049486421,251.9580777754041L345.27589301918215,246.1913019423569L345.29624035419505,244.63425546191874L346.0083970796451,238.62647783838153L346.63916446504373,234.5926247584974L347.20888984540375,192.22765787944047L347.4530578655581,215.81364433617009L347.59548921064805,209.80746448358522L347.8803519008281,191.9651936335263L348.0227832459181,237.0339019775558L348.51111928622674,215.1389598563962L348.7959819764067,226.9192550103503L349.04014999656107,229.34940856672583L349.5081387018568,223.02022203029867L349.6098753769211,257.0575412999137L350.4644634474612,229.52065971300974L351.2173148429369,231.14722791725438L351.3393988530141,191.8154796921848L352.53989161877274,229.1320836861378L352.92649098401705,231.4987375267699L353.1096169991328,239.2488423272335L353.2520483442228,243.778686491698L354.3914991049429,248.62988817875868L355.42921319059866,233.95427788827712L356.4465799412416,230.9602046226222L359.53937486319614,256.72587768749037L359.6614588732733,200.9344163580074L360.0277109035047,217.27894045481563L360.19048958360764,233.09976942684636L361.5130663594435,234.9737772238393L361.6351503695206,247.85094680842195L361.6961923745592,235.35071568509053L361.8996657246878,251.57909538201352L361.98105506473917,181.79163470225924L362.02174973476497,245.32389918903004L362.1234864098292,221.7661213317456L364.320998591218,211.0489231698662L364.48377727132083,259.370022763125L364.5041246063337,225.59013849840025L364.8296819665394,239.36256437554326L367.9428242235068,233.49409649477778L368.45150759882824,248.05347595624372L370.4048517600627,247.57560228614636L370.5472831051527,230.877092502031L371.62569186083425,223.22717074338624L372.3581959212971,234.46438728811475L373.35521533692724,223.94518191266897L375.51203284829023,241.28729906435066L375.5323801833031,203.49384920617607L376.2241895737403,242.18260207535994L377.20086165435754,204.43943061189037L377.28225099440897,181.0797763526965L377.44502967451183,228.73705116962802L378.2589230750262,205.13664739956818L378.2996177450519,222.9676964782016L378.4420490901419,258.6857002673433L378.5234384301933,264.77547811238793L379.45941584078486,235.56262589745117L379.723931195952,196.87178004175667L379.78497320099063,227.04564710200145L380.1308778962092,242.65984504639715L380.1715725662349,245.7793526755008L380.5581719314792,218.1335703842135L381.7993593672636,232.028132302313L382.02318005240505,229.93570174118292L382.65394743780365,231.05573917877558L382.7353367778551,191.1573569025456L382.79637878289367,222.33673579475223L384.93284895924387,242.42758427769613L385.17701697939816,238.45213393078052L385.6043110146682,166.47711224832574L385.66535301970674,251.99166366831753L385.80778436479676,182.9894303261993L386.51994109024685,234.4108759767459L389.1650946419185,263.553554745514L389.7755146923042,235.49700983597262L390.14176672253564,226.5456382308158L390.8335761129729,259.0848650306582L391.32191215328146,233.6605776874291L391.6067748434615,247.64146595540407L392.7055309341559,264.40706576806076L394.7606117704546,244.39674821140636L395.2082531407375,232.69674338373L396.91742928181765,197.94166989630122L397.05986062690766,258.0503083390159L397.16159730197194,251.65268628271912L399.1352887982193,235.81258828644L401.8211370199166,230.44393305937479L401.92287369498086,212.3538815718906L402.8588511055724,247.80948885686905L404.10003854135675,261.1265243174473L405.361573312154,195.82233418045024L405.5650466622826,235.68594391516478L405.70747800737263,237.08914654337875L405.82956201744975,216.2347317316308L406.1144247076298,249.37002987728482L406.3585927277841,242.92843875280687L406.50102407287415,242.73232404801894L406.6434554179641,250.0668635736817L406.9690127781698,210.99769639064854L407.7218641736456,218.30567180626736L408.29158955400567,233.35550154427423L409.4106929797129,236.3663887796879L410.22458638022727,231.25591838861774L410.26528105025295,238.83841140996662L410.5704910754459,186.51047835174438L410.6722277505101,197.0791258616599L410.9977851107159,244.73355085320853L411.1809111258316,219.7138219182197L411.68959450115307,245.21046212325857L413.6022439923618,252.21812901343264L413.6429386623875,214.97506686581386L415.39280947349334,258.8592850001497L415.86079817878914,218.935856963465L415.9421875188405,199.58394484306567L416.166008203982,236.83201287248394L416.18635553899486,241.7450744577317L416.308439549072,225.19409219154934L416.93920693447063,233.98200061585374L417.5496269848564,248.85136165760895L418.16004703524214,238.27949524656432L418.4856043954479,247.38351471165353L418.5669937354993,222.41577406659943L421.354578632261,253.79510558417104L421.8022200025439,231.7202016619304L422.12777736274955,259.6293895758772L423.5520908136497,260.5369024535062L424.0404268539583,215.52496169673384L424.5898048993055,222.76996531508178L426.58384373056566,262.5746864449592L426.6652330706171,227.8580015069907L426.78731708069427,227.0574668695729L427.68259982126006,269.46827622661186L429.41212329735305,238.71160819596517L429.45281796737873,235.1469251391485L429.79872266259736,172.453233450889L430.1242800228031,214.59800226475062L430.3887953779702,216.1168564132139L431.6503301487675,241.83962325461334L431.9351928389475,233.54256688551044L433.13568560470617,221.673268414559L433.68506365005334,139.91986047269364L433.746105655092,214.99629572899354L433.8071476601305,247.93378796200955L434.2344416954005,209.4127309651484L434.743125070722,266.07524609473967L435.027987760902,237.03470553487682L435.6384078112878,256.4025836851874L435.7604918213649,268.5599481120496L435.82153382640354,257.207411748059L436.98133192213646,233.02574871641093L437.6527939775608,252.34299107588234L437.8359199926765,215.0614959962769L437.95800400275374,234.20608098415255L438.12078268285654,265.24650752972155L440.1351688491295,229.43585638456838L440.5828102194125,223.2798411226749L441.4170509549397,256.74897996047093L441.6205243050683,252.46312756722597L441.803650320184,222.61943847272943L442.2512916904668,205.90702527822174L442.4547650405955,227.411200277256L442.7599750657883,235.8602924946107L443.47213179123844,252.38564969157198L443.81803648645695,249.1976901911416L444.0011625015727,223.0049497693536L445.24234993735706,248.25701422256168L445.3644339474343,244.33915837944866L445.77138064769144,254.72464854637835L446.0358960028586,202.68560135284505L446.7684000633215,213.38405607302622L446.8294420683601,244.3351265773087L447.19569409859156,243.55120969216424L447.72472480892594,263.7098419726156L449.18973292985174,235.27582601150556L450.00362633036605,244.55700650666435L450.2274470155075,265.6384029023878L450.3902256956104,235.77174701841255L450.5530043757132,262.15957901095754L450.63439371576465,234.5353946585962L450.8989090709319,206.81914693083462L451.1837717611118,248.24574106084236L452.9946845772563,220.6622811803862L453.21850526239774,248.12838431720826L453.9510093228606,239.34312950080133L454.5614293732464,213.28669015367595L455.4160174437865,247.72489576144778L455.53810145386365,236.62807749935035L456.20956350928793,225.41378102565167L456.4740788644551,238.57871289622727L456.5758155395194,242.18368594337437L457.2269302599309,178.0201477595466L457.43040361005956,238.41770243394203L458.10186566548384,214.11807298290174L458.12221300049674,244.5581464368175L458.793675055921,243.0837308769469L459.1192324161268,204.7929771457779L459.1599270861525,266.2352380948389L459.5058317813711,268.03933406897704L459.8517364765897,238.92835376778686L459.89243114661537,217.9193662960119L460.36041985191116,249.84507240937893L460.40111452193685,251.997965987074L460.88945056224543,251.85504958004728L460.90979789725833,218.18380206046962L461.82542797283696,232.67031475718787L462.35445868317134,218.86200443944557L463.2293940887243,259.4374701878004L463.2497414237371,230.33277585390957L463.31078342877566,226.3756765137215L463.79911946908425,251.97401577424594L463.8601614741229,222.56339502143027L464.3484975144314,259.11808885559265L464.5519708645601,259.98970327708776L465.10134890990724,224.81122515913285L466.42392568574303,218.75990594122186L467.15642974620596,240.44029825765796L467.5633764464631,235.3236330002638L468.05171248677175,248.71448127417997L469.45567860265896,248.18551163652188L469.7201939578262,239.75858265132482L471.59214877900916,251.09739079910645L471.6328434490349,242.31436211678957L471.6938854540735,258.885898164565L471.89735880420204,220.89116420523183L472.12117948934343,255.8849245840077L472.85368354980636,227.92253370045478L473.1588935749993,226.9272064903529L473.19958824502504,251.2823935208238L473.40306159515364,237.547253637747L474.1355656556166,248.4616363568941L475.2750164163366,232.29060589191695L475.8854364667224,214.96537278766735L476.3534251720181,236.04543303575224L477.6963492828668,227.50477265855565L477.77773862291826,251.5835312987365L478.5509373534069,257.08480151484616L478.93753671865113,249.0224539611666L479.9345561342813,267.26571392996993L481.68442694538714,261.0259465047353L481.86755296050285,232.27208202692853L482.9052670461586,257.0183935756588L483.5563817665701,244.86075117402564L483.80054978672445,246.0026201427888L485.1841685675989,261.42600125450167L485.5504205978303,269.7975011360026L485.5707679328431,204.80680580665197L485.91667262806175,254.87628962373697L486.01840930312596,244.21195805863155L486.3846613333574,266.27063899949206L487.7682801142318,231.87708688517787L488.15487947947616,260.4034932508304L488.54147884472053,239.3937582838731L489.61988760040197,202.07785973849846L489.96579229562064,216.7617625536596L490.2303076507878,223.85922463853984L490.8814223711993,247.92423403920972L491.206979731405,216.2052290311511L491.9598311268807,191.96049375756706L492.10226247197073,235.49394043387997L492.24469381706075,195.611297603084L492.4685145022022,230.83509261647083L492.4888618372151,226.0884328025113L493.5876179279095,244.47629104250169L493.7910912780381,227.00329682807458L493.933522623128,216.83881529142857L493.9538699581409,220.03569801559868L495.6833934342339,189.0089062493408L495.9072141193754,269.8149423009378L496.395550159684,243.88580255133348L496.90423353500546,210.9598124004364L497.0466648800955,242.56429180286418L497.14840155515975,240.70882188639433L497.63673759546833,243.30068668178862L498.0029896256998,258.76992895886315L498.1861156408155,223.93974388521715L498.36924165593126,243.8908668311941L500.0987651320242,243.82222341422693L500.70918518241,255.34549935748598L500.8516165275,275.97847572922035L501.03474254261573,246.00103638737113L502.27592997840014,262.9834798805922L502.3573193184515,264.16701002616094L502.45905599351585,249.24286225938195L502.94739203382454,229.4343707378934L503.17121271896593,267.2350876507942L503.25260205901736,229.52868594253056L503.78163276935163,254.61037989221649L503.80198010436453,274.502544155683L504.025800789506,233.45279738595113L505.08386221017463,275.9666536257265L506.3860916509976,224.66355748585315L506.4267863210233,262.5486899640694L506.630259671152,254.1802875157305L507.2610270565505,259.3872712144585L508.2173518021549,215.2814651410726L508.68534050745063,231.64907749532665L509.7027072580936,240.93936808802079L510.3945166485308,273.6168791606816L511.656051419328,224.1518923616672L512.2868188047266,259.29261496514437L513.5687009105368,266.53338355609964L513.9756476107939,257.7123143767668L514.1384262908967,263.7299612726339L515.0133616964497,243.74908101063076L515.0947510365012,248.80231662995484L515.5627397417968,231.03032901441946L515.6237817468354,251.90816378460045L516.1121177871441,260.73654206526356L516.1731597921827,249.5623930906262L516.417327812337,234.65080324291122L518.6758819987643,238.48017434380967L518.71657666879,183.82311170311092L519.1235233690471,252.6950846660091L520.7106155000502,263.03061879553115L522.9488223514646,259.1026063616275L523.5795897368632,231.02083582560323L524.1086204471976,232.60736164729656L525.4311972230333,262.6072935863682L525.7974492532649,254.29898507884798L526.0416172734192,229.6166848128766L526.1026592784576,243.5153112360303L527.1810680341392,244.91211810859002L527.2624573741906,266.89274887279754L528.4019081349107,254.7553449032274L528.808854835168,259.8300406420532L529.6634429057079,261.9877649073644L530.2942102911065,259.6248719018687L530.375599631158,249.56327606931035L530.4366416361966,198.57173358553172L530.5790729812866,228.21457072452196L530.7825463314152,260.248303907278L531.6167870669425,255.77016071428747L532.0440811022124,226.6665502484111L532.0847757722381,196.09463733170256L532.1661651122896,234.71297148286104L533.4276998830868,243.20984732974955L534.2415932836012,258.53836896689563L534.2619406186141,228.55488192183643L534.5874979788198,254.58236984617912L534.7299293239098,244.0230753697332L535.1572233591799,243.46011806050112L535.7472960745528,241.84497718885714L536.1745901098228,266.85470603985914L536.418758129977,231.80290266017127L537.15126219044,245.63157754978863L537.3750828755815,246.2463502906945L538.0668922660186,264.98873615199926L539.4098163768673,270.85629185505L539.4912057169188,225.54584940884405L540.6916984826773,259.6348883373126L541.4445498781532,263.51348666781587L541.5055918831918,200.08650454156123L542.909557999079,246.13110054910572L542.9706000041176,245.78802361961647L543.2351153592847,251.20798271134004L544.1507454348633,232.00888430136663L544.2524821099277,224.00037508819818L544.2931767799533,256.37969398114933L544.354218784992,243.68784246781405L544.5576921351205,257.9779951878877L544.5983868051463,204.09563889013296L545.7988795709049,253.64534726030308L545.9209635809822,248.11654586225725L545.9413109159949,258.5118445675333L546.1651316011364,212.91941306765705L547.0400670066894,245.19654936917647L547.1011090117279,256.87559630067676L548.0574337573322,265.7892988204864L548.098128427358,248.42215926757447L549.1154951780009,260.54420921891403L549.2986211931167,257.9994669870016L549.3189685281295,275.6845022254463L549.4613998732195,237.57757858292726L549.7462625633996,258.67151421033515L550.5601559639139,246.21724469703045L550.9264079941454,266.95457373214794L551.0688393392354,233.4456868380287L551.3333546944025,256.3267339474775L551.7403013946597,242.24402749197222L552.0048167498269,245.95813950759214L552.1472480949169,247.14105063371298L552.6152368002126,242.7150148627019L552.6355841352255,238.3916802579053L552.7169734752769,258.95555303595086L553.2256568505984,257.7026786966814L553.7953822309585,249.61372265043144L553.9174662410356,256.28191460352633L553.998855581087,248.14622142099788L554.3040656062799,251.2108932707064L554.9755276617043,218.7283990192844L555.1993483468457,264.94074929721273L556.0335890823729,255.7215034497592L556.58296712772,222.04247030067256L557.1323451730673,259.3186464848709L557.1526925080801,212.69890666069898L557.742765223453,258.2885046866495L558.7804793091088,238.04142737466518L559.3502046894689,223.89495023641285L559.919930069829,222.79208182879051L560.1437507549704,266.8326339086768L560.7338234703433,263.96161937334415L560.7541708053561,276.77487111206574L561.5884115408833,245.42838967183738L562.5854309565134,246.3998484263968L563.1755036718863,221.786981119179L565.2509318431979,275.49019902851444L565.2712791782108,249.29954108158614L565.2916265132236,279.95373686641796L565.3933631882879,254.7404463898735L565.6171838734293,262.1013257770255L566.1258672487509,254.75877170145412L566.1665619187766,242.09976559361724L566.675245294098,227.43488653084776L567.3670546845352,232.3417485779266L568.3030320951267,243.83477666144606L569.2797041757439,240.69711424310026L569.9715135661811,223.0027306430309L570.0325555712197,248.9776135939134L570.0529029062325,236.69888865234645L570.6429756216055,230.76755642674254L571.0906169918884,251.8683503224488L571.4975636921455,254.25275016589518L571.8231210523513,219.079100399634L572.3318044276728,275.61066838880646L573.7154232085471,270.73920140657464L574.1834119138429,241.81377393683755L574.5700112790872,216.27920302313765L576.7064814554374,265.34594541228046L577.3982908458746,246.75603922449204L577.6017641960032,247.26407432519852L578.7005202866976,260.8741465846505L578.8022569617618,236.2753205072492L579.799276377392,248.99835658522454L580.3486544227391,227.89673110112787L580.3690017577519,245.00030385273163L581.1422004882406,267.3541589615029L582.1392199038706,238.04993480420964L582.9531133043849,226.82501455523138L582.9938079744107,247.52867827607227L583.9704800550279,248.66837016511673L584.1332587351309,272.0126727420024L586.4935495966224,239.66100182710963L586.7987596218153,261.6259702313238L586.8801489618668,217.33933339370725L587.1650116520468,212.52077855873716L587.5719583523039,203.46447264550844L588.9555771331784,266.6238468246251L589.0166191382168,215.88530109309127L589.443913173487,253.64076418046614L589.728775863667,268.9064168009289L589.7898178687055,198.24770376765855L589.9729438838212,251.99591504716733L590.4612799241298,251.15355104652787L590.6851006092713,246.9397922277013L590.9699632994514,253.87608033572513L591.0513526395027,237.42570157740172L591.4379520047471,174.26226522915331L592.0890667251587,272.5132434025361L592.88261279066,249.74872028036975L593.0046968007373,205.8259220509332L593.16747548084,243.45366624270818L594.0831055564187,258.88782763650454L594.7749149468559,264.07804174800026L595.3853349972417,242.02708570266518L595.5888083473703,249.81221999611319L596.2806177378075,247.4900701499022L596.9927744632575,270.81624246473143L597.2572898184246,268.39382197960987L597.3793738285019,277.15296819084966L597.6642365186818,263.7456212967048L598.7019506043376,265.47879632949196L600.6146000955464,259.52404648137747L600.7977261106621,255.53922207769028L601.4691881660865,252.77855418273438L602.2016922265493,213.73483220289404L602.8731542819737,229.5974087808609L603.2597536472181,236.11763172668066L603.4021849923081,210.7870849511673L604.3788570729253,236.9308177200603L605.5183078336454,270.76276619219925L605.5590025036711,254.7037537201083L606.5967165893268,239.43936483368822L608.3465874004327,235.15305927148896L608.5500607505613,250.05449252841328L609.3029121460371,244.55748303484316L609.4453434911271,262.49890912084516L609.4860381611528,235.5515723124417L612.0091077027473,241.14807341478695L613.2502951385317,258.45170157234327L613.352031813596,254.90739710293627L613.7386311788403,250.93561415425927L613.9827991989946,249.661856668332L614.0031465340073,255.68598808490626L614.1252305440846,242.7229663427045L614.5118299093289,257.06212905159555L615.1222499597146,195.16286589948277L615.1425972947276,252.54362579060125L615.223986634779,238.49817029032553L615.4478073199203,246.8471121687756L615.6105860000233,256.16775573771935L616.4855214055763,257.73116994274244L617.2790674710776,226.0186821583052L617.6046248312834,246.390971921106L618.3167815567335,266.6867789112144L618.8051175970421,266.10728560699454L620.0463050328265,251.00006459043777L620.6770724182251,231.96176407380716L620.7381144232636,234.12629521712296L622.1217332041381,230.5526515618075L622.2438172142151,270.4877358514925L622.9356266046524,250.99671721357416L623.139099954781,239.90427413421614L623.4850046499995,271.76534293760903L623.993688025321,247.28540596896576L624.1971613754497,163.43732965226806L624.583760740694,256.15595932937237L625.1127914510283,243.02050680005198L625.3569594711826,249.1422213767639L625.8046008414655,275.3882395176762L628.2055863729828,223.57383097790608L629.9351098490757,235.3598304544707L630.5862245694873,251.55280223897321L631.5018546450659,253.42027412496518L632.0105380203873,216.67492697269114L632.5395687307217,245.95668656383137L632.5599160657346,208.41077907899265L632.6006107357603,253.0964685556467L632.6616527407989,234.56892916121586L633.8417981715446,270.235775080852L634.0249241866603,199.85929403718617L635.3678482975091,237.07495347860325L635.4288903025476,278.3865770097544L635.6120163176633,250.92864843352845L636.6293830683063,252.46591198678033L637.0363297685635,258.75667259898813L637.1584137786406,255.92964581921618L638.0943911892322,236.07891147623323L638.7251585746308,268.5428748548994L638.9082845897465,270.6474288535188L639.0710632698494,249.23165450349111L640.1494720255308,261.54624987012267L640.3122507056338,253.6495122100224L640.5360713907752,262.5941750459174L643.1405302724211,245.85515803068424L643.2015722774597,241.59034762682333L643.4864349676398,255.36176905731503L645.4194317938613,238.7568550137238L646.6402718946327,229.6799602800653L646.76235590471,255.16288628442987L646.8437452447614,236.89365319396117L647.6983333153014,270.7541349587652L648.2477113606486,272.2594173978233L648.5732687208543,270.2374721285083L648.6750053959187,257.9182095888317L648.75639473597,258.27519693648065L648.9598680860987,232.09659351732947L649.2243834412659,244.26367538156268L651.218422272526,242.54467005432662L651.6660636428089,277.29988603302456L651.9305789979761,245.07352100584603L652.3578730332462,267.5808158522585L652.7648197335033,237.11065104540694L653.090377093709,245.7468973690507L654.1280911793649,238.61671835440657L654.6367745546863,266.4510025792337L656.2035193506764,250.73075842768236L656.2645613557149,227.687717432599L656.3459506957664,259.1684092969017L656.6511607209593,269.4878862955372L656.9360234111393,164.87548235210335L658.563810212168,250.0438500657541L658.8893675723738,261.3011508716642L661.2496584338654,207.00265699810961L662.3484145245598,257.73344279528135L663.1012659200355,251.8209521201184L663.8134226454856,256.8388685920749L664.6883580510384,240.53011447566615L665.2173887613728,249.12269306512414L665.4412094465143,246.01285148309765L665.4615567815271,267.8120091044022L666.19406084199,256.40370726388335L666.62135487726,219.28102687946495L667.2928169326844,252.61086298225658L667.5776796228644,270.5297439127812L668.8799090636874,270.2339355419266L669.937970484356,264.0946992109552L670.6094325397804,239.71129890919423L671.4640206103205,229.8017132297408L671.8913146455906,224.28745995668208L672.399998020912,257.68731767068346L674.3533421821464,194.7049596944448L674.8620255574679,247.49364878308785L675.4520982728408,224.99131076410356L675.574182282918,268.72810416109394L675.7776556330465,213.46612637220696L676.0218236532008,237.80740532044067L676.3270336783937,241.61694911162638L676.3880756834322,245.12088884118467L677.1816217489338,275.28099731822874L677.3647477640495,233.5333726947671L677.6292631192167,257.24594746063326L677.7309997942809,259.2328503893904L678.5041985247695,229.50216855093555L678.728019209911,269.0227480746097L679.1553132451811,266.7434857644879L679.9285119756697,246.16517231388772L680.3761533459526,268.84872185246115L680.9458787263127,205.83963858752992L681.0883100714027,250.70174393499366L681.1696994114541,249.45039028123588L681.4138674316084,258.63670195813813L681.4545621016341,267.87850347272L682.5533181923284,219.2551121558607L683.34686425783,237.63065541272132L684.20145232837,232.00387608364466L684.3845783434857,247.6542107482637L684.8729143837944,261.1166270140481L685.3205557540773,256.5014656182044L685.8699337994244,247.55776051051186L686.4600065147973,250.45735272103605L687.8639726306847,246.8980399499203L688.3116140009676,256.4167066722895L689.8783587969576,273.08445819761107L690.0207901420476,274.81788667798344L690.1835688221505,256.65120759061523L690.8550308775749,248.79362699845964L691.4654509279605,216.01996235019752L691.7503136181406,265.44689230073885L691.9537869682692,223.68754368252604L692.0962183133593,265.3092293832908L692.8897643788607,238.72261973437065L694.0088678045679,271.63006266105486L694.3547724997866,182.55483662716193L694.5378985149023,202.89630155737922L694.6803298599922,262.29581467979176L694.7820665350565,266.2587468183249L696.3895060010724,238.35030639956042L697.0406207214838,226.2480977734683L697.5289567617925,269.2412058775835L697.7324301119211,265.407382508505L698.2614608222555,268.63576981869005L698.9939648827184,267.1500787611777L699.8282056182455,259.0874275375803L699.8485529532584,225.64221088154298L700.2554996535156,247.16597959804545L700.8659197039013,236.9321118210948L702.5140538399429,250.22624356210036L702.8192638651358,239.7611755252387L703.2465579004058,272.32915636241717L703.7755886107401,207.39007440744885L703.9790619608686,262.9764183870411L704.4267033311517,278.1903618603013L704.9557340414859,277.7507342483951L707.967139623389,241.0848586815818L708.5572123387619,252.23683274444932L709.2490217291992,262.634628550819L709.8594417795849,275.90488833239846L709.9204837846235,262.2691220940133L710.4698618299706,249.7433009402975L711.1209765503821,232.27497857076025L711.3447972355235,267.2908437836326L712.2807746461151,233.37539893166027L712.3621639861665,244.18008206094783L712.8911946965009,238.4163569426137L712.9522367015394,251.64432835221112L713.4202254068351,264.301764720165L713.5016147468866,250.2646531348626L713.5219620818995,224.6649169927161L714.5393288325424,244.60919101408447L714.9462755327995,250.3594004851521L715.2107908879667,262.2932615165594L715.8415582733654,227.2988237202745L717.2455243892526,265.85297606633566L717.3065663942912,253.81798828044177L717.4083030693555,243.48695313754865L717.5507344144454,247.6753321590109L717.6524710895097,255.0359802898408L719.0767845404099,265.4666051502518L719.2802578905385,238.13558840842094L719.3006052255513,260.53311125137805L719.3209525605643,246.80724731633012L722.3934001475059,253.55016542843885L723.0038201978916,264.00596452503896L723.2683355530588,254.69669689840214L723.370072228123,219.27569163260068L723.6752822533159,266.0753745704741L724.245007633676,229.0222532846213L724.4484809838046,262.763933537759L725.0995957042161,244.59791318052027L725.4861950694605,244.15210238190224L725.7914050946532,249.53073199780738L726.8494665153219,249.75634473123006L727.2360658805662,254.51838659448958L727.2564132155792,254.89470603629292L727.3378025556306,244.03094742837266L727.7650965909006,267.35359834011615L727.9278752710035,230.6915408385391L728.0092646110548,242.65924237840633L728.6603793314664,247.45860527456875L729.3725360569165,259.6525525828413L730.4916394826237,246.6685449133941L731.2444908780994,250.26637003785967L731.4886588982538,231.09551526616815L731.7735215884337,256.1397363479922L732.3432469687938,259.2094818212512L732.3635943038067,235.2627121428996L733.0960983642696,253.18414039685044L734.1541597849382,250.52546121176334L734.2762437950154,246.93866164123793L734.4186751401054,277.2417437554086L734.7442325003111,253.5160843199671L734.8459691753754,224.26025580388824L734.8663165103883,262.0009254944192L735.6395152408769,251.94271908532858L735.9040305960441,254.49075029604342L736.494103311417,263.7405897197584L738.3050161275614,188.57829296214962L738.4474474726513,256.96683976729884L738.7526574978443,238.22206425733287L739.0578675230372,270.47867364036733L739.5868982333716,225.11675914308697L740.5635703139886,262.9162683840837L740.9908643492587,247.87402105033314L741.1536430293617,263.03487951807074L741.3164217094645,243.22511491884973L741.967536429876,252.01466082478802L742.109967774966,255.61847058255753L742.3744831301332,203.25506187016387L742.5983038152746,266.65539112132166L742.8017771654032,272.01533102174477L742.964555845506,260.52239170327823L743.6156705659175,265.42910658724304L744.6533846515733,244.93200615228628L745.0806786868434,271.8990569781639L745.8335300823192,265.2156219631545L746.5456868077691,269.154054947085L749.170493024428,270.2923242593605L753.0771813468969,222.257529336489L754.7253154829384,267.09841516446284L754.928788833067,260.95229487004616L755.6612928935299,270.7456380408717L755.8851135786714,255.73697426411212L755.9258082486971,268.3406797439873L756.0478922587743,251.67760356743935L757.0042170043786,264.47351108200724L757.0652590094171,252.5512689288411L757.2890796945586,246.62703557154742L757.9605417499829,271.4606452138902L759.242423855793,217.7227236727514L759.4662445409346,260.58820398224213L761.1347260119888,253.54708901857887L761.6027147172846,228.49879175208838L763.4746695384677,246.52614240930527L763.9019635737377,268.5870051017294L764.0647422538406,246.84571061530863L764.430994284072,252.52683518006697L765.8146130649465,260.97738267710486L765.9366970750235,259.40142223263L766.5471171254094,193.99847396650546L767.2185791808337,245.3508744214243L767.2389265158465,241.27309665588538L767.9103885712708,259.06606552682126L768.3580299415537,278.3628440377137L768.3987246115795,255.7508916900391L768.5615032916824,236.72698045566938L769.7213013874153,263.7098069337789L770.5148474529168,267.71904639886066L770.5351947879296,240.6143057924269L771.8170768937397,276.79243491292925L771.8577715637654,239.5609495969477L772.203676258984,260.2194248980911L772.7327069693183,261.56161790388796L773.9535470700899,261.541610728147L774.075631080167,278.85072012772036L774.7063984655657,250.35188815856915L774.7267458005786,244.85531781841868L775.0116084907586,241.80593925295722L775.5813338711187,266.32523885072027L780.7495569643847,206.78853700311606L781.7058817099891,266.5736431794383L782.295954425362,211.61772028521065L782.3773437654135,240.08985850062223L782.6011644505548,238.5182965981112L783.3336685110178,277.6512344638914L783.3743631810435,267.8632639146892L783.4150578510692,269.19838374732274L784.4120772666993,238.76477379081214L784.880065971995,254.77931847527987L784.9004133070079,262.7711188351997L785.2870126722522,262.7175000713983L785.7956960475738,279.38858028620393L786.2636847528694,269.7196775438268L786.5485474430494,244.9119872969331L788.3594602591938,248.2277965046203L789.356479674824,243.2976032641613L790.0075943952354,269.57058028601074L790.1500257403254,257.49363232523825L791.8998965514313,227.10689498850795L792.7748319569843,222.03517755079943L794.1787980728715,263.61792342440697L794.6264394431544,263.4724795492948L795.542069518733,257.23567173779793L797.5361083499931,230.9478008744395L798.0447917253146,271.39400835430325L799.1842424860348,254.92855588844262L799.2249371560605,265.9541121645121L799.3063264961119,236.6836070477116L799.4080631711762,206.56906307387865L799.6929258613562,219.5387351872812L800.2423039067035,263.4706294987184L802.5212054281435,262.78429343778913L802.7043314432592,256.8813917242627L803.1723201485551,250.44587866998646L803.5182248437736,255.66751093836672L804.0676028891208,252.10892230320894L804.6983702745194,277.80055129841725L805.0239276347252,191.05831379087988L805.044274969738,273.14537555109155L805.2477483198667,262.78871300305497L807.8725545365254,211.03437504487908L807.8929018715382,216.81439555818912" style="fill: none;" fill="none"></path></g></g></g></g></g></g><g transform="translate(48, 377)" clip-path="url(#clip_1)"><clipPath id="clip_1"><rect width="869" height="23"></rect></clipPath><g><g><line x1="32.171101841312016" y1="0" x2="32.171101841312016" y2="5" style="visibility: inherit;" fill="rgb(0, 0, 0)" stroke="rgb(204, 204, 204)" stroke-width="1px"></line><line x1="133.90777690560566" y1="0" x2="133.90777690560566" y2="5" style="visibility: inherit;" fill="rgb(0, 0, 0)" stroke="rgb(204, 204, 204)" stroke-width="1px"></line><line x1="235.6444519698993" y1="0" x2="235.6444519698993" y2="5" style="visibility: inherit;" fill="rgb(0, 0, 0)" stroke="rgb(204, 204, 204)" stroke-width="1px"></line><line x1="337.38112703419296" y1="0" x2="337.38112703419296" y2="5" style="visibility: inherit;" fill="rgb(0, 0, 0)" stroke="rgb(204, 204, 204)" stroke-width="1px"></line><line x1="439.11780209848666" y1="0" x2="439.11780209848666" y2="5" style="visibility: inherit;" fill="rgb(0, 0, 0)" stroke="rgb(204, 204, 204)" stroke-width="1px"></line><line x1="540.8544771627803" y1="0" x2="540.8544771627803" y2="5" style="visibility: inherit;" fill="rgb(0, 0, 0)" stroke="rgb(204, 204, 204)" stroke-width="1px"></line><line x1="642.591152227074" y1="0" x2="642.591152227074" y2="5" style="visibility: inherit;" fill="rgb(0, 0, 0)" stroke="rgb(204, 204, 204)" stroke-width="1px"></line><line x1="744.3278272913676" y1="0" x2="744.3278272913676" y2="5" style="visibility: inherit;" fill="rgb(0, 0, 0)" stroke="rgb(204, 204, 204)" stroke-width="1px"></line><line x1="846.0645023556613" y1="0" x2="846.0645023556613" y2="5" style="visibility: inherit;" fill="rgb(0, 0, 0)" stroke="rgb(204, 204, 204)" stroke-width="1px"></line></g><g transform="translate(0, 8)"><text x="32.171101841312016" y="0" dx="0em" dy="0.95em" style="text-anchor: middle; visibility: inherit; font-family: &quot;Helvetica Neue&quot;, sans-serif; font-size: 12px; font-weight: 200;" fill="rgb(50, 49, 63)" stroke="none" stroke-width="1px">-10k</text><text x="133.90777690560566" y="0" dx="0em" dy="0.95em" style="text-anchor: middle; visibility: inherit; font-family: &quot;Helvetica Neue&quot;, sans-serif; font-size: 12px; font-weight: 200;" fill="rgb(50, 49, 63)" stroke="none" stroke-width="1px">-5k</text><text x="235.6444519698993" y="0" dx="0em" dy="0.95em" style="text-anchor: middle; visibility: inherit; font-family: &quot;Helvetica Neue&quot;, sans-serif; font-size: 12px; font-weight: 200;" fill="rgb(50, 49, 63)" stroke="none" stroke-width="1px">0</text><text x="337.38112703419296" y="0" dx="0em" dy="0.95em" style="text-anchor: middle; visibility: inherit; font-family: &quot;Helvetica Neue&quot;, sans-serif; font-size: 12px; font-weight: 200;" fill="rgb(50, 49, 63)" stroke="none" stroke-width="1px">5k</text><text x="439.11780209848666" y="0" dx="0em" dy="0.95em" style="text-anchor: middle; visibility: inherit; font-family: &quot;Helvetica Neue&quot;, sans-serif; font-size: 12px; font-weight: 200;" fill="rgb(50, 49, 63)" stroke="none" stroke-width="1px">10k</text><text x="540.8544771627803" y="0" dx="0em" dy="0.95em" style="text-anchor: middle; visibility: inherit; font-family: &quot;Helvetica Neue&quot;, sans-serif; font-size: 12px; font-weight: 200;" fill="rgb(50, 49, 63)" stroke="none" stroke-width="1px">15k</text><text x="642.591152227074" y="0" dx="0em" dy="0.95em" style="text-anchor: middle; visibility: inherit; font-family: &quot;Helvetica Neue&quot;, sans-serif; font-size: 12px; font-weight: 200;" fill="rgb(50, 49, 63)" stroke="none" stroke-width="1px">20k</text><text x="744.3278272913676" y="0" dx="0em" dy="0.95em" style="text-anchor: middle; visibility: inherit; font-family: &quot;Helvetica Neue&quot;, sans-serif; font-size: 12px; font-weight: 200;" fill="rgb(50, 49, 63)" stroke="none" stroke-width="1px">25k</text><text x="846.0645023556613" y="0" dx="0em" dy="0.95em" style="text-anchor: middle; visibility: inherit; font-family: &quot;Helvetica Neue&quot;, sans-serif; font-size: 12px; font-weight: 200;" fill="rgb(50, 49, 63)" stroke="none" stroke-width="1px">30k</text></g><line x1="0" y1="0" x2="869.9375" y2="0" fill="rgb(0, 0, 0)" stroke="rgb(204, 204, 204)" stroke-width="1px"></line></g></g></g></g></svg>