<svg viewBox="0 0 918.75 400" xmlns="http://www.w3.org/2000/svg"><g><g><g><g><g><line x1="39.109375" y1="371.0064550360852" x2="34.109375" y2="371.0064550360852" style="visibility: inherit;" fill="rgb(0, 0, 0)" stroke="rgb(204, 204, 204)" stroke-width="1px"></line><line x1="39.109375" y1="336.0740851028182" x2="34.109375" y2="336.0740851028182" style="visibility: inherit;" fill="rgb(0, 0, 0)" stroke="rgb(204, 204, 204)" stroke-width="1px"></line><line x1="39.109375" y1="301.14171516955116" x2="34.109375" y2="301.14171516955116" style="visibility: inherit;" fill="rgb(0, 0, 0)" stroke="rgb(204, 204, 204)" stroke-width="1px"></line><line x1="39.109375" y1="266.2093452362842" x2="34.109375" y2="266.2093452362842" style="visibility: inherit;" fill="rgb(0, 0, 0)" stroke="rgb(204, 204, 204)" stroke-width="1px"></line><line x1="39.109375" y1="231.27697530301722" x2="34.109375" y2="231.27697530301722" style="visibility: inherit;" fill="rgb(0, 0, 0)" stroke="rgb(204, 204, 204)" stroke-width="1px"></line><line x1="39.109375" y1="196.3446053697502" x2="34.109375" y2="196.3446053697502" style="visibility: inherit;" fill="rgb(0, 0, 0)" stroke="rgb(204, 204, 204)" stroke-width="1px"></line><line x1="39.109375" y1="161.41223543648326" x2="34.109375" y2="161.41223543648326" style="visibility: inherit;" fill="rgb(0, 0, 0)" stroke="rgb(204, 204, 204)" stroke-width="1px"></line><line x1="39.109375" y1="126.47986550321627" x2="34.109375" y2="126.47986550321627" style="visibility: inherit;" fill="rgb(0, 0, 0)" stroke="rgb(204, 204, 204)" stroke-width="1px"></line><line x1="39.109375" y1="91.54749556994926" x2="34.109375" y2="91.54749556994926" style="visibility: inherit;" fill="rgb(0, 0, 0)" stroke="rgb(204, 204, 204)" stroke-width="1px"></line><line x1="39.109375" y1="56.61512563668225" x2="34.109375" y2="56.61512563668225" style="visibility: inherit;" fill="rgb(0, 0, 0)" stroke="rgb(204, 204, 204)" stroke-width="1px"></line><line x1="39.109375" y1="21.68275570341524" x2="34.109375" y2="21.68275570341524" style="visibility: inherit;" fill="rgb(0, 0, 0)" stroke="rgb(204, 204, 204)" stroke-width="1px"></line></g><g transform="translate(29.109375, 0)"><text x="0" y="371.0064550360852" dx="0em" dy="0.3em" style="text-anchor: end; visibility: inherit; font-family: &quot;Helvetica Neue&quot;, sans-serif; font-size: 12px; font-weight: 200;" fill="rgb(50, 49, 63)" stroke="none" stroke-width="1px">0</text><text x="0" y="336.0740851028182" dx="0em" dy="0.3em" style="text-anchor: end; visibility: inherit; font-family: &quot;Helvetica Neue&quot;, sans-serif; font-size: 12px; font-weight: 200;" fill="rgb(50, 49, 63)" stroke="none" stroke-width="1px">0.1</text><text x="0" y="301.14171516955116" dx="0em" dy="0.3em" style="text-anchor: end; visibility: inherit; font-family: &quot;Helvetica Neue&quot;, sans-serif; font-size: 12px; font-weight: 200;" fill="rgb(50, 49, 63)" stroke="none" stroke-width="1px">0.2</text><text x="0" y="266.2093452362842" dx="0em" dy="0.3em" style="text-anchor: end; visibility: inherit; font-family: &quot;Helvetica Neue&quot;, sans-serif; font-size: 12px; font-weight: 200;" fill="rgb(50, 49, 63)" stroke="none" stroke-width="1px">0.3</text><text x="0" y="231.27697530301722" dx="0em" dy="0.3em" style="text-anchor: end; visibility: inherit; font-family: &quot;Helvetica Neue&quot;, sans-serif; font-size: 12px; font-weight: 200;" fill="rgb(50, 49, 63)" stroke="none" stroke-width="1px">0.4</text><text x="0" y="196.3446053697502" dx="0em" dy="0.3em" style="text-anchor: end; visibility: inherit; font-family: &quot;Helvetica Neue&quot;, sans-serif; font-size: 12px; font-weight: 200;" fill="rgb(50, 49, 63)" stroke="none" stroke-width="1px">0.5</text><text x="0" y="161.41223543648326" dx="0em" dy="0.3em" style="text-anchor: end; visibility: inherit; font-family: &quot;Helvetica Neue&quot;, sans-serif; font-size: 12px; font-weight: 200;" fill="rgb(50, 49, 63)" stroke="none" stroke-width="1px">0.6</text><text x="0" y="126.47986550321627" dx="0em" dy="0.3em" style="text-anchor: end; visibility: inherit; font-family: &quot;Helvetica Neue&quot;, sans-serif; font-size: 12px; font-weight: 200;" fill="rgb(50, 49, 63)" stroke="none" stroke-width="1px">0.7</text><text x="0" y="91.54749556994926" dx="0em" dy="0.3em" style="text-anchor: end; visibility: inherit; font-family: &quot;Helvetica Neue&quot;, sans-serif; font-size: 12px; font-weight: 200;" fill="rgb(50, 49, 63)" stroke="none" stroke-width="1px">0.8</text><text x="0" y="56.61512563668225" dx="0em" dy="0.3em" style="text-anchor: end; visibility: inherit; font-family: &quot;Helvetica Neue&quot;, sans-serif; font-size: 12px; font-weight: 200;" fill="rgb(50, 49, 63)" stroke="none" stroke-width="1px">0.9</text><text x="0" y="21.68275570341524" dx="0em" dy="0.3em" style="text-anchor: end; visibility: inherit; font-family: &quot;Helvetica Neue&quot;, sans-serif; font-size: 12px; font-weight: 200;" fill="rgb(50, 49, 63)" stroke="none" stroke-width="1px">1</text></g><line x1="39.109375" y1="0" x2="39.109375" y2="377" fill="rgb(0, 0, 0)" stroke="rgb(204, 204, 204)" stroke-width="1px"></line></g></g><g transform="translate(39, 0)" clip-path="url(#clip_0)"><clipPath id="clip_0"><rect width="879" height="377"></rect></clipPath><g><g><g><line x1="31.601631934722484" y1="0" x2="31.601631934722484" y2="377" fill="rgb(0, 0, 0)" stroke="rgb(60, 60, 60)" stroke-width="1px" opacity="0.25"></line><line x1="148.0394179174058" y1="0" x2="148.0394179174058" y2="377" fill="rgb(0, 0, 0)" stroke="rgb(60, 60, 60)" stroke-width="1px" opacity="0.25"></line><line x1="264.4772039000892" y1="0" x2="264.4772039000892" y2="377" fill="rgb(0, 0, 0)" stroke="rgb(60, 60, 60)" stroke-width="1px" opacity="0.25"></line><line x1="380.9149898827725" y1="0" x2="380.9149898827725" y2="377" fill="rgb(0, 0, 0)" stroke="rgb(60, 60, 60)" stroke-width="1px" opacity="0.25"></line><line x1="497.3527758654559" y1="0" x2="497.3527758654559" y2="377" fill="rgb(0, 0, 0)" stroke="rgb(60, 60, 60)" stroke-width="1px" opacity="0.25"></line><line x1="613.7905618481392" y1="0" x2="613.7905618481392" y2="377" fill="rgb(0, 0, 0)" stroke="rgb(60, 60, 60)" stroke-width="1px" opacity="0.25"></line><line x1="730.2283478308225" y1="0" x2="730.2283478308225" y2="377" fill="rgb(0, 0, 0)" stroke="rgb(60, 60, 60)" stroke-width="1px" opacity="0.25"></line><line x1="846.6661338135058" y1="0" x2="846.6661338135058" y2="377" fill="rgb(0, 0, 0)" stroke="rgb(60, 60, 60)" stroke-width="1px" opacity="0.25"></line></g><g><line x1="0" y1="371.0064550360852" x2="879.640625" y2="371.0064550360852" fill="rgb(0, 0, 0)" stroke="rgb(60, 60, 60)" stroke-width="1px" opacity="0.25"></line><line x1="0" y1="336.0740851028182" x2="879.640625" y2="336.0740851028182" fill="rgb(0, 0, 0)" stroke="rgb(60, 60, 60)" stroke-width="1px" opacity="0.25"></line><line x1="0" y1="301.14171516955116" x2="879.640625" y2="301.14171516955116" fill="rgb(0, 0, 0)" stroke="rgb(60, 60, 60)" stroke-width="1px" opacity="0.25"></line><line x1="0" y1="266.2093452362842" x2="879.640625" y2="266.2093452362842" fill="rgb(0, 0, 0)" stroke="rgb(60, 60, 60)" stroke-width="1px" opacity="0.25"></line><line x1="0" y1="231.27697530301722" x2="879.640625" y2="231.27697530301722" fill="rgb(0, 0, 0)" stroke="rgb(60, 60, 60)" stroke-width="1px" opacity="0.25"></line><line x1="0" y1="196.3446053697502" x2="879.640625" y2="196.3446053697502" fill="rgb(0, 0, 0)" stroke="rgb(60, 60, 60)" stroke-width="1px" opacity="0.25"></line><line x1="0" y1="161.41223543648326" x2="879.640625" y2="161.41223543648326" fill="rgb(0, 0, 0)" stroke="rgb(60, 60, 60)" stroke-width="1px" opacity="0.25"></line><line x1="0" y1="126.47986550321627" x2="879.640625" y2="126.47986550321627" fill="rgb(0, 0, 0)" stroke="rgb(60, 60, 60)" stroke-width="1px" opacity="0.25"></line><line x1="0" y1="91.54749556994926" x2="879.640625" y2="91.54749556994926" fill="rgb(0, 0, 0)" stroke="rgb(60, 60, 60)" stroke-width="1px" opacity="0.25"></line><line x1="0" y1="56.61512563668225" x2="879.640625" y2="56.61512563668225" fill="rgb(0, 0, 0)" stroke="rgb(60, 60, 60)" stroke-width="1px" opacity="0.25"></line><line x1="0" y1="21.68275570341524" x2="879.640625" y2="21.68275570341524" fill="rgb(0, 0, 0)" stroke="rgb(60, 60, 60)" stroke-width="1px" opacity="0.25"></line></g></g></g><g><g><line x1="0" y1="371.0064550360852" x2="879.640625" y2="371.0064550360852" fill="rgb(0, 0, 0)" stroke="rgb(153, 153, 153)" stroke-width="1.5px"></line></g></g><g><g><line x1="148.0394179174058" y1="0" x2="148.0394179174058" y2="377" fill="rgb(0, 0, 0)" stroke="rgb(153, 153, 153)" stroke-width="1.5px"></line></g></g><g><g><g><g><g><path stroke="rgb(0, 119, 187)" stroke-width="2px" d="M148.52845661853308,338.2573582236474L148.5983192901227,250.9264333904799L149.34352112041188,305.50826141120956L149.41338379200147,294.5918958070636L149.94899760752182,316.4246270153555L149.97228516471836,283.6755302029177L150.1352980650941,316.4246270153555L151.34625103931404,196.3446053697502L151.99830264081703,196.3446053697502L152.0914528696032,218.1773365780421L153.0462427146612,250.9264333904799L153.558568972985,196.3446053697502L154.1873330172915,229.09370218218803L155.0256850763668,163.5955085573124L155.98047492142481,152.6791429531665L156.56266385133824,119.93004614072868L157.40101591041358,76.26458372414498L158.63525644183,119.93004614072868L159.9859347592291,174.51187416145834L160.84757437550098,109.01368053658274L160.89414948989403,163.5955085573124L161.15031261905597,98.0973149324368L161.73250154896937,87.18094932829092L162.66400383683086,109.01368053658274L163.40920566712,174.51187416145834L163.47906833870962,141.76277734902055L163.5955061246923,119.93004614072868L164.3407079549815,87.18094932829092L165.31878535723604,98.0973149324368L165.38864802882563,119.93004614072868L167.0187770325832,87.18094932829092L167.62425351969316,76.26458372414498L167.81055397726544,119.93004614072868L168.43931802157195,87.18094932829092L168.60233092194767,98.0973149324368L168.6721935935373,98.0973149324368L169.02150695148535,76.26458372414498L169.09136962307494,109.01368053658274L169.69684611018494,76.26458372414498L171.51327557151478,109.01368053658274L172.2817649590005,141.76277734902055L172.607790759752,98.0973149324368L172.98039167489657,87.18094932829092L173.4228552616308,87.18094932829092L174.42422022108187,65.34821811999905L174.9598340366022,109.01368053658274L176.21736212521517,109.01368053658274L176.33379991119787,76.26458372414498L176.75297594073552,43.51548691170717L177.07900174148705,87.18094932829092L177.42831509943508,119.93004614072868L177.82420357177622,87.18094932829092L178.4762551732792,65.34821811999905L180.08309661984026,87.18094932829092L181.0378864648983,76.26458372414498L181.15432425088096,109.01368053658274L181.22418692247058,119.93004614072868L185.22964676027487,87.18094932829092L185.74197301859869,109.01368053658274L185.8118356901883,87.18094932829092L186.2542992769225,76.26458372414498L186.62690019206707,43.51548691170717L187.62826515151815,65.34821811999905L188.09401629544888,76.26458372414498L188.6063425537727,43.51548691170717L188.95565591172075,54.43185251585311L189.53784484163415,98.0973149324368L189.60770751322374,98.0973149324368L189.9337333139753,141.76277734902055L190.21318400033374,98.0973149324368L190.28304667192333,43.51548691170717L191.49399964614327,65.34821811999905L191.72687521810863,65.34821811999905L191.98303834727054,65.34821811999905L193.14741620709736,76.26458372414498L193.28714155027657,54.43185251585311L193.77618025140384,65.34821811999905L194.14878116654845,65.34821811999905L195.1967212403926,98.0973149324368L197.19945115929474,98.0973149324368L201.39121145467135,87.18094932829092L201.88025015579862,76.26458372414498L203.9062676318973,65.34821811999905L204.32544366143495,54.43185251585311L205.4898215212618,65.34821811999905L206.42132380912324,109.01368053658274L206.84049983866092,65.34821811999905L207.30625098259168,54.43185251585311L208.33090349923927,54.43185251585311L208.37747861363232,65.34821811999905L208.44734128522194,87.18094932829092L208.56377907120464,87.18094932829092L209.00624265793883,65.34821811999905L209.751444488228,98.0973149324368L210.65965921889293,54.43185251585311L211.82403707871978,43.51548691170717L213.12814028172582,65.34821811999905L214.12950524117687,54.43185251585311L214.75826928548338,65.34821811999905L215.01443241464528,98.0973149324368L216.06237248848944,76.26458372414498L217.2500379055128,76.26458372414498L218.647291337305,65.34821811999905L219.11304248123574,65.34821811999905L220.25413278386603,65.34821811999905L220.99933461415523,76.26458372414498L221.90754934482015,65.34821811999905L224.28288017886686,76.26458372414498L224.32945529325994,54.43185251585311L224.88835666597683,54.43185251585311L224.981506894763,21.68275570341524L225.30753269551448,98.0973149324368L225.33082025271102,109.01368053658274L225.61027093906944,65.34821811999905L226.37876032655518,65.34821811999905L227.96231421591966,65.34821811999905L228.35820268826083,98.0973149324368L228.59107826022617,65.34821811999905L229.35956764771186,87.18094932829092L229.38285520490842,76.26458372414498L231.19928466623827,76.26458372414498L232.13078695409973,65.34821811999905L232.31708741167205,54.43185251585311L233.3650274855162,65.34821811999905L235.11159427525644,98.0973149324368L235.2047445040426,76.26458372414498L235.2280320612391,54.43185251585311L235.4143325188114,76.26458372414498L235.786933433956,65.34821811999905L235.81022099115253,87.18094932829092L236.36912236386942,98.0973149324368L237.62665045248238,21.68275570341524L237.8129509100547,54.43185251585311L237.97596381043041,76.26458372414498L238.0924015964131,65.34821811999905L240.4910199876564,54.43185251585311L241.16635914635597,43.51548691170717L241.65539784748321,32.599121307561234L243.75127799517153,43.51548691170717L244.96223096939144,76.26458372414498L245.96359592884252,54.43185251585311L246.12660882921827,76.26458372414498L246.89509821670396,54.43185251585311L247.59372493260008,65.34821811999905L247.6868751613862,76.26458372414498L249.36357927953688,43.51548691170717L251.20329629806326,43.51548691170717L251.57589721320787,43.51548691170717L252.1115110287282,54.43185251585311L252.62383728705203,54.43185251585311L253.34575156014463,65.34821811999905L254.4169791911853,54.43185251585311L255.74436995138794,76.26458372414498L256.093683309336,76.26458372414498L256.72244735364245,76.26458372414498L257.25806116916283,87.18094932829092L257.60737452711084,87.18094932829092L258.32928880020347,43.51548691170717L259.05120307329616,54.43185251585311L259.42380398844074,109.01368053658274L261.519684136129,43.51548691170717L261.7758472652909,65.34821811999905L263.12652558269,32.599121307561234L264.8032297008407,54.43185251585311L265.17583061598526,43.51548691170717L265.5717190883264,65.34821811999905L265.71144443150564,54.43185251585311L265.75801954589866,76.26458372414498L265.80459466029174,98.0973149324368L266.0141826750606,54.43185251585311L266.7593845053498,87.18094932829092L267.08541030610127,54.43185251585311L267.24842320647707,54.43185251585311L267.8771872507835,76.26458372414498L267.97033747956965,43.51548691170717L268.27307572312463,54.43185251585311L269.158002896593,65.34821811999905L269.9963549556684,76.26458372414498L272.53469869009086,32.599121307561234L273.5127760923454,43.51548691170717L273.5360636495419,54.43185251585311L274.3511281514207,54.43185251585311L275.07304242451335,43.51548691170717L275.7250940260164,98.0973149324368L276.0045447123748,65.34821811999905L276.16755761275056,76.26458372414498L276.49358341350205,87.18094932829092L276.65659631387786,65.34821811999905L277.21549768659474,87.18094932829092L277.54152348734624,54.43185251585311L277.8209741737047,43.51548691170717L278.35658798922503,54.43185251585311L278.4730257752077,43.51548691170717L279.45110317746224,43.51548691170717L280.3127427937341,54.43185251585311L280.45246813691335,109.01368053658274L281.826434011509,43.51548691170717L282.2688975982432,65.34821811999905L282.478485613012,65.34821811999905L282.6414985133878,43.51548691170717L283.94560171639387,32.599121307561234L285.1332671334172,54.43185251585311L286.29764499324403,43.51548691170717L289.83735368711757,32.599121307561234L289.9770790302968,54.43185251585311L290.39625505983446,65.34821811999905L290.5825555174068,54.43185251585311L292.09624673518164,43.51548691170717L292.2359720783609,32.599121307561234L292.30583474995046,65.34821811999905L292.53871032191586,43.51548691170717L292.631860550702,109.01368053658274L292.6784356650951,54.43185251585311L292.79487345107776,76.26458372414498L295.30992962830373,98.0973149324368L295.496230085876,32.599121307561234L295.5195176430725,43.51548691170717L295.89211855821713,54.43185251585311L299.45511480928724,76.26458372414498L300.03730373920064,54.43185251585311L302.2729092300682,32.599121307561234L302.43592213044394,43.51548691170717L303.6701626618604,43.51548691170717L304.5085147209357,54.43185251585311L305.649605023566,65.34821811999905L308.1180860863989,76.26458372414498L308.14137364359544,54.43185251585311L308.93315058827767,54.43185251585311L310.05095333371145,65.34821811999905L310.14410356249755,76.26458372414498L310.33040402006986,76.26458372414498L311.2619063079313,54.43185251585311L311.3084814223244,76.26458372414498L311.4714943227002,32.599121307561234L311.5646445514863,32.599121307561234L312.63587218252695,65.34821811999905L312.938610426082,76.26458372414498L313.0084730976716,65.34821811999905L313.4043615700127,43.51548691170717L313.45093668440575,54.43185251585311L313.89340027113997,54.43185251585311L315.31394126012873,54.43185251585311L315.57010438929063,65.34821811999905L316.29201866238327,65.34821811999905L316.38516889116937,87.18094932829092L316.455031562759,65.34821811999905L318.90022506839534,65.34821811999905L319.17967575475376,65.34821811999905L319.6687144558811,98.0973149324368L319.73857712747065,43.51548691170717L319.90159002784645,76.26458372414498L320.7166545297252,54.43185251585311L323.744036965275,32.599121307561234L324.44266368117104,54.43185251585311L324.86183971070875,65.34821811999905L325.65361665539103,32.599121307561234L326.21251802810787,65.34821811999905L326.53854382885936,43.51548691170717L327.7960719174724,32.599121307561234L330.14811519432254,54.43185251585311L330.6604414526464,65.34821811999905L332.61659625715544,87.18094932829092L332.7796091575312,54.43185251585311L332.8960469435139,32.599121307561234L335.1549399915779,65.34821811999905L338.2288975415208,76.26458372414498L338.34533532750345,54.43185251585311L339.4165629585442,43.51548691170717L340.83710394753285,32.599121307561234L342.2809324937182,76.26458372414498L342.5138080656835,76.26458372414498L342.67682096605927,43.51548691170717L342.8165463092385,54.43185251585311L343.14257210999006,54.43185251585311L343.4220227963485,65.34821811999905L343.5850356967242,54.43185251585311L343.74804859709997,43.51548691170717L344.1206495122446,76.26458372414498L344.9822891285164,54.43185251585311L345.63434073001946,54.43185251585311L346.915156375829,54.43185251585311L347.84665866369045,43.51548691170717L347.8932337780835,43.51548691170717L348.24254713603153,87.18094932829092L348.3589849220142,65.34821811999905L348.73158583715883,54.43185251585311L348.94117385192766,54.43185251585311L349.52336278184106,54.43185251585311L351.71239315831554,32.599121307561234L351.7589682727086,65.34821811999905L353.7616981916107,43.51548691170717L354.2973120071311,76.26458372414498L354.39046223591725,87.18094932829092L354.64662536507916,54.43185251585311L354.66991292227567,65.34821811999905L354.8096382654549,87.18094932829092L355.53155253854754,65.34821811999905L356.23017925444367,54.43185251585311L356.92880597033974,54.43185251585311L357.3014068854843,54.43185251585311L357.39455711427047,65.34821811999905L360.58495245019594,43.51548691170717L361.0972787085198,76.26458372414498L361.4698796236644,43.51548691170717L363.1000086274219,32.599121307561234L363.6589100001388,43.51548691170717L364.28767404444534,65.34821811999905L366.5698546497059,32.599121307561234L366.6630048784921,43.51548691170717L366.8027302216713,54.43185251585311L367.8273827383189,32.599121307561234L369.8068251000245,54.43185251585311L369.8534002144176,65.34821811999905L370.2492886867587,76.26458372414498L370.62188960190326,76.26458372414498L370.92462784545825,76.26458372414498L372.3684563916436,54.43185251585311L372.694482192395,54.43185251585311L374.0684480669907,54.43185251585311L374.69721211129723,130.84641174487462L374.7670747828868,54.43185251585311L374.8369374544764,54.43185251585311L375.32597615560366,87.18094932829092L375.9081650855171,21.68275570341524L376.23419088626866,54.43185251585311L376.93281760216473,54.43185251585311L377.07254294534397,21.68275570341524L377.14240561693356,54.43185251585311L378.46979637713616,54.43185251585311L379.2382857646218,32.599121307561234L379.4478737793907,76.26458372414498L379.58759912256994,65.34821811999905L379.7738995801422,32.599121307561234L382.07936774259935,54.43185251585311L382.59169400092316,76.26458372414498L383.54648384598113,43.51548691170717L383.7793594179465,43.51548691170717L383.98894743271535,76.26458372414498L384.5012736910391,87.18094932829092L384.73414926300455,65.34821811999905L385.08346262095256,43.51548691170717L385.89852712283135,43.51548691170717L386.29441559517244,54.43185251585311L386.5040036099413,76.26458372414498L387.92454459893,65.34821811999905L388.06426994210926,43.51548691170717L388.53002108604,32.599121307561234L388.832759329595,54.43185251585311L389.6711113886703,65.34821811999905L389.74097406025993,43.51548691170717L390.1601500897976,76.26458372414498L390.7656265769075,32.599121307561234L392.44233069505816,54.43185251585311L393.3738329829196,32.599121307561234L393.6299961120815,32.599121307561234L393.8162965696538,43.51548691170717L394.0025970272261,32.599121307561234L394.09574725601226,54.43185251585311L394.39848549956724,43.51548691170717L394.72451130031874,54.43185251585311L396.7971038908105,76.26458372414498L397.0532670199724,54.43185251585311L397.8916190790477,65.34821811999905L398.5902457949438,54.43185251585311L399.56832319719837,32.599121307561234L399.7080485403776,43.51548691170717L400.47653792786326,76.26458372414498L400.77927617141825,76.26458372414498L400.8957139574009,54.43185251585311L401.6409157876901,76.26458372414498L401.87379135965546,43.51548691170717L402.6422807471412,76.26458372414498L402.66556830433774,76.26458372414498L403.43405769182345,43.51548691170717L403.806658606968,87.18094932829092L403.8532337213611,32.599121307561234L404.24912219370225,32.599121307561234L404.64501066604333,65.34821811999905L404.6915857804364,65.34821811999905L405.2271995959568,32.599121307561234L405.27377471034987,32.599121307561234L405.83267608306676,54.43185251585311L405.85596364026327,65.34821811999905L406.9039037141074,43.51548691170717L407.50938020121737,76.26458372414498L408.5107451606685,32.599121307561234L408.534032717865,54.43185251585311L408.6038953894546,65.34821811999905L409.16279676217147,54.43185251585311L409.23265943376106,65.34821811999905L409.79156080647795,43.51548691170717L410.02443637844334,32.599121307561234L410.6532004227498,65.34821811999905L412.1668916405247,76.26458372414498L413.0052436996,43.51548691170717L413.4709948435308,65.34821811999905L414.02989621624766,54.43185251585311L415.6367376628086,32.599121307561234L415.9394759063636,43.51548691170717L418.081931168445,32.599121307561234L418.1285062828381,65.34821811999905L418.1983689544277,32.599121307561234L418.4312445263931,76.26458372414498L418.6874076555549,32.599121307561234L419.5257597146303,65.34821811999905L419.87507307257835,76.26458372414498L419.9216481869714,32.599121307561234L420.15452375893676,54.43185251585311L420.9928758180121,43.51548691170717L422.29697902101816,54.43185251585311L422.99560573691423,98.0973149324368L423.5312195524346,43.51548691170717L425.06819832740604,65.34821811999905L425.1613485561922,54.43185251585311L426.0462757296606,32.599121307561234L426.48873931639474,54.43185251585311L427.62982961902503,21.68275570341524L429.6325595379272,32.599121307561234L429.842147552696,65.34821811999905L431.02981296971944,43.51548691170717L431.77501480000853,54.43185251585311L432.054465486367,54.43185251585311L433.6380193757315,32.599121307561234L434.05719540526917,21.68275570341524L434.08048296246574,76.26458372414498L434.4763714348068,43.51548691170717L434.5928092207895,43.51548691170717L435.0119852503272,32.599121307561234L436.5955391396917,54.43185251585311L437.0380027264258,43.51548691170717L437.48046631316004,76.26458372414498L438.7147068445765,54.43185251585311L439.1105953169176,54.43185251585311L439.4133335604726,65.34821811999905L440.15853539076176,43.51548691170717L440.53113630590633,54.43185251585311L441.39277592217826,98.0973149324368L441.555788822554,54.43185251585311L441.71880172292975,76.26458372414498L441.9749648520916,32.599121307561234L441.9982524092882,43.51548691170717L443.2557804979011,43.51548691170717L443.48865606986647,65.34821811999905L443.6516689702423,76.26458372414498L443.67495652743884,76.26458372414498L445.65439888914443,76.26458372414498L445.9105620183064,21.68275570341524L446.4694633910232,43.51548691170717L447.0516523209366,87.18094932829092L447.2146652213124,54.43185251585311L447.3311030072951,65.34821811999905L447.89000438001193,54.43185251585311L448.30918040954964,43.51548691170717L448.5187684243184,43.51548691170717L448.72835643908724,43.51548691170717L450.70779880079283,54.43185251585311L451.406425516689,43.51548691170717L451.56943841706476,21.68275570341524L451.7790264318336,54.43185251585311L453.19956742082235,43.51548691170717L453.29271764960845,32.599121307561234L453.4091554355911,65.34821811999905L453.96805680830806,65.34821811999905L454.2242199374699,32.599121307561234L454.317370166256,87.18094932829092L454.922846653366,32.599121307561234L454.9461342105626,32.599121307561234L455.20229733972445,76.26458372414498L456.41325031394433,21.68275570341524L457.9036539745227,65.34821811999905L457.9502290889158,32.599121307561234L458.18310466088116,32.599121307561234L458.90501893397374,43.51548691170717L459.999534122211,65.34821811999905L460.5351479377313,54.43185251585311L461.69952579755824,87.18094932829092L462.4913027422404,32.599121307561234L463.9351312884257,76.26458372414498L464.6570455615184,54.43185251585311L466.1241616649001,32.599121307561234L466.58991280883095,65.34821811999905L466.7762132664032,32.599121307561234L467.7775782258542,65.34821811999905L467.87072845464047,54.43185251585311L468.4063422701608,65.34821811999905L468.4762049417504,43.51548691170717L469.0351063144672,32.599121307561234L469.10496898605686,32.599121307561234L469.38441967241533,43.51548691170717L471.96933852123084,32.599121307561234L472.015913635624,76.26458372414498L472.48166477955465,54.43185251585311L474.2980942408845,32.599121307561234L476.85972553250355,43.51548691170717L477.58163980559624,65.34821811999905L478.18711629270615,65.34821811999905L479.70080751048107,43.51548691170717L480.11998354001867,43.51548691170717L480.39943422637714,54.43185251585311L480.46929689796673,43.51548691170717L481.70353742938323,54.43185251585311L481.79668765816933,32.599121307561234L483.10079086117537,43.51548691170717L483.5665420051061,32.599121307561234L484.54461940736064,32.599121307561234L485.26653368045334,32.599121307561234L485.35968390923944,54.43185251585311L485.429546580829,76.26458372414498L485.5925594812048,76.26458372414498L485.82543505317017,32.599121307561234L486.7802248982282,43.51548691170717L487.2692635993555,54.43185251585311L487.3158387137485,87.18094932829092L487.4089889425346,54.43185251585311L488.85281748872,43.51548691170717L489.7843197765814,43.51548691170717L489.8076073337779,54.43185251585311L490.1802082489225,54.43185251585311L490.34322114929824,54.43185251585311L490.83225985042554,43.51548691170717L491.50759900912516,43.51548691170717L491.99663771025234,21.68275570341524L492.2760883966108,76.26458372414498L493.1144404556861,54.43185251585311L493.3706035848481,32.599121307561234L494.1623805295303,32.599121307561234L495.69935930450174,32.599121307561234L495.7925095332879,65.34821811999905L497.1664754078835,32.599121307561234L498.02811502415545,54.43185251585311L498.09797769574493,65.34821811999905L499.70481914230606,54.43185251585311L499.77468181389565,54.43185251585311L500.07742005745064,43.51548691170717L501.12536013129477,43.51548691170717L501.24179791727744,54.43185251585311L501.2883730316705,54.43185251585311L501.35823570326016,54.43185251585311L501.5911112752255,32.599121307561234L501.63768638961864,87.18094932829092L503.01165226421426,43.51548691170717L503.1513776073935,54.43185251585311L503.17466516459,43.51548691170717L503.43082829375186,76.26458372414498L504.432193253203,54.43185251585311L504.5020559247926,32.599121307561234L505.59657111302977,32.599121307561234L505.6431462274229,54.43185251585311L506.8075240872497,32.599121307561234L507.01711210201853,32.599121307561234L507.04039965921504,21.68275570341524L507.2034125595909,54.43185251585311L507.52943836034234,54.43185251585311L508.4609406482038,54.43185251585311L508.8801166777415,32.599121307561234L509.04312957811726,65.34821811999905L509.3458678216722,43.51548691170717L509.8116189656029,65.34821811999905L510.1143572091579,43.51548691170717L510.27737010953365,54.43185251585311L510.8129839250541,54.43185251585311L510.8362714822506,54.43185251585311L510.9294217110367,43.51548691170717L511.51161064095015,43.51548691170717L512.1636622424531,65.34821811999905L512.3033875856323,43.51548691170717L512.3965378144186,54.43185251585311L512.7458511723665,65.34821811999905L513.5143405598523,65.34821811999905L513.7705036890142,43.51548691170717L514.7252935340722,43.51548691170717L515.3540575783787,54.43185251585311L515.9828216226852,43.51548691170717L516.0061091798817,65.34821811999905L516.6814483385813,43.51548691170717L517.8691137556046,65.34821811999905L518.5211653571076,65.34821811999905L519.1732169586107,76.26458372414498L519.4293800877725,43.51548691170717L520.1047192464722,43.51548691170717L520.1280068036687,21.68275570341524L521.0827966487267,43.51548691170717L522.2238869513569,43.51548691170717L522.8992261100565,43.51548691170717L525.2745569441033,32.599121307561234L525.2978445012998,54.43185251585311L525.3211320584963,21.68275570341524L525.4375698444791,43.51548691170717L525.6937329736409,43.51548691170717L526.2759219035544,32.599121307561234L526.3224970179475,54.43185251585311L526.9046859478608,54.43185251585311L527.6964628925431,54.43185251585311L528.7676905235837,65.34821811999905L529.8854932690175,54.43185251585311L530.6772702136998,65.34821811999905L530.7471328852895,43.51548691170717L530.7704204424859,65.34821811999905L531.4457596011855,76.26458372414498L531.9580858595093,54.43185251585311L532.4238370034401,32.599121307561234L532.7964379185846,76.26458372414498L533.3786268484981,21.68275570341524L534.9621807378626,32.599121307561234L535.497794553383,43.51548691170717L535.9402581401171,43.51548691170717L538.3854516457534,43.51548691170717L539.1772285904357,54.43185251585311L539.4101041624011,43.51548691170717L540.667632251014,43.51548691170717L540.7840700369967,54.43185251585311L541.925160339627,32.599121307561234L542.5539243839336,87.18094932829092L542.57721194113,65.34821811999905L543.4621391145985,32.599121307561234L544.6032294172287,54.43185251585311L545.5347317050902,65.34821811999905L545.5813068194833,65.34821811999905L546.6991095649171,43.51548691170717L546.8854100224893,32.599121307561234L549.5867666572875,54.43185251585311L549.9360800152357,32.599121307561234L550.0292302440217,65.34821811999905L550.3552560447732,76.26458372414498L550.821007188704,76.26458372414498L552.4045610780686,21.68275570341524L552.4744237496581,65.34821811999905L552.9634624507854,65.34821811999905L553.2894882515369,32.599121307561234L553.3593509231265,65.34821811999905L553.5689389378954,54.43185251585311L554.1278403106122,54.43185251585311L554.3840034397741,65.34821811999905L554.7100292405256,32.599121307561234L554.8031794693118,32.599121307561234L555.245643056046,76.26458372414498L555.9908448863351,32.599121307561234L556.899059617,43.51548691170717L557.0387849601793,76.26458372414498L557.2250854177516,54.43185251585311L558.2730254915958,32.599121307561234L559.064802436278,43.51548691170717L559.763429152174,54.43185251585311L559.9963047241395,54.43185251585311L560.7880816688217,54.43185251585311L561.6031461707005,32.599121307561234L561.9058844142555,32.599121307561234L562.0456097574347,21.68275570341524L562.3716355581862,32.599121307561234L563.5593009752096,32.599121307561234L565.748331351684,43.51548691170717L565.9579193664529,32.599121307561234L566.7264087539386,43.51548691170717L567.5647608130139,76.26458372414498L568.3332502004996,54.43185251585311L568.7757137872337,54.43185251585311L568.9387266876095,76.26458372414498L570.0565294330432,54.43185251585311L571.3606326360494,32.599121307561234L571.4072077504425,54.43185251585311L572.5948731674658,54.43185251585311L574.5976030863679,76.26458372414498L574.8304786583334,43.51548691170717L575.6921182746051,65.34821811999905L575.8551311749809,32.599121307561234L575.901706289374,76.26458372414498L578.7893633817445,54.43185251585311L580.2099043707333,32.599121307561234L580.326342156716,43.51548691170717L580.7688057434502,54.43185251585311L581.0482564298086,54.43185251585311L581.0715439870052,32.599121307561234L581.2112693301843,54.43185251585311L581.6537329169186,43.51548691170717L582.3523596328147,76.26458372414498L582.3756471900113,43.51548691170717L582.4687974187973,54.43185251585311L582.7249605479593,43.51548691170717L582.9112610055315,43.51548691170717L583.9126259649826,32.599121307561234L584.8208406956475,76.26458372414498L585.1934416107921,54.43185251585311L586.008506112671,43.51548691170717L586.5674074853878,32.599121307561234L587.9879484743766,43.51548691170717L588.7098627474692,65.34821811999905L588.7797254190588,54.43185251585311L590.3632793084232,65.34821811999905L590.5030046516025,21.68275570341524L591.2947815962848,43.51548691170717L591.5276571682501,43.51548691170717L591.9235456405912,21.68275570341524L592.5057345705047,43.51548691170717L592.7386101424701,76.26458372414498L593.1810737292043,32.599121307561234L593.7865502163141,43.51548691170717L594.0660009026726,54.43185251585311L594.5783271609964,21.68275570341524L597.3262589101878,43.51548691170717L599.3057012718933,65.34821811999905L600.0509031021825,54.43185251585311L601.0988431760267,43.51548691170717L601.6810321059402,65.34821811999905L602.28650859305,43.51548691170717L602.3097961502466,98.0973149324368L602.3563712646397,43.51548691170717L602.4262339362293,54.43185251585311L603.7769122536284,32.599121307561234L603.9865002683972,54.43185251585311L605.5234790433686,65.34821811999905L605.5933417149583,21.68275570341524L605.802929729727,54.43185251585311L606.9673075895539,54.43185251585311L607.4330587334846,43.51548691170717L607.5727840766639,43.51548691170717L608.6440117077045,76.26458372414498L609.3659259807972,32.599121307561234L609.5755139955661,32.599121307561234L609.7618144531383,54.43185251585311L610.9960549845547,32.599121307561234L611.182355442127,32.599121307561234L611.4385185712889,43.51548691170717L614.4193258924456,43.51548691170717L614.4891885640353,54.43185251585311L614.8152143647867,54.43185251585311L617.0275322984578,54.43185251585311L618.4247857302499,54.43185251585311L618.5645110734291,43.51548691170717L618.6576613022153,54.43185251585311L619.6357387044699,21.68275570341524L620.2645027487764,32.599121307561234L620.6371036639209,32.599121307561234L620.7535414499037,43.51548691170717L620.8466916786897,43.51548691170717L621.0795672506551,76.26458372414498L621.3823054942102,54.43185251585311L623.6644860994708,43.51548691170717L624.1768123577946,21.68275570341524L624.4795506013495,54.43185251585311L624.9685893024767,54.43185251585311L625.4343404464074,54.43185251585311L625.806941361552,32.599121307561234L626.9946067785754,65.34821811999905L627.5767957084888,43.51548691170717L629.3699376126223,43.51548691170717L629.4398002842119,65.34821811999905L629.5329505129979,54.43185251585311L629.8822638709461,32.599121307561234L630.2082896716976,87.18094932829092L632.0712942474205,43.51548691170717L632.443895162565,32.599121307561234L635.1452517973634,65.34821811999905L636.4027798859762,43.51548691170717L637.2644195022482,32.599121307561234L638.0794840041269,43.51548691170717L639.080848963578,32.599121307561234L639.686325450688,32.599121307561234L639.9424885798499,43.51548691170717L639.9657761370464,32.599121307561234L640.8041281961217,43.51548691170717L641.293166897249,54.43185251585311L642.0616562847347,43.51548691170717L642.3876820854862,32.599121307561234L643.8780857460646,32.599121307561234L645.0890387202844,43.51548691170717L645.8575281077701,43.51548691170717L646.8356055100247,76.26458372414498L647.324644211152,76.26458372414498L647.9068331410654,43.51548691170717L650.1424386319329,87.18094932829092L650.7246275618463,65.34821811999905L651.3999667205459,65.34821811999905L651.5396920637252,21.68275570341524L651.7725676356905,76.26458372414498L652.0520183220489,76.26458372414498L652.4013316799969,76.26458372414498L652.4711943515865,65.34821811999905L653.3794090822515,21.68275570341524L653.5889970970203,65.34821811999905L653.8917353405753,54.43185251585311L654.008173126558,54.43185251585311L654.8931003000264,54.43185251585311L655.1492634291883,32.599121307561234L655.6383021303155,21.68275570341524L656.523229303784,65.34821811999905L657.0355555621078,32.599121307561234L657.6876071636108,76.26458372414498L657.8506200639865,54.43185251585311L657.9437702927727,54.43185251585311L658.223220979131,43.51548691170717L658.2697960935242,32.599121307561234L659.5273241821372,65.34821811999905L660.4355389128021,65.34821811999905L661.4136163150566,65.34821811999905L661.6232043298255,54.43185251585311L662.1821057025423,32.599121307561234L662.6944319608662,43.51548691170717L663.3231960051726,54.43185251585311L663.9985351638722,54.43185251585311L665.6053766104333,43.51548691170717L666.117702868757,54.43185251585311L667.9108447728903,32.599121307561234L668.073857673266,21.68275570341524L668.2601581308385,32.599121307561234L669.0286475183241,43.51548691170717L669.7272742342202,87.18094932829092L670.0533000349718,32.599121307561234L670.2861756069371,65.34821811999905L670.4491885073129,54.43185251585311L671.3574032379778,43.51548691170717L672.6382188837873,21.68275570341524L673.0341073561284,76.26458372414498L673.2436953708973,54.43185251585311L673.406708271273,43.51548691170717L673.5231460572558,43.51548691170717L675.3628630757821,43.51548691170717L676.1080649060713,43.51548691170717L676.6669662787882,32.599121307561234L676.8998418507535,32.599121307561234L677.5053183378635,32.599121307561234L678.3436703969388,21.68275570341524L679.2984602419968,32.599121307561234L679.3217477991933,54.43185251585311L679.7874989431241,43.51548691170717L680.4861256590201,65.34821811999905L682.3724177919396,43.51548691170717L682.7217311498877,54.43185251585311L683.210769851015,21.68275570341524L683.816246338125,65.34821811999905L684.0491219100903,43.51548691170717L684.5614481684141,21.68275570341524L685.1669246555241,21.68275570341524L688.6134831206115,54.43185251585311L689.288822279311,43.51548691170717L690.0805992239933,32.599121307561234L690.7792259398893,21.68275570341524L690.8490886114789,43.51548691170717L691.4778526557856,54.43185251585311L692.2230544860746,43.51548691170717L692.4792176152366,21.68275570341524L693.5504452462773,43.51548691170717L693.6435954750633,54.43185251585311L694.2490719621733,43.51548691170717L694.318934633763,43.51548691170717L694.8545484492832,32.599121307561234L694.9476986780695,54.43185251585311L694.970986235266,54.43185251585311L696.1353640950928,43.51548691170717L696.6011152390236,54.43185251585311L696.9038534825786,54.43185251585311L697.6257677556712,65.34821811999905L699.2326092022322,32.599121307561234L699.3024718738218,43.51548691170717L699.4189096598045,65.34821811999905L699.5819225601803,43.51548691170717L699.698360346163,32.599121307561234L701.3284893499205,43.51548691170717L701.5613649218859,54.43185251585311L701.5846524790824,32.599121307561234L701.6079400362789,65.34821811999905L705.124361172956,54.43185251585311L705.822987888852,43.51548691170717L706.1257261324071,54.43185251585311L706.2421639183898,65.34821811999905L706.5914772763377,32.599121307561234L707.2435288778408,54.43185251585311L707.4764044498062,43.51548691170717L708.2216062800953,65.34821811999905L708.6640698668295,54.43185251585311L709.0133832247776,43.51548691170717L710.2243361989975,65.34821811999905L710.6667997857318,43.51548691170717L710.6900873429282,43.51548691170717L710.7832375717144,43.51548691170717L711.2722762728416,43.51548691170717L711.4585767304139,54.43185251585311L711.5517269592001,54.43185251585311L712.2969287894892,43.51548691170717L713.111993291368,54.43185251585311L714.3928089371775,65.34821811999905L715.2544485534495,54.43185251585311L715.5338992398079,43.51548691170717L715.8599250405593,43.51548691170717L716.5119766420623,43.51548691170717L716.535264199259,54.43185251585311L717.3736162583343,54.43185251585311L718.5845692325541,32.599121307561234L718.7242945757334,54.43185251585311L718.8873074761092,21.68275570341524L719.2599083912537,54.43185251585311L719.3763461772363,65.34821811999905L719.399633734433,32.599121307561234L720.2845609079013,54.43185251585311L720.5872991514564,43.51548691170717L721.2626383101558,32.599121307561234L723.3352309006476,98.0973149324368L723.4982438010234,32.599121307561234L723.8475571589714,54.43185251585311L724.1968705169195,32.599121307561234L724.8023470040295,54.43185251585311L725.9201497494631,43.51548691170717L726.4091884505905,65.34821811999905L726.5954889081627,32.599121307561234L726.7817893657351,54.43185251585311L727.5269911960243,43.51548691170717L727.6900040964,43.51548691170717L727.9927423399549,87.18094932829092L728.2489054691168,32.599121307561234L728.4817810410822,32.599121307561234L728.6680814986545,32.599121307561234L729.4132833289437,32.599121307561234L730.6009487459671,54.43185251585311L731.0899874470944,32.599121307561234L731.9516270633662,32.599121307561234L732.766691565245,43.51548691170717L735.7707864435981,21.68275570341524L740.2419974253332,54.43185251585311L742.1282895582527,32.599121307561234L742.3611651302181,43.51548691170717L743.1995171892934,32.599121307561234L743.4556803184554,43.51548691170717L743.5022554328484,43.51548691170717L743.6419807760276,54.43185251585311L744.7364959642649,43.51548691170717L744.8063586358545,43.51548691170717L745.0625217650163,54.43185251585311L745.831011152502,32.599121307561234L747.2981272558839,76.26458372414498L747.5542903850458,21.68275570341524L749.4638700751617,54.43185251585311L749.9994838906822,65.34821811999905L752.1419391527635,32.599121307561234L752.6309778538908,32.599121307561234L752.817278311463,54.43185251585311L753.2364543410008,43.51548691170717L754.8200082303653,43.51548691170717L754.9597335735444,32.599121307561234L755.6583602894406,76.26458372414498L756.4268496769263,43.51548691170717L756.4501372341227,65.34821811999905L757.2186266216086,32.599121307561234L757.7309528799323,21.68275570341524L757.7775279943254,43.51548691170717L757.9638284518976,76.26458372414498L759.2912192121003,32.599121307561234L760.1994339427652,32.599121307561234L760.2227214999617,54.43185251585311L761.6898376033436,21.68275570341524L761.7364127177366,54.43185251585311L762.1323011900778,32.599121307561234L762.7377776771876,54.43185251585311L764.1350311089798,32.599121307561234L764.274756452159,21.68275570341524L764.9966707252516,43.51548691170717L765.0199582824481,54.43185251585311L765.3459840831997,43.51548691170717L765.9980356847027,32.599121307561234L771.9130752126231,87.18094932829092L773.0075904008603,43.51548691170717L773.6829295595599,87.18094932829092L773.776079788346,65.34821811999905L774.0322429175078,54.43185251585311L774.8705949765831,21.68275570341524L774.9171700909762,43.51548691170717L774.9637452053694,32.599121307561234L776.1048355079996,65.34821811999905L776.64044932352,43.51548691170717L776.6637368807164,43.51548691170717L777.1062004674507,43.51548691170717L777.6883893973642,21.68275570341524L778.2240032128844,32.599121307561234L778.5500290136359,65.34821811999905L780.6226216041277,54.43185251585311L781.7637119067581,54.43185251585311L782.5089137370472,21.68275570341524L782.671926637423,54.43185251585311L784.6746565563252,76.26458372414498L785.6760215157763,76.26458372414498L787.2828629623372,43.51548691170717L787.795189220661,32.599121307561234L788.8431292945052,43.51548691170717L791.1253098997657,54.43185251585311L791.7074988296791,32.599121307561234L793.0116020326853,32.599121307561234L793.0581771470784,32.599121307561234L793.1513273758644,54.43185251585311L793.2677651618471,87.18094932829092L793.5937909625986,54.43185251585311L794.2225550069052,32.599121307561234L796.8307614129172,43.51548691170717L797.0403494276861,76.26458372414498L797.5759632432064,54.43185251585311L797.9718517155475,54.43185251585311L798.6006157598541,54.43185251585311L799.3225300329467,21.68275570341524L799.6951309480912,76.26458372414498L799.7184185052879,32.599121307561234L799.9512940772532,32.599121307561234L802.9553889556064,76.26458372414498L802.978676512803,54.43185251585311" style="fill: none;" fill="none"></path></g></g></g></g></g></g><g transform="translate(39, 377)" clip-path="url(#clip_1)"><clipPath id="clip_1"><rect width="879" height="23"></rect></clipPath><g><g><line x1="31.601631934722484" y1="0" x2="31.601631934722484" y2="5" style="visibility: inherit;" fill="rgb(0, 0, 0)" stroke="rgb(204, 204, 204)" stroke-width="1px"></line><line x1="148.0394179174058" y1="0" x2="148.0394179174058" y2="5" style="visibility: inherit;" fill="rgb(0, 0, 0)" stroke="rgb(204, 204, 204)" stroke-width="1px"></line><line x1="264.4772039000892" y1="0" x2="264.4772039000892" y2="5" style="visibility: inherit;" fill="rgb(0, 0, 0)" stroke="rgb(204, 204, 204)" stroke-width="1px"></line><line x1="380.9149898827725" y1="0" x2="380.9149898827725" y2="5" style="visibility: inherit;" fill="rgb(0, 0, 0)" stroke="rgb(204, 204, 204)" stroke-width="1px"></line><line x1="497.3527758654559" y1="0" x2="497.3527758654559" y2="5" style="visibility: inherit;" fill="rgb(0, 0, 0)" stroke="rgb(204, 204, 204)" stroke-width="1px"></line><line x1="613.7905618481392" y1="0" x2="613.7905618481392" y2="5" style="visibility: inherit;" fill="rgb(0, 0, 0)" stroke="rgb(204, 204, 204)" stroke-width="1px"></line><line x1="730.2283478308225" y1="0" x2="730.2283478308225" y2="5" style="visibility: inherit;" fill="rgb(0, 0, 0)" stroke="rgb(204, 204, 204)" stroke-width="1px"></line><line x1="846.6661338135058" y1="0" x2="846.6661338135058" y2="5" style="visibility: inherit;" fill="rgb(0, 0, 0)" stroke="rgb(204, 204, 204)" stroke-width="1px"></line></g><g transform="translate(0, 8)"><text x="31.601631934722484" y="0" dx="0em" dy="0.95em" style="text-anchor: middle; visibility: inherit; font-family: &quot;Helvetica Neue&quot;, sans-serif; font-size: 12px; font-weight: 200;" fill="rgb(50, 49, 63)" stroke="none" stroke-width="1px">-5k</text><text x="148.0394179174058" y="0" dx="0em" dy="0.95em" style="text-anchor: middle; visibility: inherit; font-family: &quot;Helvetica Neue&quot;, sans-serif; font-size: 12px; font-weight: 200;" fill="rgb(50, 49, 63)" stroke="none" stroke-width="1px">0</text><text x="264.4772039000892" y="0" dx="0em" dy="0.95em" style="text-anchor: middle; visibility: inherit; font-family: &quot;Helvetica Neue&quot;, sans-serif; font-size: 12px; font-weight: 200;" fill="rgb(50, 49, 63)" stroke="none" stroke-width="1px">5k</text><text x="380.9149898827725" y="0" dx="0em" dy="0.95em" style="text-anchor: middle; visibility: inherit; font-family: &quot;Helvetica Neue&quot;, sans-serif; font-size: 12px; font-weight: 200;" fill="rgb(50, 49, 63)" stroke="none" stroke-width="1px">10k</text><text x="497.3527758654559" y="0" dx="0em" dy="0.95em" style="text-anchor: middle; visibility: inherit; font-family: &quot;Helvetica Neue&quot;, sans-serif; font-size: 12px; font-weight: 200;" fill="rgb(50, 49, 63)" stroke="none" stroke-width="1px">15k</text><text x="613.7905618481392" y="0" dx="0em" dy="0.95em" style="text-anchor: middle; visibility: inherit; font-family: &quot;Helvetica Neue&quot;, sans-serif; font-size: 12px; font-weight: 200;" fill="rgb(50, 49, 63)" stroke="none" stroke-width="1px">20k</text><text x="730.2283478308225" y="0" dx="0em" dy="0.95em" style="text-anchor: middle; visibility: inherit; font-family: &quot;Helvetica Neue&quot;, sans-serif; font-size: 12px; font-weight: 200;" fill="rgb(50, 49, 63)" stroke="none" stroke-width="1px">25k</text><text x="846.6661338135058" y="0" dx="0em" dy="0.95em" style="text-anchor: middle; visibility: inherit; font-family: &quot;Helvetica Neue&quot;, sans-serif; font-size: 12px; font-weight: 200;" fill="rgb(50, 49, 63)" stroke="none" stroke-width="1px">30k</text></g><line x1="0" y1="0" x2="879.640625" y2="0" fill="rgb(0, 0, 0)" stroke="rgb(204, 204, 204)" stroke-width="1px"></line></g></g></g></g></svg>